<?xml version="1.0" encoding="UTF-8"?>
<svg version="1.1" xmlns="http://www.w3.org/2000/svg" width="1920" height="1152">
<path d="M0 0 C633.6 0 1267.2 0 1920 0 C1920 380.16 1920 760.32 1920 1152 C1286.4 1152 652.8 1152 0 1152 C0 771.84 0 391.68 0 0 Z " fill="#DA2416" transform="translate(0,0)"/>
<path d="M0 0 C482.51100585 0 482.51100585 0 641.96412277 64.27656937 C651.79846514 68.239719 661.63545508 72.19629661 671.47265625 76.15234375 C673.05877055 76.79026258 673.05877055 76.79026258 674.67692757 77.44106865 C697.37879206 86.56969476 720.11344547 95.61533679 742.87086391 104.60453892 C744.85795951 105.38958296 746.84479827 106.17527337 748.83155823 106.96116638 C751.19038862 107.89386885 753.54982823 108.82503285 755.91001892 109.75428772 C756.93027664 110.15771896 757.95053436 110.56115021 759.00170898 110.97680664 C759.87810532 111.32232071 760.75450165 111.66783478 761.65745544 112.02381897 C763.82725071 112.92801222 765.91316109 113.91979637 768 115 C765.64293843 116.57137438 763.83500023 117.56299114 761.25915527 118.58360291 C760.50119156 118.88591576 759.74322784 119.18822861 758.96229553 119.49970245 C758.1310466 119.82714195 757.29979767 120.15458145 756.44335938 120.49194336 C755.55909775 120.84349739 754.67483612 121.19505142 753.76377869 121.55725861 C750.7916978 122.7379937 747.81770161 123.9138293 744.84375 125.08984375 C742.72019569 125.93267343 740.59678597 126.7758675 738.47351074 127.61940002 C733.89401502 129.43815224 729.31376104 131.25497621 724.73291016 133.0703125 C713.04856879 137.70110225 701.36896946 142.34383285 689.68968582 146.98736048 C687.7710129 147.7501637 685.85229087 148.5128433 683.93356323 149.27550888 C657.38603213 159.82856941 630.87582986 170.47377221 604.37427139 181.14173889 C563.62830885 197.54340011 522.84898879 213.85655142 482 230 C487.61014761 232.89127106 493.25420067 235.40748981 499.12426758 237.71899414 C500.00923668 238.07083173 500.89420578 238.42266932 501.80599213 238.78516865 C504.75088782 239.95509546 507.69772314 241.12005576 510.64453125 242.28515625 C512.76130776 243.12525925 514.87793715 243.96573305 516.99443054 244.80654907 C521.54439889 246.613516 526.09513528 248.4185291 530.64648438 250.22201538 C542.2563812 254.82293596 553.86128218 259.43643654 565.46600676 264.05038381 C567.37243035 264.80832493 569.27890312 265.56614226 571.18538284 266.32394218 C602.37092431 278.72063666 633.50789565 291.23779827 664.63974953 303.76862717 C670.09179216 305.96311813 675.54392834 308.1573766 680.99609375 310.3515625 C682.04136356 310.77227776 683.08663338 311.19299301 684.16357803 311.62645721 C696.99160578 316.78905945 709.82605697 321.93493647 722.67447281 327.04659843 C724.92018808 327.94006288 727.16567692 328.83409403 729.41110229 329.72828674 C737.37316697 332.89905496 737.37316697 332.89905496 745.34033203 336.05697632 C748.70902567 337.38929465 752.0754125 338.72728533 755.44140625 340.06640625 C756.88423729 340.63329666 756.88423729 340.63329666 758.35621643 341.2116394 C759.21649948 341.5550235 760.07678253 341.89840759 760.96313477 342.25219727 C762.07121239 342.69052635 762.07121239 342.69052635 763.20167542 343.13771057 C765 344 765 344 767 346 C759.61923227 349.42765726 752.17640513 352.61142104 744.61328125 355.61328125 C742.96845009 356.26994026 742.96845009 356.26994026 741.29039001 356.93986511 C738.27014907 358.14513973 735.24900497 359.34811699 732.22749329 360.55020142 C728.94153366 361.85823857 725.65684461 363.16945847 722.37207031 364.48046875 C718.11748544 366.17835428 713.86279884 367.87598284 709.6076355 369.57241821 C698.75507831 373.89917009 687.90589485 378.23430743 677.05859375 382.57421875 C676.25557957 382.89549429 675.45256538 383.21676983 674.62521744 383.54778099 C670.50629172 385.19574999 666.38741357 386.84383785 662.26855469 388.49197388 C654.65171873 391.53973149 647.03444405 394.58639236 639.41720963 397.63315392 C635.10348037 399.35858241 630.78977873 401.08407996 626.47607422 402.80957031 C624.73606377 403.50557487 622.99605319 404.2015791 621.25604248 404.89758301 C620.39074669 405.24370132 619.5254509 405.58981964 618.63393402 405.94642639 C610.68536367 409.12585453 610.68536367 409.12585453 608.01808834 410.19276428 C606.23843317 410.90462661 604.45877835 411.6164898 602.67912388 412.32835388 C598.25514091 414.0979515 593.83115197 415.86753419 589.40715027 417.63708496 C581.67088641 420.73151976 573.93465854 423.82604433 566.19867229 426.9211731 C562.11685084 428.55428866 558.03499707 430.18732345 553.953125 431.8203125 C552.77802588 432.29042503 552.77802588 432.29042503 551.57918739 432.77003479 C541.48704081 436.80733692 531.39299004 440.83981961 521.296875 444.8671875 C518.16885846 446.11565286 515.04088771 447.36423288 511.91293335 448.612854 C509.18115516 449.70266395 506.44863821 450.79060475 503.71606445 451.87841797 C502.1140571 452.51780857 500.512085 453.15728749 498.91015625 453.796875 C498.226651 454.06821259 497.54314575 454.33955017 496.83892822 454.61911011 C493.27859197 456.04307795 489.75912522 457.53701409 486.25730896 459.09991455 C485.45703498 459.45673939 484.656761 459.81356422 483.83223629 460.18120193 C482.92527933 460.58650698 482.92527933 460.58650698 482 461 C497.58185792 467.27450142 513.16534715 473.54494388 528.75 479.8125 C529.938284 480.29038971 531.12656799 480.76827942 532.3508606 481.26065063 C570.03741407 496.41573701 607.75458666 511.49198925 645.5 526.5 C676.06404262 538.65306257 706.61973389 550.82502212 737.125 563.125 C738.55151308 563.69995265 739.97802674 564.27490384 741.40454102 564.84985352 C745.25211004 566.40091179 749.09885775 567.95399292 752.9453125 569.5078125 C754.05717926 569.95653717 755.16904602 570.40526184 756.31460571 570.86758423 C757.31180634 571.271091 758.30900696 571.67459778 759.33642578 572.09033203 C760.19648224 572.43806671 761.0565387 572.78580139 761.94265747 573.14407349 C763.31578648 573.71534323 764.66978726 574.33489363 766 575 C766 575.66 766 576.32 766 577 C742.38079468 586.92579424 718.57587165 596.37654702 694.76379395 605.82772827 C682.83220183 610.56372219 670.90404342 615.30835071 658.9765625 620.0546875 C658.05699233 620.42058743 658.05699233 620.42058743 657.11884499 620.79387927 C621.95085617 634.78779922 586.83638696 648.91471244 551.72299194 663.04496765 C550.69177593 663.45994696 549.66055992 663.87492626 548.59809494 664.3024807 C546.56035863 665.12253332 544.52264112 665.94263265 542.48494339 666.76278114 C522.33547904 674.87234532 502.17096236 682.94407415 482 691 C492.42678996 695.98839062 503.19656525 700.13075272 513.9375 704.3828125 C516.05005122 705.22160553 518.16248504 706.06069427 520.27481079 706.90005493 C524.80712865 708.70061633 529.34001158 710.49974433 533.87335205 712.29772949 C545.44156671 716.88625631 557.00605602 721.48415847 568.56987047 726.08376122 C569.83377467 726.58648203 571.09769043 727.08917379 572.36161757 727.59183693 C600.81149513 738.90642726 629.22203088 750.31819017 657.625 761.75 C666.45667667 765.30426703 675.28860442 768.85790914 684.12109375 772.41015625 C685.16421282 772.82967749 686.20733189 773.24919872 687.28206062 773.68143272 C713.4833282 784.21700658 739.72625598 794.64652099 766 805 C766 805.99 766 806.98 766 808 C765.33159592 808.25485168 764.66319183 808.50970337 763.97453308 808.77227783 C738.14564865 818.64478138 712.50788548 828.98931398 686.86017609 839.32121658 C680.83698147 841.74698499 674.81277924 844.17024802 668.78857422 846.59350586 C667.59155758 847.07501445 666.39454094 847.55652304 665.16125107 848.0526228 C662.76024054 849.01843602 660.35922561 849.98423828 657.95820618 850.95002937 C654.40797944 852.37816629 650.85784861 853.80654139 647.30773926 855.23497009 C630.42081729 862.02920898 613.5276853 868.80757107 596.625 875.5625 C594.41926661 876.44440674 592.21353744 877.32632406 590.0078125 878.20825195 C578.14808355 882.94913605 566.28602418 887.68416556 554.42318344 892.41725636 C546.51094155 895.57429009 538.59947011 898.73325044 530.68840408 901.89322948 C524.81948136 904.23733769 518.94963359 906.5791096 513.07908535 908.91914368 C509.43955093 910.37050116 505.80087743 911.82400706 502.16243935 913.2781105 C500.44935292 913.96222976 498.73590412 914.64544231 497.02208519 915.32772446 C494.66847334 916.26486198 492.31614294 917.20514511 489.96411133 918.14624023 C489.26699854 918.42292825 488.56988575 918.69961626 487.85164833 918.98468876 C484.68888014 920.10129146 484.68888014 920.10129146 482 922 C483.11542679 922.44322098 484.23085358 922.88644196 485.38008118 923.34309387 C500.02552426 929.16295238 514.66945773 934.98660367 529.3125 940.8125 C530.51366455 941.29038971 531.7148291 941.76827942 532.95239258 942.26065063 C572.91475765 958.16117383 612.84033025 974.15130902 652.73843384 990.21252441 C674.71548746 999.0594285 696.69365643 1007.90213439 718.71875 1016.62890625 C719.54534119 1016.95649807 720.37193237 1017.28408989 721.22357178 1017.62160873 C728.79736383 1020.62273442 736.37271874 1023.61982645 743.9529953 1026.60453892 C745.94408535 1027.38895631 747.93461429 1028.17477838 749.92492676 1028.96116638 C752.28987787 1029.89519617 754.6559281 1030.82645011 757.02331543 1031.75428772 C758.04364868 1032.15771896 759.06398193 1032.56115021 760.11523438 1032.97680664 C760.99385132 1033.32232071 761.87246826 1033.66783478 762.77770996 1034.02381897 C765 1035 765 1035 768 1037 C759.87334816 1040.39855817 751.73229249 1043.75962829 743.57421875 1047.08203125 C742.40944504 1047.55639114 741.24467133 1048.03075104 740.04460144 1048.51948547 C727.32014302 1053.69381642 714.56686022 1058.79582346 701.81003952 1063.8897171 C698.33279262 1065.27846965 694.85598945 1066.66833225 691.37915039 1068.05810547 C686.91468672 1069.84258711 682.45018788 1071.62698052 677.98551941 1073.41094971 C662.80086234 1079.4783755 647.61851095 1085.55156076 632.43633842 1091.62520027 C626.59096946 1093.96362406 620.74546763 1096.30171548 614.89990234 1098.63964844 C599.08969282 1104.96303769 583.27996601 1111.28762631 567.47190857 1117.61639404 C561.09520979 1120.16930166 554.71828048 1122.72163321 548.34130192 1125.27384186 C543.18029944 1127.33945148 538.01959869 1129.40581243 532.85913658 1131.47277164 C529.6404234 1132.76176464 526.42140724 1134.0499997 523.20231628 1135.33804893 C521.73907588 1135.92370357 520.27595261 1136.50965097 518.81297302 1137.0959568 C358.2190123 1201.45195411 173.00900153 1152 0 1152 C0 771.84 0 391.68 0 0 Z " fill="#FEFEFE" transform="translate(0,0)"/>
<path d="M0 0 C-3.31520125 2.79822679 -6.69781061 4.18818992 -10.75 5.6875 C-11.92046875 6.12449219 -13.0909375 6.56148437 -14.296875 7.01171875 C-15.18890625 7.33785156 -16.0809375 7.66398438 -17 8 C-16.34 9.32 -15.68 10.64 -15 12 C-17.64 11.01 -20.28 10.02 -23 9 C-21.09837767 5.19675534 -15.86114027 4.31051849 -12.0625 2.8125 C-10.66354492 2.24112305 -10.66354492 2.24112305 -9.23632812 1.65820312 C-8.34494141 1.30306641 -7.45355469 0.94792969 -6.53515625 0.58203125 C-5.714104 0.25436768 -4.89305176 -0.0732959 -4.04711914 -0.41088867 C-2 -1 -2 -1 0 0 Z " fill="#C64036" transform="translate(504,222)"/>
<path d="M0 0 C0 0.99 0 1.98 0 3 C-0.639375 3.12375 -1.27875 3.2475 -1.9375 3.375 C-2.618125 3.58125 -3.29875 3.7875 -4 4 C-4.33 4.66 -4.66 5.32 -5 6 C-4.34 6 -3.68 6 -3 6 C-3.33 6.66 -3.66 7.32 -4 8 C-5.98 7.01 -7.96 6.02 -10 5 C-7.90217213 2.90217213 -6.6200793 2.3490604 -3.875 1.375 C-3.15054687 1.11460937 -2.42609375 0.85421875 -1.6796875 0.5859375 C-0.84824219 0.29589844 -0.84824219 0.29589844 0 0 Z " fill="#C54036" transform="translate(491,456)"/>
<path d="M0 0 C0 0.99 0 1.98 0 3 C0.33 3.99 0.66 4.98 1 6 C-1.31 5.34 -3.62 4.68 -6 4 C-3.94766315 1.7522025 -2.99332739 0.9977758 0 0 Z " fill="#C54238" transform="translate(487,688)"/>
<path d="M0 0 C0 0.99 0 1.98 0 3 C-0.99 3.495 -0.99 3.495 -2 4 C-2.33 4.66 -2.66 5.32 -3 6 C-4.32 5.34 -5.64 4.68 -7 4 C-4.61426621 2.10786631 -2.92824652 0.97608217 0 0 Z " fill="#C2443B" transform="translate(488,918)"/>
<path d="M0 0 C2.64 0.33 5.28 0.66 8 1 C8.33 2.32 8.66 3.64 9 5 C8.34 5 7.68 5 7 5 C7 4.34 7 3.68 7 3 C4.69 2.34 2.38 1.68 0 1 C0 0.67 0 0.34 0 0 Z " fill="#D14D42" transform="translate(759,572)"/>
</svg>
