<?xml version="1.0" encoding="UTF-8"?>
<svg version="1.1" xmlns="http://www.w3.org/2000/svg" width="1920" height="1280">
<path d="M0 0 C633.6 0 1267.2 0 1920 0 C1920 422.4 1920 844.8 1920 1280 C1286.4 1280 652.8 1280 0 1280 C0 857.6 0 435.2 0 0 Z " fill="#CE0920" transform="translate(0,0)"/>
<path d="M0 0 C633.6 0 1267.2 0 1920 0 C1920 140.91 1920 281.82 1920 427 C1286.4 427 652.8 427 0 427 C0 286.09 0 145.18 0 0 Z " fill="#000000" transform="translate(0,853)"/>
<path d="M0 0 C633.6 0 1267.2 0 1920 0 C1920 140.58 1920 281.16 1920 426 C1286.4 426 652.8 426 0 426 C0 285.42 0 144.84 0 0 Z " fill="#FEFEFE" transform="translate(0,427)"/>
<path d="M0 0 C0.1959375 0.52207031 0.391875 1.04414062 0.59375 1.58203125 C4.19471616 10.44475399 10.04067378 17.60405049 16 25 C15.443125 25.06316406 14.88625 25.12632812 14.3125 25.19140625 C3.10641977 26.98967926 -3.86471719 36.75517224 -11.5 44.5 C-21.51712468 54.66084239 -21.51712468 54.66084239 -25.96875 58.46875 C-31.27057041 63.00933836 -36.10306387 68.03315519 -41 73 C-46.48816911 78.56651823 -51.9737588 84.05596476 -57.91796875 89.140625 C-62.47862626 93.21355741 -66.70826129 97.64699242 -71 102 C-82.19453453 113.35434773 -82.19453453 113.35434773 -88.24609375 118.46484375 C-90.24869272 120.21767537 -92.11813639 122.11813639 -94 124 C-57.37 124.33 -20.74 124.66 17 125 C17 122.36 17 119.72 17 117 C18.75282167 109.93968334 24.1552664 104.92830713 30 101 C35.50860019 98.02043664 41.21423899 95.44635892 46.94458008 92.92626953 C49.03777376 92.02734627 49.03777376 92.02734627 51.05249023 90.79394531 C53 90 53 90 56.390625 91.4140625 C57.68606875 92.13513034 58.97221536 92.87308262 60.25 93.625 C61.59844189 94.3863321 62.94739544 95.14675872 64.296875 95.90625 C64.93947266 96.27363281 65.58207031 96.64101563 66.24414062 97.01953125 C68.28520605 98.15925855 70.37408177 99.15410821 72.5 100.125 C79.67470165 103.96859017 84.10886219 108.32138669 87 116 C94.11483767 144.45935067 88 174.66477279 88 204 C-66.935 204.495 -66.935 204.495 -225 205 C-225.99 208.3 -226.98 211.6 -228 215 C-233.55118594 226.02261347 -241.83746862 232.24078119 -253 237 C-254.18722656 237.51433594 -254.18722656 237.51433594 -255.3984375 238.0390625 C-260.86870414 240.03673667 -266.17303414 240.27016314 -271.9375 240.3125 C-272.68410889 240.31813965 -273.43071777 240.3237793 -274.19995117 240.32958984 C-277.98369689 240.27865065 -279.78172583 240.14551612 -283 238 C-281.9378125 237.35933594 -280.875625 236.71867188 -279.78125 236.05859375 C-267.13882579 228.35774609 -257.16640389 221.79477371 -251.625 207.4375 C-248.06730729 187.87019007 -258.64498255 168.03702119 -268.49609375 151.79296875 C-270 149 -270 149 -270 146 C-268.93523438 145.59910156 -267.87046875 145.19820312 -266.7734375 144.78515625 C-256.68793415 140.87397447 -247.86177364 136.19341074 -239 130 C-237.95972945 133.12081164 -237.99004749 135.06014462 -238.125 138.3125 C-238.13743197 143.03043314 -237.94854661 146.13003258 -235 150 C-223.74126593 159.26580873 -208.22384602 158.16339155 -194.4375 158.5625 C-193.03319297 158.60579176 -191.62889594 158.64940904 -190.22460938 158.69335938 C-186.81649049 158.79876511 -183.4083068 158.90088982 -180 159 C-180.08125925 155.76983274 -180.19406605 152.54150112 -180.3125 149.3125 C-180.33505859 148.40048828 -180.35761719 147.48847656 -180.38085938 146.54882812 C-180.62547196 140.4335135 -181.41714007 136.77418289 -185.6875 132.1875 C-186.120625 131.795625 -186.55375 131.40375 -187 131 C-186.41992188 130.75765625 -185.83984375 130.5153125 -185.2421875 130.265625 C-184.46101562 129.93046875 -183.67984375 129.5953125 -182.875 129.25 C-182.10929688 128.92515625 -181.34359375 128.6003125 -180.5546875 128.265625 C-174.08393844 125.0599328 -168.87858409 120.44023165 -163.50390625 115.71484375 C-159.20830526 112 -159.20830526 112 -157 112 C-157 126.52 -157 141.04 -157 156 C-85.72 156 -14.44 156 59 156 C61.08589635 136.23459593 61.08589635 136.23459593 55 120 C51.95788569 119.5832448 51.95788569 119.5832448 49 120 C46.44232116 122.55767884 46.73825112 123.57159944 46.69140625 127.12109375 C46.66626953 128.13880859 46.64113281 129.15652344 46.61523438 130.20507812 C46.58014282 132.35606055 46.54887854 134.5071089 46.52148438 136.65820312 C46.4818457 138.18670898 46.4818457 138.18670898 46.44140625 139.74609375 C46.42795166 140.68122803 46.41449707 141.6163623 46.40063477 142.57983398 C45.90875043 145.55122302 45.42637919 146.24303489 43 148 C40.02275562 148.36914349 40.02275562 148.36914349 36.29927063 148.36076355 C35.61475411 148.36332682 34.93023759 148.3658901 34.22497815 148.36853105 C31.92619605 148.37348123 29.62806752 148.35695642 27.3293457 148.34057617 C25.68360408 148.33973016 24.03786132 148.34020453 22.39212036 148.34190369 C17.91920142 148.34276609 13.44652275 148.32510076 8.97365975 148.30418181 C4.30115231 148.2854558 -0.37136036 148.28366779 -5.04389954 148.28010559 C-13.89430311 148.27077313 -22.7445958 148.24614311 -31.5949505 148.21605712 C-41.66978253 148.18255046 -51.74461979 148.16603651 -61.81949365 148.15097082 C-82.54639104 148.11959459 -103.27318854 148.06681077 -124 148 C-124.13213179 143.85010511 -124.22810462 139.70134993 -124.29182434 135.54997253 C-124.31840725 134.14039257 -124.35456171 132.73095723 -124.40077209 131.32188416 C-124.82323112 118.10110947 -124.82323112 118.10110947 -121.43896484 113.78451538 C-117.4508019 110.20140576 -117.4508019 110.20140576 -115.125 108.8515625 C-109.77424602 105.37831225 -105.59905447 100.75369429 -101.1875 96.1875 C-92.67332617 87.51476896 -92.67332617 87.51476896 -88.11328125 83.61328125 C-82.78876383 79.03931003 -77.92435699 73.99465712 -73 69 C-67.51183089 63.43348177 -62.0262412 57.94403524 -56.08203125 52.859375 C-51.52137374 48.78644259 -47.29173871 44.35300758 -43 40 C-32.49371545 29.3437277 -32.49371545 29.3437277 -28.0234375 25.52734375 C-24.6830646 22.67158895 -21.56438885 19.62770388 -18.4765625 16.50390625 C-17.76049835 15.77957901 -17.76049835 15.77957901 -17.02996826 15.0406189 C-15.05297435 13.0358985 -13.07987893 11.02742705 -11.11083984 9.01489258 C-9.65371557 7.52775618 -8.19058243 6.04674995 -6.7265625 4.56640625 C-5.86627441 3.68927979 -5.00598633 2.81215332 -4.11962891 1.90844727 C-2 0 -2 0 0 0 Z " fill="#037C3C" transform="translate(860,526)"/>
<path d="M0 0 C0.33 0 0.66 0 1 0 C1 65.01 1 130.02 1 197 C-51.14 197 -103.28 197 -157 197 C-157 141.57132688 -157 141.57132688 -145.6875 129.125 C-138.94642126 122.7942478 -130.25750934 121.85422181 -121.3125 121.875 C-120.19488281 121.87242187 -119.07726563 121.86984375 -117.92578125 121.8671875 C-115 122 -115 122 -112 123 C-112.495 114.09 -112.495 114.09 -113 105 C-114.32 104.67 -115.64 104.34 -117 104 C-117 103.01 -117 102.02 -117 101 C-115.0859375 99.16015625 -115.0859375 99.16015625 -112.375 97.0625 C-110.88226562 95.88300781 -110.88226562 95.88300781 -109.359375 94.6796875 C-108.81861328 94.25268555 -108.27785156 93.82568359 -107.72070312 93.38574219 C-104.62608331 90.89353701 -101.63029764 88.28610464 -98.625 85.6875 C-87.41932127 76 -87.41932127 76 -85 76 C-85 100.09 -85 124.18 -85 149 C-79.06 149 -73.12 149 -67 149 C-67.05760498 146.35629395 -67.11520996 143.71258789 -67.17456055 140.98876953 C-67.35728971 132.22822503 -67.47851169 123.46759359 -67.56993389 114.70564461 C-67.62720787 109.39583197 -67.70480934 104.08798067 -67.82983398 98.77929688 C-67.94986234 93.65032749 -68.0152283 88.52323703 -68.04364967 83.39297104 C-68.0638867 81.44159242 -68.10340937 79.49031027 -68.16303062 77.5397377 C-68.63466237 61.46197703 -68.63466237 61.46197703 -64.59658813 56.61322021 C-61.98887552 54.02298405 -59.08253239 51.9987709 -56 50 C-54.86024086 49.0592679 -53.73169506 48.10441504 -52.625 47.125 C-51.75875 46.42375 -50.8925 45.7225 -50 45 C-49.113125 44.278125 -48.22625 43.55625 -47.3125 42.8125 C-45 41 -45 41 -42 39 C-42 75.3 -42 111.6 -42 149 C-36.06 149 -30.12 149 -24 149 C-24.02220612 147.43922729 -24.04441223 145.87845459 -24.06729126 144.27038574 C-24.27006527 129.55690553 -24.42053982 114.84393939 -24.51812172 100.12941742 C-24.56962594 92.5645475 -24.63980391 85.00072249 -24.75439453 77.43652344 C-24.85425827 70.84129515 -24.9186258 64.24682367 -24.94088495 57.65086031 C-24.95389245 54.15979566 -24.98431642 50.67089542 -25.05730057 47.18052673 C-25.13823336 43.27815071 -25.13988744 39.37786628 -25.13525391 35.47460938 C-25.17120667 34.32517853 -25.20715942 33.17574768 -25.24420166 31.9914856 C-25.18336379 27.25081149 -25.08976282 24.22842356 -21.86661911 20.59516907 C-19.32781713 18.55306167 -16.72683072 16.77947633 -14 15 C-8.43513138 10.4431209 -3.99011363 5.98517044 0 0 Z " fill="#037C3C" transform="translate(1252,533)"/>
<path d="M0 0 C4.99097312 1.66365771 8.72507946 3.53876028 13.0625 6.3125 C19.7893383 10.49941612 26.46883901 13.47267953 34 16 C33.7195669 20.58040723 33.54453576 22.35852736 30.49043274 25.95631409 C26.74298874 31.04030669 27.29608977 36.54510996 27.34057617 42.63647461 C27.32485062 44.52532379 27.32485062 44.52532379 27.30880737 46.45233154 C27.28076159 49.88794009 27.28311437 53.32292216 27.29110122 56.75861049 C27.29423467 60.35548832 27.26916753 63.95216952 27.24714661 67.54896545 C27.20975153 74.35217539 27.19756133 81.15518546 27.1945222 87.95848805 C27.18982642 95.70708745 27.15688652 103.45548725 27.12162435 111.20399845 C27.04975072 127.13598461 27.01318286 143.0678506 27 159 C28.74669504 158.87673275 30.49266906 158.74322377 32.23828125 158.60546875 C33.69681519 158.49561646 33.69681519 158.49561646 35.18481445 158.38354492 C41.16746577 157.56845992 45.52165997 154.43579082 50.23828125 150.85546875 C51.30042847 150.0514563 51.30042847 150.0514563 52.3840332 149.23120117 C52.91730225 148.82490479 53.45057129 148.4186084 54 148 C54.12004395 148.55236328 54.24008789 149.10472656 54.36376953 149.67382812 C56.61261003 159.88775278 59.04693267 169.77662816 62.89550781 179.51147461 C66.16244116 187.81903349 68 195.05153347 68 204 C45.56 204 23.12 204 0 204 C0 136.68 0 69.36 0 0 Z " fill="#057C3D" transform="translate(971,526)"/>
<path d="M0 0 C4.99097312 1.66365771 8.72507946 3.53876028 13.0625 6.3125 C19.7893383 10.49941612 26.46883901 13.47267953 34 16 C33.7195669 20.58040723 33.54453576 22.35852736 30.49043274 25.95631409 C26.74298874 31.04030669 27.29608977 36.54510996 27.34057617 42.63647461 C27.32485062 44.52532379 27.32485062 44.52532379 27.30880737 46.45233154 C27.28076159 49.88794009 27.28311437 53.32292216 27.29110122 56.75861049 C27.29423467 60.35548832 27.26916753 63.95216952 27.24714661 67.54896545 C27.20975153 74.35217539 27.19756133 81.15518546 27.1945222 87.95848805 C27.18982642 95.70708745 27.15688652 103.45548725 27.12162435 111.20399845 C27.04975072 127.13598461 27.01318286 143.0678506 27 159 C28.74669504 158.87673275 30.49266906 158.74322377 32.23828125 158.60546875 C33.69681519 158.49561646 33.69681519 158.49561646 35.18481445 158.38354492 C41.16746577 157.56845992 45.52165997 154.43579082 50.23828125 150.85546875 C51.30042847 150.0514563 51.30042847 150.0514563 52.3840332 149.23120117 C52.91730225 148.82490479 53.45057129 148.4186084 54 148 C54.21765015 148.88800293 54.21765015 148.88800293 54.43969727 149.79394531 C57.30737142 161.38976054 60.28423036 172.80291271 64.72680664 183.91113281 C67.43068524 191.03399655 67.36043985 195.68571804 68 204 C45.56 204 23.12 204 0 204 C0 136.68 0 69.36 0 0 Z " fill="#047C3D" transform="translate(1276,526)"/>
<path d="M0 0 C3 2 3 2 4 5 C4.58700933 11.10489702 3.46454979 14.130903 0 19 C-3.80733481 22.47139351 -7.58248363 22.37712583 -12.5078125 22.23828125 C-15.81622404 21.92195977 -18.83070436 20.97516789 -22 20 C-27.61842591 19.29769676 -30.35837769 21.10993328 -35 24 C-41.15318225 26.05106075 -48.67790023 26.151907 -54.81640625 24.0234375 C-58.83974382 21.86263347 -61.39137777 19.77967556 -64 16 C-62.783125 16.165 -61.56625 16.33 -60.3125 16.5 C-46.46191101 18.15439295 -46.46191101 18.15439295 -34 13 C-33.113125 12.071875 -32.22625 11.14375 -31.3125 10.1875 C-29 8 -29 8 -26.75 7.9375 C-24 9 -24 9 -21.9296875 10.01171875 C-16.86893973 12.45631725 -13.6430683 13.77037437 -8 12 C-4.00454934 9.11439675 -2.76213352 5.44728935 -1 1 C-0.67 0.67 -0.34 0.34 0 0 Z " fill="#0C7C41" transform="translate(1205,538)"/>
<path d="M0 0 C3.4375 2 3.4375 2 6 5 C6.74640732 7.82609184 6.68717509 10.16540277 6 13 C4.20636089 15.8100346 2.98119065 17.50940468 0 19 C-4.05961302 19.55358359 -5.77751981 19.12772011 -9.375 17.0625 C-11.90160629 14.72255592 -12.48775483 12.91849591 -12.6875 9.5 C-12.43344992 6.04145458 -11.9560415 4.93472828 -9.9375 1.9375 C-6.19734441 -0.52941113 -4.40488582 -0.77278699 0 0 Z " fill="#097C3F" transform="translate(676,743)"/>
<path d="M0 0 C0 0.99 0 1.98 0 3 C-1.28978348 4.01269304 -2.60741166 4.99007662 -3.9375 5.94921875 C-9.03660089 10.90780209 -8.92229055 15.74841304 -9.04847717 22.48098755 C-9.05917676 25.2588776 -9.03020038 28.03477817 -9 30.8125 C-9.00752449 32.75164413 -9.01856369 34.69077752 -9.03295898 36.62988281 C-9.06131461 41.71342996 -9.04215422 46.79571307 -9.01287842 51.87921143 C-8.99143923 57.07450491 -9.01523828 62.26957333 -9.03515625 67.46484375 C-9.06754996 77.6435139 -9.04971502 87.82142273 -9 98 C-9.99 98.495 -9.99 98.495 -11 99 C-11.25551047 87.56907979 -11.45063985 76.13884482 -11.56993389 64.70564461 C-11.62720787 59.39583197 -11.70480934 54.08798067 -11.82983398 48.77929688 C-11.94986234 43.65032749 -12.0152283 38.52323703 -12.04364967 33.39297104 C-12.0638867 31.44159242 -12.10340937 29.49031027 -12.16303062 27.5397377 C-12.63538996 11.43717388 -12.63538996 11.43717388 -8.47793579 6.512146 C-5.9015271 3.96429979 -3.08150353 1.91086928 0 0 Z " fill="#0F723E" transform="translate(1196,583)"/>
<path d="M0 0 C2.5 0.1875 2.5 0.1875 5 1 C7.48614181 4.72921271 7.33170055 7.68371682 7.3125 12 C7.32861328 12.72445312 7.34472656 13.44890625 7.36132812 14.1953125 C7.36623832 19.51795882 7.36623832 19.51795882 5.48046875 22 C4.99191406 22.33 4.50335937 22.66 4 23 C-0.31209501 18.27722928 -2.15180833 11.8639092 -2.3125 5.5625 C-2 2 -2 2 0 0 Z " fill="#0F7C42" transform="translate(1172,514)"/>
<path d="M0 0 C-1.77743813 4.62133915 -4.06005621 6.06005621 -8 10 C26.65 10.33 61.3 10.66 97 11 C97 9.35 97 7.7 97 6 C97.66 5.67 98.32 5.34 99 5 C99 7.31 99 9.62 99 12 C62.04 12 25.08 12 -13 12 C-2.71428571 0 -2.71428571 0 0 0 Z " fill="#E8FEF8" transform="translate(778,639)"/>
<path d="M0 0 C0.99 0.66 1.98 1.32 3 2 C3.375 5 3.375 5 3 8 C-0.81094904 10.5406327 -3.53433894 10.58489947 -8 10 C-10.0625 8.875 -10.0625 8.875 -11 7 C-10.8125 3.875 -10.8125 3.875 -10 1 C-6.87293041 -0.5635348 -3.42017557 -0.39958487 0 0 Z " fill="#F2FCF8" transform="translate(1137,673)"/>
<path d="M0 0 C0.66 0.33 1.32 0.66 2 1 C1.01 2.32 0.02 3.64 -1 5 C3.29 5.33 7.58 5.66 12 6 C12 6.33 12 6.66 12 7 C9.22890693 7.05392397 6.45886182 7.09363455 3.6875 7.125 C2.90181641 7.14175781 2.11613281 7.15851562 1.30664062 7.17578125 C0.54931641 7.18222656 -0.20800781 7.18867187 -0.98828125 7.1953125 C-2.03302612 7.21102295 -2.03302612 7.21102295 -3.09887695 7.22705078 C-5 7 -5 7 -8 5 C-6.71475739 4.13619741 -5.42157581 3.28419631 -4.125 2.4375 C-3.04605469 1.72400391 -3.04605469 1.72400391 -1.9453125 0.99609375 C-1.30335938 0.66738281 -0.66140625 0.33867188 0 0 Z " fill="#348A5D" transform="translate(585,759)"/>
<path d="M0 0 C0 0.66 0 1.32 0 2 C-8.91 2.99 -8.91 2.99 -18 4 C-17 2 -17 2 -14.625 0.875 C-9.71740492 -0.30959192 -5.02296193 -0.16087778 0 0 Z " fill="#D4F0E5" transform="translate(1134,653)"/>
<path d="M0 0 C-1.38238352 3.10009769 -2.98578859 5.28263873 -5.375 7.6875 C-5.96023438 8.28949219 -6.54546875 8.89148438 -7.1484375 9.51171875 C-9.12608914 11.10135013 -10.5214179 11.5905426 -13 12 C-2.93659942 0 -2.93659942 0 0 0 Z " fill="#D3F1E4" transform="translate(778,639)"/>
<path d="M0 0 C3 2 3 2 4 5 C4.34710744 11.47933884 4.34710744 11.47933884 2 15 C2 11.04 2 7.08 2 3 C1.01 3 0.02 3 -1 3 C-1.33 4.32 -1.66 5.64 -2 7 C-2.33 6.34 -2.66 5.68 -3 5 C-1.5625 2.375 -1.5625 2.375 0 0 Z " fill="#32865A" transform="translate(1205,538)"/>
<path d="M0 0 C0 3 0 3 -1.75 5.04296875 C-2.4925 5.75066406 -3.235 6.45835937 -4 7.1875 C-4.7425 7.90292969 -5.485 8.61835937 -6.25 9.35546875 C-6.8275 9.89816406 -7.405 10.44085937 -8 11 C-8.33 10.01 -8.66 9.02 -9 8 C-6.03 5.36 -3.06 2.72 0 0 Z " fill="#1B7D4A" transform="translate(1196,583)"/>
<path d="M0 0 C1.14077657 3.42232972 1.09815117 6.08673217 1.0625 9.6875 C1.05347656 10.86699219 1.04445313 12.04648437 1.03515625 13.26171875 C1.02355469 14.16535156 1.01195312 15.06898438 1 16 C0.34 15.67 -0.32 15.34 -1 15 C-1 11.04 -1 7.08 -1 3 C-1.66 2.67 -2.32 2.34 -3 2 C-2.01 1.34 -1.02 0.68 0 0 Z " fill="#287C50" transform="translate(621,656)"/>
<path d="M0 0 C0 0.33 0 0.66 0 1 C-1.0725 1.28875 -2.145 1.5775 -3.25 1.875 C-6.09400364 2.72820109 -8.43508983 3.5636503 -11 5 C-10.625 3.0625 -10.625 3.0625 -10 1 C-6.78548731 -0.60725635 -3.56387464 -0.05748185 0 0 Z " fill="#E3FAF1" transform="translate(1137,673)"/>
<path d="M0 0 C0.66 0 1.32 0 2 0 C1.67257812 0.56203125 1.34515625 1.1240625 1.0078125 1.703125 C-0.11785494 4.26859964 -0.2068111 5.96842277 -0.125 8.75 C-0.10695313 9.54921875 -0.08890625 10.3484375 -0.0703125 11.171875 C-0.04710937 11.77515625 -0.02390625 12.3784375 0 13 C-2.71232939 8.93150591 -2.30699887 6.83523216 -2 2 C-1.34 1.34 -0.68 0.68 0 0 Z " fill="#1F7C4C" transform="translate(1172,514)"/>
</svg>
