<?xml version="1.0" encoding="UTF-8"?>
<svg version="1.1" xmlns="http://www.w3.org/2000/svg" width="2160" height="1080">
<path d="M0 0 C712.8 0 1425.6 0 2160 0 C2160 356.4 2160 712.8 2160 1080 C1447.2 1080 734.4 1080 0 1080 C0 723.6 0 367.2 0 0 Z " fill="#CE0922" transform="translate(0,0)"/>
<path d="M0 0 C712.47 0 1424.94 0 2159 0 C2159 118.8 2159 237.6 2159 360 C1991.39238109 360.16116832 1991.39238109 360.16116832 1945.04263677 360.20065334 C1942.33958274 360.20295678 1939.63652871 360.20526053 1936.93347469 360.20756994 C1873.80099196 360.26150311 1810.66850711 360.30447559 1747.53601074 360.33874512 C1745.48629066 360.33986072 1743.43657057 360.34097633 1741.38685048 360.34209196 C1698.36262736 360.36547347 1655.33840352 360.38720719 1612.31417861 360.40703743 C1590.7016654 360.41700058 1569.08915234 360.42728036 1547.47663941 360.43785953 C1544.21647469 360.43945352 1540.95630996 360.44103847 1537.69614523 360.44262304 C1487.49458247 360.46710272 1437.29303523 360.49837282 1387.0914917 360.54931641 C1386.01212509 360.5504116 1384.93275848 360.55150679 1383.82068379 360.55263516 C1366.41811367 360.57033412 1349.01554415 360.588603 1331.6129747 360.60694752 C1281.48779897 360.65977714 1231.36263517 360.70839204 1181.23743439 360.72911835 C1179.69122864 360.72976077 1179.69122864 360.72976077 1178.11378641 360.73041617 C1155.48503624 360.73974232 1132.85628591 360.74690113 1110.22753441 360.75200786 C1101.12245879 360.75410083 1092.01738325 360.7565058 1082.91230774 360.75901794 C1081.91579749 360.75928536 1080.91928723 360.75955278 1079.8925797 360.7598283 C1047.78591994 360.76859944 1015.67934884 360.80276655 983.57272486 360.85025767 C951.22984493 360.89798198 918.88705102 360.92079226 886.54413499 360.9089919 C882.0741577 360.90736727 877.60418038 360.90602821 873.13420296 360.90486145 C871.81984451 360.90450288 871.81984451 360.90450288 870.47893338 360.90413707 C856.60695328 360.90109245 842.73515525 360.92496239 828.86322475 360.9600789 C815.22085763 360.9940606 801.57872636 360.99950342 787.93633688 360.97465451 C779.93935772 360.9609474 771.94312695 360.96907881 763.94623526 361.00973601 C758.0056717 361.03748698 752.06568181 361.0233745 746.12511442 360.99311981 C743.73939957 360.9874117 741.35360496 360.99508389 738.96799221 361.01788196 C725.53413875 361.13810971 715.27295195 360.30841109 703.75191068 353.05982196 C700.6286437 351.1703952 697.33843662 349.60470788 694.0625 348 C693.32402832 347.62875 692.58555664 347.2575 691.82470703 346.875 C687.06584368 344.50152849 682.26076122 342.23911741 677.4375 340 C671.34908376 337.17138147 665.41827738 334.13537319 659.52099609 330.9296875 C654.66595389 328.30881264 649.72095959 325.94991425 644.70800781 323.64868164 C635.85644795 319.5757148 627.01590474 315.35378538 618.5625 310.5 C613.73324012 307.74962151 608.68393288 305.48878052 603.64526367 303.15454102 C598.80233829 300.89387549 594.06865295 298.49254022 589.375 295.9375 C584.50628578 293.29041338 579.59862303 290.81332501 574.5625 288.5 C564.18030078 283.73097411 553.97900992 278.63742066 543.9375 273.1875 C536.60393225 269.21635072 529.08942868 265.64766261 521.55615234 262.07373047 C513.95572154 258.46706486 506.41765895 254.75402085 498.90917969 250.96044922 C496.89367554 249.94651145 494.87329461 248.94286453 492.8515625 247.94140625 C487.03190317 245.05537192 481.23437773 242.17008272 475.5625 239 C470.3395531 236.10271311 464.96035826 233.61099409 459.54370117 231.10375977 C454.73415973 228.86093811 450.03566846 226.47409386 445.375 223.9375 C439.90050763 220.96111899 434.35548032 218.24024453 428.69262695 215.64208984 C422.05601608 212.58964527 415.54088256 209.30784577 409.02050781 206.01611328 C407.0042086 205.0021165 404.98347722 203.99757871 402.9609375 202.99609375 C396.29770374 199.6931316 389.67788947 196.33000012 383.125 192.8125 C375.14414633 188.52866696 367.09379607 184.49500031 358.875 180.6875 C349.30867406 176.25357997 339.71124363 171.75303584 330.5625 166.5 C325.73324012 163.74962151 320.68393288 161.48878052 315.64526367 159.15454102 C310.80233829 156.89387549 306.06865295 154.49254022 301.375 151.9375 C296.50628578 149.29041338 291.59862303 146.81332501 286.5625 144.5 C276.18030078 139.73097411 265.97900992 134.63742066 255.9375 129.1875 C248.60393225 125.21635072 241.08942868 121.64766261 233.55615234 118.07373047 C225.95572154 114.46706486 218.41765895 110.75402085 210.90917969 106.96044922 C208.89367554 105.94651145 206.87329461 104.94286453 204.8515625 103.94140625 C199.03190317 101.05537192 193.23437773 98.17008272 187.5625 95 C182.3395531 92.10271311 176.96035826 89.61099409 171.54370117 87.10375977 C166.73415973 84.86093811 162.03566846 82.47409386 157.375 79.9375 C151.90050763 76.96111899 146.35548032 74.24024453 140.69262695 71.64208984 C134.05601608 68.58964527 127.54088256 65.30784577 121.02050781 62.01611328 C119.0042086 61.0021165 116.98347722 59.99757871 114.9609375 58.99609375 C108.29770374 55.6931316 101.67788947 52.33000012 95.125 48.8125 C87.14414633 44.52866696 79.09379607 40.49500031 70.875 36.6875 C61.30867406 32.25357997 51.71124363 27.75303584 42.5625 22.5 C38.44186013 20.15319748 34.17424295 18.17963482 29.875 16.1875 C22.87250911 12.94231117 16.04794121 9.44971773 9.26953125 5.76171875 C6.20769044 4.11190966 3.11910425 2.53825323 0 1 C0 0.67 0 0.34 0 0 Z " fill="#000000" transform="translate(1,0)"/>
<path d="M0 0 C1.51738333 -0.00766852 1.51738333 -0.00766852 3.06542088 -0.01549195 C6.46550075 -0.02777238 9.86484143 -0.01147856 13.26489687 0.00460267 C15.73345062 0.00164448 18.20200278 -0.00306947 20.67055023 -0.00938332 C26.0598439 -0.01911331 31.44891899 -0.01635981 36.83818883 -0.00273874 C44.90596956 0.01757225 52.97362949 0.0147508 61.04142655 0.00739495 C74.79072772 -0.00447052 88.539961 0.00262507 102.28925371 0.01997209 C116.22484666 0.03747676 130.16040451 0.04626332 144.09600878 0.04436326 C145.41565512 0.04419111 145.41565512 0.04419111 146.76196099 0.04401548 C151.24778028 0.04338999 155.73359954 0.04262219 160.2194188 0.04180413 C192.69916849 0.03617214 225.17888694 0.04990439 257.65862703 0.07387376 C289.82766547 0.09755715 321.99669053 0.11297282 354.16573763 0.11728501 C355.16448987 0.11742266 356.16324211 0.11756031 357.19225957 0.11770213 C366.31421603 0.11895491 375.4361725 0.12010567 384.55812898 0.12113403 C407.23509932 0.12369173 429.91206934 0.1275291 452.58903933 0.13223481 C453.62174074 0.13244808 454.65444216 0.13266135 455.71843756 0.13288108 C505.96317963 0.14336918 556.20791286 0.16860025 606.45264864 0.19503617 C623.8904334 0.20420275 641.3282182 0.21330417 658.76600313 0.22213578 C660.38822524 0.22295748 660.38822524 0.22295748 662.04321952 0.22379577 C712.31111113 0.24916838 762.57900426 0.26407325 812.84690059 0.27627496 C816.11001201 0.27706722 819.37312342 0.27786399 822.63623484 0.27866168 C844.26090054 0.28394077 865.88556627 0.28903937 887.51023204 0.29401712 C930.53857896 0.30392333 973.56692558 0.31489007 1016.59527205 0.32658531 C1018.64443086 0.32714226 1020.69358967 0.32769848 1022.74274848 0.32825396 C1085.86508552 0.34536901 1148.98741951 0.36727074 1212.10975313 0.39419389 C1214.65607218 0.39527723 1217.20239123 0.39636053 1219.74871028 0.39744345 C1290.41923013 0.42764728 1361.0897477 0.46287247 1431.76026583 0.49679399 C1431.76026583 119.29679399 1431.76026583 238.09679399 1431.76026583 360.49679399 C719.95026583 360.49679399 8.14026583 360.49679399 -725.23973417 360.49679399 C-722.89528569 355.80789703 -721.63688317 355.34755997 -716.98973417 353.24679399 C-715.87082792 352.72601274 -714.75192167 352.20523149 -713.59910917 351.66866899 C-710.22582889 350.4919433 -707.77847309 350.26087806 -704.23973417 350.49679399 C-703.98715849 349.87893022 -703.73458281 349.26106645 -703.47435331 348.62447953 C-702.02864279 346.13300886 -701.08672537 345.60128909 -698.48582792 344.45382524 C-697.34029448 343.93332597 -697.34029448 343.93332597 -696.17161894 343.40231156 C-695.34847197 343.04161576 -694.52532499 342.68091996 -693.67723417 342.30929399 C-691.94395657 341.52093171 -690.2122133 340.72918845 -688.48192167 339.93429399 C-687.60503691 339.53210649 -686.72815214 339.12991899 -685.82469511 338.71554399 C-681.91551822 336.87245643 -678.10727122 334.8569531 -674.30223417 332.80929399 C-672.91689877 332.06695482 -671.53148414 331.32476347 -670.14598417 330.58273149 C-669.16371855 330.05631059 -669.16371855 330.05631059 -668.16160917 329.51925492 C-665.22500731 327.95694692 -662.26893346 326.43883434 -659.30223417 324.93429399 C-658.36508574 324.45862992 -657.4279373 323.98296586 -656.46239042 323.49288774 C-654.23973417 322.49679399 -654.23973417 322.49679399 -652.23973417 322.49679399 C-651.90973417 321.50679399 -651.57973417 320.51679399 -651.23973417 319.49679399 C-648.86082792 318.39132524 -648.86082792 318.39132524 -645.67723417 317.30929399 C-638.25769276 314.60391535 -631.35740843 311.17750899 -624.34080839 307.57150102 C-620.73716431 305.72822409 -617.11232045 303.92747168 -613.48973417 302.12179399 C-612.18234784 301.46833752 -610.87505 300.81470396 -609.56785917 300.16085649 C-608.46957792 299.61171586 -607.37129667 299.06257524 -606.23973417 298.49679399 C-605.49723417 298.09460649 -604.75473417 297.69241899 -603.98973417 297.27804399 C-601.40959281 296.12619516 -599.02168244 296.37034179 -596.23973417 296.49679399 C-595.99295927 295.88183061 -595.74618437 295.26686723 -595.49193144 294.63326859 C-593.9876026 292.066612 -592.89447237 291.51099038 -590.20457792 290.31320024 C-589.39440214 289.94259477 -588.58422636 289.5719893 -587.7494998 289.19015336 C-586.90065214 288.81696977 -586.05180449 288.44378617 -585.17723417 288.05929399 C-583.51826784 287.313735 -581.86070778 286.56503889 -580.20457792 285.81320024 C-579.38384794 285.44170854 -578.56311796 285.07021684 -577.71751738 284.68746781 C-574.44476274 283.11477845 -571.3258746 281.31727555 -568.20701933 279.46066117 C-565.49430723 278.13157363 -563.20131898 278.11710363 -560.23973417 278.49679399 C-560.02832792 277.90382524 -559.81692167 277.31085649 -559.59910917 276.69991899 C-557.7365392 273.6812711 -555.65180083 272.8042298 -552.48973417 271.24679399 C-551.46364042 270.72601274 -550.43754667 270.20523149 -549.38035917 269.66866899 C-546.09468691 268.44267187 -543.71401598 268.26794908 -540.23973417 268.49679399 C-540.05410917 267.89866899 -539.86848417 267.30054399 -539.67723417 266.68429399 C-537.93316783 264.03027999 -536.22202576 263.57264204 -533.35472441 262.4091475 C-528.41357582 260.27766046 -523.73310543 257.55163698 -519.00340605 254.99288774 C-518.19065214 254.55847367 -517.37789824 254.12405961 -516.54051542 253.67648149 C-515.81001982 253.28186723 -515.07952421 252.88725297 -514.32689238 252.4806807 C-512.23973417 251.49679399 -512.23973417 251.49679399 -510.03343534 251.04806352 C-509.44151396 250.86614457 -508.84959257 250.68422563 -508.23973417 250.49679399 C-507.90973417 249.50679399 -507.57973417 248.51679399 -507.23973417 247.49679399 C-504.64989042 246.25070024 -504.64989042 246.25070024 -501.30223417 245.05929399 C-500.12145292 244.62616899 -498.94067167 244.19304399 -497.72410917 243.74679399 C-495.99934355 243.12804399 -495.99934355 243.12804399 -494.23973417 242.49679399 C-487.8956182 240.17666014 -482.33952979 237.44853549 -476.60692167 233.86788774 C-474.48830805 232.64076994 -472.54882174 231.78040001 -470.23973417 230.99679399 C-466.20427035 229.61160501 -462.85174101 227.50082323 -459.23973417 225.25460649 C-453.09482593 221.65407431 -446.63359432 218.62649889 -440.23973417 215.49679399 C-439.57973417 215.16679399 -438.91973417 214.83679399 -438.23973417 214.49679399 C-436.24013405 214.45680198 -434.23926175 214.45332599 -432.23973417 214.49679399 C-432.23973417 213.83679399 -432.23973417 213.17679399 -432.23973417 212.49679399 C-428.23973417 211.16346065 -424.23973417 209.83012732 -420.23973417 208.49679399 C-420.23973417 207.83679399 -420.23973417 207.17679399 -420.23973417 206.49679399 C-418.91973417 206.49679399 -417.59973417 206.49679399 -416.23973417 206.49679399 C-415.86087065 205.56999833 -415.86087065 205.56999833 -415.47435331 204.62447953 C-414.02864279 202.13300886 -413.08672537 201.60128909 -410.48582792 200.45382524 C-409.72213896 200.10682572 -408.95844999 199.75982621 -408.17161894 199.40231156 C-406.93689848 198.86126786 -406.93689848 198.86126786 -405.67723417 198.30929399 C-403.94395657 197.52093171 -402.2122133 196.72918845 -400.48192167 195.93429399 C-399.60503691 195.53210649 -398.72815214 195.12991899 -397.82469511 194.71554399 C-393.91551822 192.87245643 -390.10727122 190.8569531 -386.30223417 188.80929399 C-384.91689877 188.06695482 -383.53148414 187.32476347 -382.14598417 186.58273149 C-381.16371855 186.05631059 -381.16371855 186.05631059 -380.16160917 185.51925492 C-377.22500731 183.95694692 -374.26893346 182.43883434 -371.30223417 180.93429399 C-370.36508574 180.45862992 -369.4279373 179.98296586 -368.46239042 179.49288774 C-366.23973417 178.49679399 -366.23973417 178.49679399 -364.23973417 178.49679399 C-363.90973417 177.50679399 -363.57973417 176.51679399 -363.23973417 175.49679399 C-360.86082792 174.39132524 -360.86082792 174.39132524 -357.67723417 173.30929399 C-350.25769276 170.60391535 -343.35740843 167.17750899 -336.34080839 163.57150102 C-332.73716431 161.72822409 -329.11232045 159.92747168 -325.48973417 158.12179399 C-324.18234784 157.46833752 -322.87505 156.81470396 -321.56785917 156.16085649 C-320.46957792 155.61171586 -319.37129667 155.06257524 -318.23973417 154.49679399 C-317.12598417 153.89351274 -317.12598417 153.89351274 -315.98973417 153.27804399 C-313.40959281 152.12619516 -311.02168244 152.37034179 -308.23973417 152.49679399 C-307.86957182 151.57434892 -307.86957182 151.57434892 -307.49193144 150.63326859 C-305.9876026 148.066612 -304.89447237 147.51099038 -302.20457792 146.31320024 C-301.39440214 145.94259477 -300.58422636 145.5719893 -299.7494998 145.19015336 C-298.90065214 144.81696977 -298.05180449 144.44378617 -297.17723417 144.05929399 C-295.51826784 143.313735 -293.86070778 142.56503889 -292.20457792 141.81320024 C-291.38384794 141.44170854 -290.56311796 141.07021684 -289.71751738 140.68746781 C-286.44476274 139.11477845 -283.3258746 137.31727555 -280.20701933 135.46066117 C-277.49430723 134.13157363 -275.20131898 134.11710363 -272.23973417 134.49679399 C-272.02832792 133.90382524 -271.81692167 133.31085649 -271.59910917 132.69991899 C-269.7365392 129.6812711 -267.65180083 128.8042298 -264.48973417 127.24679399 C-263.46364042 126.72601274 -262.43754667 126.20523149 -261.38035917 125.66866899 C-258.09468691 124.44267187 -255.71401598 124.26794908 -252.23973417 124.49679399 C-252.05410917 123.89866899 -251.86848417 123.30054399 -251.67723417 122.68429399 C-249.93316783 120.03027999 -248.22202576 119.57264204 -245.35472441 118.4091475 C-240.41357582 116.27766046 -235.73310543 113.55163698 -231.00340605 110.99288774 C-229.78427519 110.34126664 -229.78427519 110.34126664 -228.54051542 109.67648149 C-227.81001982 109.28186723 -227.07952421 108.88725297 -226.32689238 108.4806807 C-224.23973417 107.49679399 -224.23973417 107.49679399 -222.03343534 107.04806352 C-221.44151396 106.86614457 -220.84959257 106.68422563 -220.23973417 106.49679399 C-219.90973417 105.50679399 -219.57973417 104.51679399 -219.23973417 103.49679399 C-216.64989042 102.25070024 -216.64989042 102.25070024 -213.30223417 101.05929399 C-212.12145292 100.62616899 -210.94067167 100.19304399 -209.72410917 99.74679399 C-208.57426542 99.33429399 -207.42442167 98.92179399 -206.23973417 98.49679399 C-199.8956182 96.17666014 -194.33952979 93.44853549 -188.60692167 89.86788774 C-186.48830805 88.64076994 -184.54882174 87.78040001 -182.23973417 86.99679399 C-178.20427035 85.61160501 -174.85174101 83.50082323 -171.23973417 81.25460649 C-165.09482593 77.65407431 -158.63359432 74.62649889 -152.23973417 71.49679399 C-151.57973417 71.16679399 -150.91973417 70.83679399 -150.23973417 70.49679399 C-148.24013405 70.45680198 -146.23926175 70.45332599 -144.23973417 70.49679399 C-144.23973417 69.83679399 -144.23973417 69.17679399 -144.23973417 68.49679399 C-140.23973417 67.16346065 -136.23973417 65.83012732 -132.23973417 64.49679399 C-132.23973417 63.83679399 -132.23973417 63.17679399 -132.23973417 62.49679399 C-130.91973417 62.49679399 -129.59973417 62.49679399 -128.23973417 62.49679399 C-127.98715849 61.87893022 -127.73458281 61.26106645 -127.47435331 60.62447953 C-126.02864279 58.13300886 -125.08672537 57.60128909 -122.48582792 56.45382524 C-121.72213896 56.10682572 -120.95844999 55.75982621 -120.17161894 55.40231156 C-119.34847197 55.04161576 -118.52532499 54.68091996 -117.67723417 54.30929399 C-115.94395657 53.52093171 -114.2122133 52.72918845 -112.48192167 51.93429399 C-111.60503691 51.53210649 -110.72815214 51.12991899 -109.82469511 50.71554399 C-105.91551822 48.87245643 -102.10727122 46.8569531 -98.30223417 44.80929399 C-96.91689877 44.06695482 -95.53148414 43.32476347 -94.14598417 42.58273149 C-93.49114042 42.23178422 -92.83629667 41.88083695 -92.16160917 41.51925492 C-89.22500731 39.95694692 -86.26893346 38.43883434 -83.30223417 36.93429399 C-81.89651152 36.22079789 -81.89651152 36.22079789 -80.46239042 35.49288774 C-78.23973417 34.49679399 -78.23973417 34.49679399 -76.23973417 34.49679399 C-75.90973417 33.50679399 -75.57973417 32.51679399 -75.23973417 31.49679399 C-72.86082792 30.39132524 -72.86082792 30.39132524 -69.67723417 29.30929399 C-62.25769276 26.60391535 -55.35740843 23.17750899 -48.34080839 19.57150102 C-44.73716431 17.72822409 -41.11232045 15.92747168 -37.48973417 14.12179399 C-36.18234784 13.46833752 -34.87505 12.81470396 -33.56785917 12.16085649 C-31.9204373 11.33714555 -31.9204373 11.33714555 -30.23973417 10.49679399 C-29.49723417 10.09460649 -28.75473417 9.69241899 -27.98973417 9.27804399 C-25.40959281 8.12619516 -23.02168244 8.37034179 -20.23973417 8.49679399 C-19.98161264 7.88255984 -19.72349111 7.26832569 -19.45754771 6.63547838 C-15.59586523 -0.14628238 -6.90639495 -0.07448018 0 0 Z " fill="#007A39" transform="translate(728.239734172821,719.5032060146332)"/>
<path d="M0 0 C474.87 0 949.74 0 1439 0 C1439 118.8 1439 237.6 1439 360 C964.13 360 489.26 360 0 360 C4.36465293 356.50827766 8.14491857 354.18399998 13.0625 351.75 C14.12307617 351.20472656 14.12307617 351.20472656 15.20507812 350.6484375 C16.2347168 350.13410156 16.2347168 350.13410156 17.28515625 349.609375 C17.90269775 349.29967773 18.52023926 348.98998047 19.15649414 348.67089844 C21 348 21 348 25 348 C25 347.34 25 346.68 25 346 C27.60346797 344.85255669 30.20773205 343.70698532 32.8125 342.5625 C33.91948242 342.07426758 33.91948242 342.07426758 35.04882812 341.57617188 C35.76103516 341.26357422 36.47324219 340.95097656 37.20703125 340.62890625 C37.8616333 340.34088135 38.51623535 340.05285645 39.19067383 339.75610352 C40.76534587 339.09806016 42.38094108 338.53968631 44 338 C44.40863281 337.56042969 44.81726563 337.12085938 45.23828125 336.66796875 C47.8451375 334.19983655 50.98438793 332.85432923 54.1875 331.3125 C55.6407393 330.60049365 57.09386111 329.88824748 58.546875 329.17578125 C59.28873047 328.81436035 60.03058594 328.45293945 60.79492188 328.08056641 C63.53344019 326.73859541 66.25511419 325.36469994 68.97705078 323.98950195 C75.04234754 320.92815105 81.14847038 317.98202416 87.3125 315.125 C94.32153129 311.86844156 101.15943986 308.33938932 107.98364258 304.71362305 C119.40949796 298.64491115 130.99929392 292.98314529 142.71606445 287.50024414 C148.46461771 284.78653676 154.08538605 281.87784252 159.6875 278.875 C165.72117433 275.64722139 171.79259876 272.6189299 178.0625 269.875 C178.73563232 269.57964355 179.40876465 269.28428711 180.10229492 268.97998047 C184.72969894 267 184.72969894 267 187 267 C187 266.34 187 265.68 187 265 C189.24525946 263.82333996 191.49544142 262.6585926 193.75 261.5 C194.38421875 261.16613281 195.0184375 260.83226562 195.671875 260.48828125 C199.12010993 258.72824467 201.04840069 258 205 258 C205 257.34 205 256.68 205 256 C206.05316406 255.5153125 207.10632813 255.030625 208.19140625 254.53125 C216.33717117 250.75339378 224.36816136 246.88296961 232.17602539 242.43945312 C235.50050991 240.59514582 237.08135286 240 241 240 C241 239.34 241 238.68 241 238 C243.60346797 236.85255669 246.20773205 235.70698532 248.8125 234.5625 C249.55048828 234.23701172 250.28847656 233.91152344 251.04882812 233.57617188 C251.76103516 233.26357422 252.47324219 232.95097656 253.20703125 232.62890625 C253.8616333 232.34088135 254.51623535 232.05285645 255.19067383 231.75610352 C256.76534587 231.09806016 258.38094108 230.53968631 260 230 C260.45503906 229.53980469 260.91007812 229.07960938 261.37890625 228.60546875 C263.37755213 226.62608693 265.42582951 225.57022372 267.9375 224.3125 C268.79214844 223.87550781 269.64679688 223.43851563 270.52734375 222.98828125 C273 222 273 222 277 222 C277 221.34 277 220.68 277 220 C277.969375 219.5153125 278.93875 219.030625 279.9375 218.53125 C280.5778418 218.21091797 281.21818359 217.89058594 281.87792969 217.56054688 C283.30514495 216.84726764 284.73288908 216.13504575 286.16113281 215.42382812 C289.94849934 213.53595116 293.72543688 211.63143634 297.484375 209.6875 C298.19980469 209.32076172 298.91523437 208.95402344 299.65234375 208.57617188 C301.02806554 207.87037792 302.40060471 207.15833815 303.76953125 206.43945312 C307.19294635 204.69259757 309.06815638 204 313 204 C313 203.34 313 202.68 313 202 C321.97107676 197.46012805 330.98060276 193.03943305 340.10180664 188.80859375 C344.64586247 186.68495509 349.04150481 184.41311262 353.3359375 181.8125 C355 181 355 181 358 181 C358 180.34 358 179.68 358 179 C356.95972656 178.85691406 356.95972656 178.85691406 355.8984375 178.7109375 C352.40309397 177.85358909 349.76681935 176.3864319 346.625 174.625 C340.0469575 171.00887299 333.34569511 167.7132096 326.5625 164.5 C317.3138588 160.11571178 308.13344773 155.61881577 299 151 C297.66709622 150.33247492 296.33399471 149.66534227 295 149 C295 148.34 295 147.68 295 147 C294.45472656 146.82984375 293.90945313 146.6596875 293.34765625 146.484375 C287.71615022 144.67459186 282.36060431 142.49654622 277 140 C277 139.34 277 138.68 277 138 C276.43152344 137.81824219 275.86304688 137.63648438 275.27734375 137.44921875 C270.39298997 135.85915366 265.68970973 134.09540222 261 132 C261 131.34 261 130.68 261 130 C259.845 129.67 258.69 129.34 257.5 129 C252.12786848 127.21773624 247.21125667 124.69891645 242.18359375 122.1328125 C235.86691787 118.90904759 229.4627598 115.92152155 223 113 C223 112.34 223 111.68 223 111 C222.45472656 110.82984375 221.90945313 110.6596875 221.34765625 110.484375 C215.71615022 108.67459186 210.36060431 106.49654622 205 104 C205 103.34 205 102.68 205 102 C204.43152344 101.81824219 203.86304688 101.63648438 203.27734375 101.44921875 C198.39298997 99.85915366 193.68970973 98.09540222 189 96 C189 95.34 189 94.68 189 94 C187.845 93.67 186.69 93.34 185.5 93 C179.35410691 90.96429409 173.72713786 87.94288877 167.9765625 85.0078125 C163.06022275 82.50352977 158.04825588 80.22465513 153 78 C153 77.34 153 76.68 153 76 C151.845 75.67 150.69 75.34 149.5 75 C142.71555787 72.73851929 136.4536515 69.33740911 130.10839844 66.08056641 C126.76880494 64.3690054 123.41720544 62.68171163 120.0625 61 C119.07721313 60.50560425 119.07721313 60.50560425 118.07202148 60.0012207 C113.248507 57.59327999 108.38490589 55.28043931 103.5 53 C95.92648173 49.46442548 88.4448782 45.76635705 80.98388672 42 C77.66024982 40.32468413 74.32978111 38.66306033 71 37 C69.68486323 36.34251313 68.36975917 35.68496083 67.0546875 35.02734375 C66.39694336 34.69847168 65.73919922 34.36959961 65.06152344 34.03076172 C58.37434896 30.68717448 51.68717448 27.34358724 45 24 C45 23.34 45 22.68 45 22 C43.845 21.67 42.69 21.34 41.5 21 C36.23746886 19.24856386 31.38102276 16.78797775 26.45825195 14.2668457 C20.54624424 11.24297881 14.55264813 8.4250081 8.49609375 5.70239258 C4.99019042 4.09119917 2.77001675 2.77001675 0 0 Z " fill="#FEFEFE" transform="translate(721,360)"/>
<path d="M0 0 C4.38957497 4.56438105 5.87784722 9.727317 7.75 15.625 C8.06582031 16.57890625 8.38164062 17.5328125 8.70703125 18.515625 C11 25.56327787 11 25.56327787 11 29 C12.485 29.495 12.485 29.495 14 30 C14.94921875 31.9609375 14.94921875 31.9609375 15.6875 34.375 C15.93886719 35.16648437 16.19023437 35.95796875 16.44921875 36.7734375 C17 39 17 39 17 42 C17.71953857 41.77860352 18.43907715 41.55720703 19.18041992 41.32910156 C36.04296875 36.140625 36.04296875 36.140625 39.50537109 35.08007812 C41.88172123 34.34562423 44.2543567 33.59906561 46.62353516 32.84179688 C47.77515137 32.47634766 48.92676758 32.11089844 50.11328125 31.734375 C51.14880127 31.40147461 52.18432129 31.06857422 53.2512207 30.72558594 C56 30 56 30 60 30 C58.31338027 34.54089927 55.99607926 38.40627318 53.4375 42.5 C52.03242942 44.94360101 50.98016869 47.36108429 50 50 C49.34 50 48.68 50 48 50 C47.690625 51.175625 47.690625 51.175625 47.375 52.375 C45.79719221 56.53467509 43.63907801 59.99751248 41.2421875 63.73046875 C39.75993949 66.00739475 39.75993949 66.00739475 40 69 C41.88317359 70.68650305 41.88317359 70.68650305 44.375 72.25 C45.29667969 72.86746094 46.21835937 73.48492188 47.16796875 74.12109375 C48.10253906 74.74113281 49.03710938 75.36117187 50 76 C51.56558359 77.09979012 53.12813543 78.20390972 54.6875 79.3125 C57.74426512 81.46446264 60.83280647 83.55366323 63.96484375 85.59375 C64.99508667 86.26796997 64.99508667 86.26796997 66.04614258 86.95581055 C67.41835872 87.85133669 68.79444646 88.74096168 70.17456055 89.62426758 C71.81773961 90.69820625 73.41400445 91.84328058 75 93 C75 93.66 75 94.32 75 95 C74.08186523 95.11593506 73.16373047 95.23187012 72.21777344 95.35131836 C68.80329817 95.78363708 65.38911217 96.21811633 61.97509766 96.65405273 C60.4989705 96.84209132 59.02273409 97.02927442 57.54638672 97.21557617 C55.42125443 97.48390096 53.29653727 97.7553254 51.171875 98.02734375 C49.8940918 98.18968506 48.61630859 98.35202637 47.29980469 98.51928711 C44.17152915 98.91412057 44.17152915 98.91412057 41.84863281 99.55688477 C39.60263342 100.09524833 37.55622807 100.09641512 35.25 100.0625 C34.45078125 100.05347656 33.6515625 100.04445313 32.828125 100.03515625 C32.22484375 100.02355469 31.6215625 100.01195312 31 100 C31.06058594 100.87624023 31.12117188 101.75248047 31.18359375 102.65527344 C31.41047533 105.96512658 31.63365795 109.27518913 31.85449219 112.58544922 C31.9500597 114.00709607 32.04702109 115.42865005 32.14550781 116.85009766 C32.74891106 125.57481597 33.14980543 134.24886621 33 143 C28.77675862 142.14305373 26.83122655 140.29099611 23.6875 137.3125 C22.92276367 136.5994873 22.92276367 136.5994873 22.14257812 135.87207031 C19.0633491 132.99382091 16.03681727 130.06405879 13.01953125 127.12109375 C12.35155518 126.47809326 11.6835791 125.83509277 10.99536133 125.17260742 C9.67854162 123.90380096 8.37207601 122.62414863 7.0769043 121.33325195 C6.47402588 120.75406006 5.87114746 120.17486816 5.25 119.578125 C4.71890625 119.05637695 4.1878125 118.53462891 3.640625 117.99707031 C2.02572058 116.79154332 2.02572058 116.79154332 -0.04638672 117.19604492 C-3.09512374 118.45066764 -4.88280739 120.68309859 -7.125 123.0625 C-8.7138359 124.74327151 -10.33146296 126.39832072 -12 128 C-12.66 128 -13.32 128 -14 128 C-14 128.66 -14 129.32 -14 130 C-15.43359375 131.4453125 -15.43359375 131.4453125 -17.4375 133.125 C-21.43021211 136.51167545 -25.33097626 139.98529072 -29.21484375 143.49609375 C-31 145 -31 145 -32 145 C-31.33333333 130.33333333 -30.66666667 115.66666667 -30 101 C-31.98 101 -33.96 101 -36 101 C-36 100.34 -36 99.68 -36 99 C-36.89976562 98.96261719 -37.79953125 98.92523437 -38.7265625 98.88671875 C-50.58858667 98.28054317 -62.25366301 96.72654262 -74 95 C-74 94.34 -74 93.68 -74 93 C-72.25963506 91.69921177 -70.45418109 90.48511105 -68.625 89.3125 C-64.7307288 86.78008505 -60.85904108 84.23946801 -57.0625 81.5625 C-56.26972656 81.005625 -55.47695313 80.44875 -54.66015625 79.875 C-53.21757632 78.85820357 -51.77540264 77.84082511 -50.33544922 76.8203125 C-48.55993063 75.56344636 -46.78021647 74.31270027 -45 73.0625 C-44.43547119 72.66039307 -43.87094238 72.25828613 -43.28930664 71.84399414 C-39.22672324 69 -39.22672324 69 -37 69 C-38.26908762 66.72817648 -39.53999203 64.45740779 -40.8125 62.1875 C-41.40514648 61.12934082 -41.40514648 61.12934082 -42.00976562 60.04980469 C-44.30809974 55.96090795 -46.63817878 51.8934111 -49.01171875 47.84765625 C-49.50889404 46.99856689 -50.00606934 46.14947754 -50.51831055 45.2746582 C-51.49342298 43.61315917 -52.47264788 41.95406572 -53.45629883 40.29760742 C-53.90384521 39.53424072 -54.3513916 38.77087402 -54.8125 37.984375 C-55.21082031 37.31116211 -55.60914063 36.63794922 -56.01953125 35.94433594 C-57.01405703 33.97212395 -57.55256163 32.15660481 -58 30 C-48.18877881 31.76923661 -38.62002647 34.41227214 -29 37 C-29 37.66 -29 38.32 -29 39 C-27.96939453 39.19916016 -27.96939453 39.19916016 -26.91796875 39.40234375 C-26.01691406 39.57894531 -25.11585938 39.75554687 -24.1875 39.9375 C-23.29417969 40.11152344 -22.40085937 40.28554688 -21.48046875 40.46484375 C-19 41 -19 41 -16 42 C-15.731875 41.175 -15.46375 40.35 -15.1875 39.5 C-14.369705 37.08965685 -13.50751095 34.69407397 -12.609375 32.3125 C-11.54268702 29.48188704 -10.5178292 26.64210426 -9.53515625 23.78125 C-9.29216797 23.07613281 -9.04917969 22.37101562 -8.79882812 21.64453125 C-8.30835319 20.21603925 -7.82136526 18.78634517 -7.33789062 17.35546875 C-5.81617739 12.96297726 -4.03023939 8.8592174 -1.86499023 4.74414062 C-0.86844048 2.8356557 -0.86844048 2.8356557 0 0 Z " fill="#FEFAFB" transform="translate(333,463)"/>
<path d="M0 0 C1.51930046 -0.00958565 1.51930046 -0.00958565 3.06929386 -0.01936494 C6.46784395 -0.03469472 9.86523463 -0.01436286 13.2637462 0.00575334 C15.73346693 0.00205496 18.20318517 -0.00383817 20.67289606 -0.01172915 C26.06168153 -0.02388501 31.45012534 -0.02045887 36.83887351 -0.00342343 C44.9058293 0.0219787 52.97259647 0.01843548 61.03957781 0.00924369 C74.78784522 -0.00558383 88.53600651 0.00327614 102.28426069 0.02496511 C116.2178255 0.04684964 130.15133545 0.05782873 144.08491796 0.05545408 C145.40460734 0.05523888 145.40460734 0.05523888 146.75095712 0.05501935 C151.2369607 0.05423748 155.72296423 0.05327773 160.20896777 0.05225516 C192.68605265 0.04521606 225.1630887 0.06237742 257.64015859 0.0923422 C289.80558031 0.12194856 321.97098112 0.14121645 354.13641638 0.14660627 C355.13513421 0.14677833 356.13385204 0.14695039 357.16283404 0.14712766 C366.2845045 0.14869364 375.40617498 0.1501321 384.52784548 0.15141753 C407.20389087 0.15461462 429.87993577 0.15941131 452.55598062 0.16529351 C453.58862872 0.1655601 454.62127682 0.16582669 455.68521729 0.16610136 C505.9247826 0.17921081 556.16433411 0.21074937 606.4038896 0.24379522 C623.83941602 0.25525346 641.27494249 0.26663025 658.71046919 0.27766973 C660.33248588 0.27869685 660.33248588 0.27869685 661.98727058 0.27974472 C712.25078775 0.31146171 762.51430729 0.33009197 812.77783185 0.3453437 C816.04074437 0.34633402 819.3036569 0.34732999 822.56656942 0.3483271 C844.18995548 0.35492597 865.81334159 0.36129922 887.43672776 0.3675214 C930.4623608 0.37990409 973.48799339 0.39361251 1016.51362573 0.40823163 C1018.56264548 0.40892783 1020.61166524 0.4096231 1022.66068499 0.41031745 C1114.90972877 0.44158518 1207.15876242 0.48827562 1299.40779585 0.54164678 C1300.27162938 0.54214646 1301.13546291 0.54264613 1302.02547322 0.54316095 C1345.22900516 0.56816355 1388.43253655 0.59404614 1431.63606733 0.62099248 C1431.63606733 0.95099248 1431.63606733 1.28099248 1431.63606733 1.62099248 C1430.38705968 1.62123668 1429.13805203 1.62148089 1427.85119566 1.62173249 C1385.08734737 1.63012401 1342.32349928 1.63940362 1299.55965132 1.64931279 C1298.69817586 1.64951234 1297.8367004 1.64971188 1296.94911963 1.64991746 C1204.65841007 1.67131908 1112.36770443 1.69856014 1020.07700056 1.73763067 C1018.02744939 1.73849684 1015.97789821 1.73936301 1013.92834704 1.74022918 C970.90965538 1.75842725 927.89096412 1.77744763 884.87227325 1.79741818 C863.2632145 1.80744887 841.65415568 1.81732151 820.04509678 1.82704473 C816.78541037 1.82851237 813.52572397 1.82998453 810.26603756 1.83145688 C760.05936468 1.85409463 709.85269332 1.87333861 659.64601606 1.88277227 C658.02624386 1.88307671 658.02624386 1.88307671 656.37374898 1.88338731 C638.96291404 1.88663922 621.55207905 1.88960682 604.14124405 1.89253671 C554.00508831 1.90097793 503.86893698 1.91151427 453.73278612 1.93597585 C452.70221641 1.93647764 451.67164669 1.93697944 450.6098476 1.93749644 C427.98871292 1.94854864 405.36757896 1.96068248 382.74644541 1.97384107 C373.64506297 1.97911623 364.54368044 1.98423562 355.44229788 1.9893015 C353.9481191 1.99013881 353.9481191 1.99013881 352.42375489 1.99099303 C320.30554531 2.00891383 288.18734898 2.01414423 256.06913489 2.01274622 C223.72670428 2.01139637 191.3843037 2.02243539 159.04188472 2.05079483 C154.57655649 2.05470713 150.11122814 2.05847675 145.64589971 2.06216031 C144.33285627 2.06325121 144.33285627 2.06325121 142.99328671 2.06436415 C129.11004645 2.07552842 115.22684206 2.07322304 101.34360092 2.06535063 C87.70528525 2.05789215 74.06703824 2.06457401 60.42873744 2.08648478 C52.42438656 2.09891289 44.42021417 2.10030372 36.41586605 2.08564095 C30.48577878 2.07598761 24.55585055 2.08699542 18.62578257 2.10629318 C16.23245943 2.11082459 13.83911207 2.10855955 11.44580408 2.09891324 C8.20978105 2.08683165 4.97474943 2.09916209 1.73877895 2.11778647 C0.80701637 2.10841021 -0.12474622 2.09903396 -1.08474403 2.08937357 C-5.44682523 2.13985905 -8.48569415 2.40169995 -12.24535215 4.71494286 C-15.36393267 6.62099248 -15.36393267 6.62099248 -17.55884395 6.24012058 C-18.15452323 6.03580831 -18.75020251 5.83149604 -19.36393267 5.62099248 C-12.81802966 1.24757972 -7.81234802 -0.10559744 0 0 Z " fill="#207849" transform="translate(728.3639326691628,719.3790075182915)"/>
<path d="M0 0 C0 0.33 0 0.66 0 1 C-1.14339844 1.20496094 -2.28679687 1.40992188 -3.46484375 1.62109375 C-4.95576676 1.8930231 -6.44665016 2.16516974 -7.9375 2.4375 C-9.06961914 2.63956055 -9.06961914 2.63956055 -10.22460938 2.84570312 C-13.91953174 3.24272034 -13.91953174 3.24272034 -17 5 C-18.51928038 5.07179964 -20.04167482 5.08392007 -21.5625 5.0625 C-22.38878906 5.05347656 -23.21507812 5.04445313 -24.06640625 5.03515625 C-24.70449219 5.02355469 -25.34257812 5.01195312 -26 5 C-25.83701416 5.81098145 -25.67402832 6.62196289 -25.50610352 7.45751953 C-24.91822309 11.57239891 -24.87483365 15.53094935 -24.90234375 19.6796875 C-24.9037587 20.49245148 -24.90517365 21.30521545 -24.90663147 22.14260864 C-24.91219665 24.72011101 -24.9247426 27.2975242 -24.9375 29.875 C-24.9425195 31.63020707 -24.94708162 33.38541552 -24.95117188 35.140625 C-24.96215466 39.42711732 -24.97939508 43.71354357 -25 48 C-25.99 47.67 -26.98 47.34 -28 47 C-27.01 46.505 -27.01 46.505 -26 46 C-26.06058594 45.30140869 -26.12117188 44.60281738 -26.18359375 43.88305664 C-27.34959975 30.23069601 -28.34359723 16.70571172 -28 3 C-24.83486722 2.48996146 -21.66769716 1.99384043 -18.5 1.5 C-17.613125 1.35691406 -16.72625 1.21382812 -15.8125 1.06640625 C-10.46923901 0.24134389 -5.40603486 -0.15157107 0 0 Z " fill="#D85C6C" transform="translate(392,560)"/>
<path d="M0 0 C2.35441716 0.14241648 4.70847484 0.28884808 7.0625 0.4375 C9.02896484 0.55931641 9.02896484 0.55931641 11.03515625 0.68359375 C14.73663238 0.97898249 18.33370448 1.43265388 22 2 C22 2.66 22 3.32 22 4 C23.98 4 25.96 4 28 4 C28.13965571 18.70037524 27.80667342 33.32111832 27 48 C26.01 48.495 26.01 48.495 25 49 C24.87462509 40.71132536 25.05109217 32.46630603 25.4375 24.1875 C25.47673584 23.31714111 25.51597168 22.44678223 25.55639648 21.55004883 C25.83115272 15.99955093 26.33609905 10.5176306 27 5 C26.34805664 5.0191748 25.69611328 5.03834961 25.02441406 5.05810547 C18.49054505 5.25027809 18.49054505 5.25027809 16.0859375 4.0234375 C12.5039829 2.2659991 8.61124516 2.53600221 4.6796875 2.34375 C2 2 2 2 0 0 Z " fill="#D35464" transform="translate(275,560)"/>
<path d="M0 0 C0 0.66 0 1.32 0 2 C-4.31771422 4.32401558 -8.6426648 6.63349333 -12.97705078 8.92626953 C-14.26147831 9.6080113 -15.54395191 10.29345732 -16.82373047 10.98388672 C-18.43896144 11.85469482 -20.06300943 12.70909024 -21.6875 13.5625 C-22.61949219 14.05878906 -23.55148438 14.55507813 -24.51171875 15.06640625 C-27.31069326 16.11657094 -28.23068527 15.83830877 -31 15 C-2.86666667 0 -2.86666667 0 0 0 Z " fill="#455531" transform="translate(164,998)"/>
<path d="M0 0 C0 0.66 0 1.32 0 2 C-4.31771422 4.32401558 -8.6426648 6.63349333 -12.97705078 8.92626953 C-14.26147831 9.6080113 -15.54395191 10.29345732 -16.82373047 10.98388672 C-18.43896144 11.85469482 -20.06300943 12.70909024 -21.6875 13.5625 C-22.61949219 14.05878906 -23.55148437 14.55507813 -24.51171875 15.06640625 C-27.31069326 16.11657094 -28.23068527 15.83830877 -31 15 C-2.86666667 0 -2.86666667 0 0 0 Z " fill="#455531" transform="translate(452,854)"/>
<path d="M0 0 C0 0.66 0 1.32 0 2 C-6.27193661 6.52624758 -12.20152066 9.85002924 -20 10 C-18.10060262 8.10060262 -16.73748786 7.24004931 -14.375 6.0546875 C-13.66859375 5.70019531 -12.9621875 5.34570312 -12.234375 4.98046875 C-11.49703125 4.61566406 -10.7596875 4.25085937 -10 3.875 C-9.26265625 3.50246094 -8.5253125 3.12992188 -7.765625 2.74609375 C-2.2533196 0 -2.2533196 0 0 0 Z " fill="#475331" transform="translate(112,1024)"/>
<path d="M0 0 C0 0.66 0 1.32 0 2 C-4.44316138 5.49682571 -9.67642892 8.1572254 -15 10 C-17.203125 9.5703125 -17.203125 9.5703125 -19 9 C-16.2118978 7.4933028 -13.41896042 5.99580196 -10.625 4.5 C-9.8309375 4.07074219 -9.036875 3.64148438 -8.21875 3.19921875 C-7.45820313 2.79316406 -6.69765625 2.38710938 -5.9140625 1.96875 C-4.8614624 1.40317383 -4.8614624 1.40317383 -3.78759766 0.82617188 C-2 0 -2 0 0 0 Z " fill="#425632" transform="translate(216,972)"/>
<path d="M0 0 C0 0.66 0 1.32 0 2 C-6.27193661 6.52624758 -12.20152066 9.85002924 -20 10 C-18.10060262 8.10060262 -16.73748786 7.24004931 -14.375 6.0546875 C-13.66859375 5.70019531 -12.9621875 5.34570312 -12.234375 4.98046875 C-11.49703125 4.61566406 -10.7596875 4.25085938 -10 3.875 C-9.26265625 3.50246094 -8.5253125 3.12992188 -7.765625 2.74609375 C-2.2533196 0 -2.2533196 0 0 0 Z " fill="#475331" transform="translate(400,880)"/>
<path d="M0 0 C0 0.66 0 1.32 0 2 C-4.44316138 5.49682571 -9.67642892 8.1572254 -15 10 C-17.203125 9.5703125 -17.203125 9.5703125 -19 9 C-16.2118978 7.4933028 -13.41896042 5.99580196 -10.625 4.5 C-9.8309375 4.07074219 -9.036875 3.64148438 -8.21875 3.19921875 C-7.45820313 2.79316406 -6.69765625 2.38710938 -5.9140625 1.96875 C-4.8614624 1.40317383 -4.8614624 1.40317383 -3.78759766 0.82617188 C-2 0 -2 0 0 0 Z " fill="#425632" transform="translate(504,828)"/>
<path d="M0 0 C0 0.66 0 1.32 0 2 C-6.27193661 6.52624758 -12.20152066 9.85002924 -20 10 C-18.10060262 8.10060262 -16.73748786 7.24004931 -14.375 6.0546875 C-13.66859375 5.70019531 -12.9621875 5.34570312 -12.234375 4.98046875 C-11.49703125 4.61566406 -10.7596875 4.25085938 -10 3.875 C-9.26265625 3.50246094 -8.5253125 3.12992188 -7.765625 2.74609375 C-2.2533196 0 -2.2533196 0 0 0 Z " fill="#475331" transform="translate(688,736)"/>
<path d="M0 0 C0 0.66 0 1.32 0 2 C-7.28571429 6.57142857 -7.28571429 6.57142857 -12 6 C-12 6.66 -12 7.32 -12 8 C-13.32 8 -14.64 8 -16 8 C-15.67 7.01 -15.34 6.02 -15 5 C-12.12890625 3.61328125 -12.12890625 3.61328125 -8.5625 2.3125 C-6.80099609 1.65701172 -6.80099609 1.65701172 -5.00390625 0.98828125 C-2 0 -2 0 0 0 Z " fill="#4D5030" transform="translate(92,1034)"/>
<path d="M0 0 C0 0.66 0 1.32 0 2 C-7.28571429 6.57142857 -7.28571429 6.57142857 -12 6 C-12 6.66 -12 7.32 -12 8 C-13.32 8 -14.64 8 -16 8 C-15.67 7.01 -15.34 6.02 -15 5 C-12.12890625 3.61328125 -12.12890625 3.61328125 -8.5625 2.3125 C-6.80099609 1.65701172 -6.80099609 1.65701172 -5.00390625 0.98828125 C-2 0 -2 0 0 0 Z " fill="#4D5030" transform="translate(236,962)"/>
<path d="M0 0 C0 0.66 0 1.32 0 2 C-7.28571429 6.57142857 -7.28571429 6.57142857 -12 6 C-12 6.66 -12 7.32 -12 8 C-13.32 8 -14.64 8 -16 8 C-15.67 7.01 -15.34 6.02 -15 5 C-12.12890625 3.61328125 -12.12890625 3.61328125 -8.5625 2.3125 C-6.80099609 1.65701172 -6.80099609 1.65701172 -5.00390625 0.98828125 C-2 0 -2 0 0 0 Z " fill="#4D5030" transform="translate(308,926)"/>
<path d="M0 0 C0 0.66 0 1.32 0 2 C-7.28571429 6.57142857 -7.28571429 6.57142857 -12 6 C-12 6.66 -12 7.32 -12 8 C-13.32 8 -14.64 8 -16 8 C-15.67 7.01 -15.34 6.02 -15 5 C-12.12890625 3.61328125 -12.12890625 3.61328125 -8.5625 2.3125 C-6.80099609 1.65701172 -6.80099609 1.65701172 -5.00390625 0.98828125 C-2 0 -2 0 0 0 Z " fill="#4D5030" transform="translate(380,890)"/>
<path d="M0 0 C0 0.66 0 1.32 0 2 C-7.28571429 6.57142857 -7.28571429 6.57142857 -12 6 C-12 6.66 -12 7.32 -12 8 C-13.32 8 -14.64 8 -16 8 C-15.67 7.01 -15.34 6.02 -15 5 C-12.12890625 3.61328125 -12.12890625 3.61328125 -8.5625 2.3125 C-6.80099609 1.65701172 -6.80099609 1.65701172 -5.00390625 0.98828125 C-2 0 -2 0 0 0 Z " fill="#4D5030" transform="translate(524,818)"/>
<path d="M0 0 C0 0.66 0 1.32 0 2 C-7.28571429 6.57142857 -7.28571429 6.57142857 -12 6 C-12 6.66 -12 7.32 -12 8 C-13.32 8 -14.64 8 -16 8 C-15.67 7.01 -15.34 6.02 -15 5 C-12.12890625 3.61328125 -12.12890625 3.61328125 -8.5625 2.3125 C-6.80099609 1.65701172 -6.80099609 1.65701172 -5.00390625 0.98828125 C-2 0 -2 0 0 0 Z " fill="#4D5030" transform="translate(596,782)"/>
<path d="M0 0 C0 0.66 0 1.32 0 2 C-7.28571429 6.57142857 -7.28571429 6.57142857 -12 6 C-12 6.66 -12 7.32 -12 8 C-13.32 8 -14.64 8 -16 8 C-15.67 7.01 -15.34 6.02 -15 5 C-12.12890625 3.61328125 -12.12890625 3.61328125 -8.5625 2.3125 C-6.80099609 1.65701172 -6.80099609 1.65701172 -5.00390625 0.98828125 C-2 0 -2 0 0 0 Z " fill="#4D5030" transform="translate(668,746)"/>
<path d="M0 0 C0 0.66 0 1.32 0 2 C-4.93286751 6.21130444 -9.62826995 7.65865732 -16 8 C-13.5615972 5.5615972 -11.0864312 4.41079629 -8 2.875 C-6.9275 2.33617187 -5.855 1.79734375 -4.75 1.2421875 C-2 0 -2 0 0 0 Z " fill="#425632" transform="translate(72,1044)"/>
<path d="M0 0 C0 0.66 0 1.32 0 2 C-4.93286751 6.21130444 -9.62826995 7.65865732 -16 8 C-13.5615972 5.5615972 -11.0864312 4.41079629 -8 2.875 C-6.9275 2.33617187 -5.855 1.79734375 -4.75 1.2421875 C-2 0 -2 0 0 0 Z " fill="#425632" transform="translate(360,900)"/>
<path d="M0 0 C0 0.66 0 1.32 0 2 C-4.93286751 6.21130444 -9.62826995 7.65865732 -16 8 C-13.5615972 5.5615972 -11.0864312 4.41079629 -8 2.875 C-6.9275 2.33617187 -5.855 1.79734375 -4.75 1.2421875 C-2 0 -2 0 0 0 Z " fill="#425632" transform="translate(648,756)"/>
<path d="M0 0 C0 0.66 0 1.32 0 2 C-1.90881434 3.03544174 -3.82739204 4.05290085 -5.75 5.0625 C-6.81734375 5.63097656 -7.8846875 6.19945312 -8.984375 6.78515625 C-12.02593537 8.01044806 -13.04893565 8.25348607 -16 7 C-13.71070947 5.82845707 -11.41881638 4.66261926 -9.125 3.5 C-8.47402344 3.16613281 -7.82304688 2.83226562 -7.15234375 2.48828125 C-2.2265625 0 -2.2265625 0 0 0 Z " fill="#4D5030" transform="translate(128,1016)"/>
<path d="M0 0 C-5.28922815 3.92194468 -9.32646591 6.71601983 -16 7 C-14.72485508 4.44971017 -13.59658703 4.06918289 -11 3 C-10.01 3 -9.02 3 -8 3 C-8 2.34 -8 1.68 -8 1 C-3.375 -1.125 -3.375 -1.125 0 0 Z " fill="#952627" transform="translate(252,954)"/>
<path d="M0 0 C0 0.66 0 1.32 0 2 C-1.90881434 3.03544174 -3.82739204 4.05290085 -5.75 5.0625 C-6.81734375 5.63097656 -7.8846875 6.19945312 -8.984375 6.78515625 C-12.02593537 8.01044806 -13.04893565 8.25348607 -16 7 C-13.71070947 5.82845707 -11.41881638 4.66261926 -9.125 3.5 C-8.47402344 3.16613281 -7.82304687 2.83226562 -7.15234375 2.48828125 C-2.2265625 0 -2.2265625 0 0 0 Z " fill="#4D5030" transform="translate(344,908)"/>
<path d="M0 0 C0 0.66 0 1.32 0 2 C-1.90881434 3.03544174 -3.82739204 4.05290085 -5.75 5.0625 C-6.81734375 5.63097656 -7.8846875 6.19945312 -8.984375 6.78515625 C-12.02593537 8.01044806 -13.04893565 8.25348607 -16 7 C-13.71070947 5.82845707 -11.41881638 4.66261926 -9.125 3.5 C-8.47402344 3.16613281 -7.82304687 2.83226562 -7.15234375 2.48828125 C-2.2265625 0 -2.2265625 0 0 0 Z " fill="#4D5030" transform="translate(416,872)"/>
<path d="M0 0 C-5.28922815 3.92194468 -9.32646591 6.71601983 -16 7 C-14.72485508 4.44971017 -13.59658703 4.06918289 -11 3 C-10.01 3 -9.02 3 -8 3 C-8 2.34 -8 1.68 -8 1 C-3.375 -1.125 -3.375 -1.125 0 0 Z " fill="#952627" transform="translate(540,810)"/>
<path d="M0 0 C0 0.66 0 1.32 0 2 C-1.90881434 3.03544174 -3.82739204 4.05290085 -5.75 5.0625 C-6.81734375 5.63097656 -7.8846875 6.19945312 -8.984375 6.78515625 C-12.02593537 8.01044806 -13.04893565 8.25348607 -16 7 C-13.71070947 5.82845707 -11.41881638 4.66261926 -9.125 3.5 C-8.47402344 3.16613281 -7.82304688 2.83226562 -7.15234375 2.48828125 C-2.2265625 0 -2.2265625 0 0 0 Z " fill="#4D5030" transform="translate(632,764)"/>
<path d="M0 0 C0 0.66 0 1.32 0 2 C-1.90881434 3.03544174 -3.82739204 4.05290085 -5.75 5.0625 C-6.81734375 5.63097656 -7.8846875 6.19945312 -8.984375 6.78515625 C-12.02593537 8.01044806 -13.04893565 8.25348607 -16 7 C-13.71070947 5.82845707 -11.41881638 4.66261926 -9.125 3.5 C-8.47402344 3.16613281 -7.82304688 2.83226562 -7.15234375 2.48828125 C-2.2265625 0 -2.2265625 0 0 0 Z " fill="#4D5030" transform="translate(704,728)"/>
<path d="M0 0 C-10.37357631 6.70387244 -10.37357631 6.70387244 -16 7 C-14.72485508 4.44971017 -13.59658703 4.06918289 -11 3 C-10.01 3 -9.02 3 -8 3 C-8 2.34 -8 1.68 -8 1 C-3.375 -1.125 -3.375 -1.125 0 0 Z " fill="#972526" transform="translate(268,946)"/>
<path d="M0 0 C-10.37357631 6.70387244 -10.37357631 6.70387244 -16 7 C-14.72485508 4.44971017 -13.59658703 4.06918289 -11 3 C-10.01 3 -9.02 3 -8 3 C-8 2.34 -8 1.68 -8 1 C-3.375 -1.125 -3.375 -1.125 0 0 Z " fill="#972526" transform="translate(556,802)"/>
<path d="M0 0 C1.20907496 3.54141957 1.03433482 3.92624372 -0.6875 7.625 C-2.40059709 10.41251338 -3.78920572 11.96795898 -7 13 C-5.54331217 10.03216871 -3.98767914 7.13584687 -2.375 4.25 C-1.92898438 3.45078125 -1.48296875 2.6515625 -1.0234375 1.828125 C-0.68570312 1.22484375 -0.34796875 0.6215625 0 0 Z " fill="#CE4A5A" transform="translate(390,498)"/>
<path d="M0 0 C-1.79036458 0.9765625 -3.58072917 1.953125 -5.37109375 2.9296875 C-7.16618315 3.91410024 -7.16618315 3.91410024 -8 6 C-9.32 6 -10.64 6 -12 6 C-11.67 5.01 -11.34 4.02 -11 3 C-10.01 3 -9.02 3 -8 3 C-8 2.34 -8 1.68 -8 1 C-3.375 -1.125 -3.375 -1.125 0 0 Z " fill="#902927" transform="translate(32,1064)"/>
<path d="M0 0 C-1.79036458 0.9765625 -3.58072917 1.953125 -5.37109375 2.9296875 C-7.16618315 3.91410024 -7.16618315 3.91410024 -8 6 C-9.32 6 -10.64 6 -12 6 C-11.67 5.01 -11.34 4.02 -11 3 C-10.01 3 -9.02 3 -8 3 C-8 2.34 -8 1.68 -8 1 C-3.375 -1.125 -3.375 -1.125 0 0 Z " fill="#902A27" transform="translate(176,992)"/>
<path d="M0 0 C-1.79036458 0.9765625 -3.58072917 1.953125 -5.37109375 2.9296875 C-7.16618315 3.91410024 -7.16618315 3.91410024 -8 6 C-9.32 6 -10.64 6 -12 6 C-11.67 5.01 -11.34 4.02 -11 3 C-10.01 3 -9.02 3 -8 3 C-8 2.34 -8 1.68 -8 1 C-3.375 -1.125 -3.375 -1.125 0 0 Z " fill="#902927" transform="translate(320,920)"/>
<path d="M0 0 C-1.79036458 0.9765625 -3.58072917 1.953125 -5.37109375 2.9296875 C-7.16618315 3.91410024 -7.16618315 3.91410024 -8 6 C-9.32 6 -10.64 6 -12 6 C-11.67 5.01 -11.34 4.02 -11 3 C-10.01 3 -9.02 3 -8 3 C-8 2.34 -8 1.68 -8 1 C-3.375 -1.125 -3.375 -1.125 0 0 Z " fill="#902A27" transform="translate(464,848)"/>
<path d="M0 0 C-1.79036458 0.9765625 -3.58072917 1.953125 -5.37109375 2.9296875 C-7.16618315 3.91410024 -7.16618315 3.91410024 -8 6 C-9.32 6 -10.64 6 -12 6 C-11.67 5.01 -11.34 4.02 -11 3 C-10.01 3 -9.02 3 -8 3 C-8 2.34 -8 1.68 -8 1 C-3.375 -1.125 -3.375 -1.125 0 0 Z " fill="#902927" transform="translate(608,776)"/>
<path d="M0 0 C-1.79036458 0.9765625 -3.58072917 1.953125 -5.37109375 2.9296875 C-7.16618315 3.91410024 -7.16618315 3.91410024 -8 6 C-9.32 6 -10.64 6 -12 6 C-11 3 -11 3 -9.2578125 1.796875 C-8.55398437 1.45140625 -7.85015625 1.1059375 -7.125 0.75 C-6.42632812 0.39421875 -5.72765625 0.0384375 -5.0078125 -0.328125 C-3 -1 -3 -1 0 0 Z " fill="#8E2B27" transform="translate(140,1010)"/>
<path d="M0 0 C-1.79036458 0.9765625 -3.58072917 1.953125 -5.37109375 2.9296875 C-7.16618315 3.91410024 -7.16618315 3.91410024 -8 6 C-9.32 6 -10.64 6 -12 6 C-11 3 -11 3 -9.2578125 1.796875 C-8.55398438 1.45140625 -7.85015625 1.1059375 -7.125 0.75 C-6.42632812 0.39421875 -5.72765625 0.0384375 -5.0078125 -0.328125 C-3 -1 -3 -1 0 0 Z " fill="#8E2B27" transform="translate(428,866)"/>
<path d="M0 0 C-1.79036458 0.9765625 -3.58072917 1.953125 -5.37109375 2.9296875 C-7.16618315 3.91410024 -7.16618315 3.91410024 -8 6 C-9.32 6 -10.64 6 -12 6 C-11 3 -11 3 -9.2578125 1.796875 C-8.55398438 1.45140625 -7.85015625 1.1059375 -7.125 0.75 C-6.42632813 0.39421875 -5.72765625 0.0384375 -5.0078125 -0.328125 C-3 -1 -3 -1 0 0 Z " fill="#8E2B27" transform="translate(716,722)"/>
<path d="M0 0 C0 0.66 0 1.32 0 2 C-6.45 6.09326923 -6.45 6.09326923 -9.234375 5.62109375 C-9.81703125 5.41613281 -10.3996875 5.21117187 -11 5 C-9.54462432 4.16151196 -8.08559627 3.32936066 -6.625 2.5 C-5.81289063 2.0359375 -5.00078125 1.571875 -4.1640625 1.09375 C-2 0 -2 0 0 0 Z " fill="#475331" transform="translate(36,1062)"/>
<path d="M0 0 C0 0.66 0 1.32 0 2 C-6.45 6.09326923 -6.45 6.09326923 -9.234375 5.62109375 C-9.81703125 5.41613281 -10.3996875 5.21117187 -11 5 C-9.54462432 4.16151196 -8.08559627 3.32936066 -6.625 2.5 C-5.81289062 2.0359375 -5.00078125 1.571875 -4.1640625 1.09375 C-2 0 -2 0 0 0 Z " fill="#475331" transform="translate(180,990)"/>
<path d="M0 0 C0 0.66 0 1.32 0 2 C-6.45 6.09326923 -6.45 6.09326923 -9.234375 5.62109375 C-9.81703125 5.41613281 -10.3996875 5.21117187 -11 5 C-9.54462432 4.16151196 -8.08559627 3.32936066 -6.625 2.5 C-5.81289063 2.0359375 -5.00078125 1.571875 -4.1640625 1.09375 C-2 0 -2 0 0 0 Z " fill="#4C5130" transform="translate(276,942)"/>
<path d="M0 0 C0 0.66 0 1.32 0 2 C-6.45 6.09326923 -6.45 6.09326923 -9.234375 5.62109375 C-9.81703125 5.41613281 -10.3996875 5.21117187 -11 5 C-9.54462432 4.16151196 -8.08559627 3.32936066 -6.625 2.5 C-5.81289063 2.0359375 -5.00078125 1.571875 -4.1640625 1.09375 C-2 0 -2 0 0 0 Z " fill="#475331" transform="translate(288,936)"/>
<path d="M0 0 C0 0.66 0 1.32 0 2 C-6.45 6.09326923 -6.45 6.09326923 -9.234375 5.62109375 C-9.81703125 5.41613281 -10.3996875 5.21117187 -11 5 C-9.54462432 4.16151196 -8.08559627 3.32936066 -6.625 2.5 C-5.81289063 2.0359375 -5.00078125 1.571875 -4.1640625 1.09375 C-2 0 -2 0 0 0 Z " fill="#475331" transform="translate(324,918)"/>
<path d="M0 0 C0 0.66 0 1.32 0 2 C-6.45 6.09326923 -6.45 6.09326923 -9.234375 5.62109375 C-9.81703125 5.41613281 -10.3996875 5.21117187 -11 5 C-9.54462432 4.16151196 -8.08559627 3.32936066 -6.625 2.5 C-5.81289063 2.0359375 -5.00078125 1.571875 -4.1640625 1.09375 C-2 0 -2 0 0 0 Z " fill="#475331" transform="translate(468,846)"/>
<path d="M0 0 C0 0.66 0 1.32 0 2 C-6.45 6.09326923 -6.45 6.09326923 -9.234375 5.62109375 C-9.81703125 5.41613281 -10.3996875 5.21117187 -11 5 C-9.54462432 4.16151196 -8.08559627 3.32936066 -6.625 2.5 C-5.81289063 2.0359375 -5.00078125 1.571875 -4.1640625 1.09375 C-2 0 -2 0 0 0 Z " fill="#4C5130" transform="translate(564,798)"/>
<path d="M0 0 C0 0.66 0 1.32 0 2 C-6.45 6.09326923 -6.45 6.09326923 -9.234375 5.62109375 C-9.81703125 5.41613281 -10.3996875 5.21117187 -11 5 C-9.54462432 4.16151196 -8.08559627 3.32936066 -6.625 2.5 C-5.81289063 2.0359375 -5.00078125 1.571875 -4.1640625 1.09375 C-2 0 -2 0 0 0 Z " fill="#475331" transform="translate(576,792)"/>
<path d="M0 0 C0 0.66 0 1.32 0 2 C-6.45 6.09326923 -6.45 6.09326923 -9.234375 5.62109375 C-9.81703125 5.41613281 -10.3996875 5.21117187 -11 5 C-9.54462432 4.16151196 -8.08559627 3.32936066 -6.625 2.5 C-5.81289063 2.0359375 -5.00078125 1.571875 -4.1640625 1.09375 C-2 0 -2 0 0 0 Z " fill="#475331" transform="translate(612,774)"/>
<path d="M0 0 C0 0.66 0 1.32 0 2 C-6.45 6.09326923 -6.45 6.09326923 -9.234375 5.62109375 C-9.81703125 5.41613281 -10.3996875 5.21117187 -11 5 C-9.54462432 4.16151196 -8.08559627 3.32936066 -6.625 2.5 C-5.81289063 2.0359375 -5.00078125 1.571875 -4.1640625 1.09375 C-2 0 -2 0 0 0 Z " fill="#475431" transform="translate(720,720)"/>
<path d="M0 0 C-0.969375 0.45375 -1.93875 0.9075 -2.9375 1.375 C-6.07079582 2.65786221 -6.07079582 2.65786221 -7 5 C-8.32 5 -9.64 5 -11 5 C-10 2 -10 2 -8.22265625 1.015625 C-7.15337891 0.63664063 -7.15337891 0.63664063 -6.0625 0.25 C-5.35222656 -0.01296875 -4.64195312 -0.2759375 -3.91015625 -0.546875 C-2 -1 -2 -1 0 0 Z " fill="#843028" transform="translate(195,983)"/>
<path d="M0 0 C-0.969375 0.45375 -1.93875 0.9075 -2.9375 1.375 C-6.07079582 2.65786221 -6.07079582 2.65786221 -7 5 C-8.32 5 -9.64 5 -11 5 C-10 2 -10 2 -8.22265625 1.015625 C-7.15337891 0.63664063 -7.15337891 0.63664063 -6.0625 0.25 C-5.35222656 -0.01296875 -4.64195312 -0.2759375 -3.91015625 -0.546875 C-2 -1 -2 -1 0 0 Z " fill="#843028" transform="translate(483,839)"/>
<path d="M0 0 C4.42857143 5.14285714 4.42857143 5.14285714 5 9 C4.01 9.33 3.02 9.66 2 10 C0.68373308 6.38026598 0 3.90432869 0 0 Z " fill="#C83D4D" transform="translate(291,523)"/>
<path d="M0 0 C-3.69172595 3.53790403 -7.09390595 3.59115883 -12 4 C-8.21692645 0.21692645 -5.303392 -0.24106327 0 0 Z " fill="#3C5A32" transform="translate(104,1030)"/>
<path d="M0 0 C-3.69172595 3.53790403 -7.09390595 3.59115883 -12 4 C-8.21692645 0.21692645 -5.303392 -0.24106327 0 0 Z " fill="#3C5A32" transform="translate(392,886)"/>
<path d="M0 0 C-3.69172595 3.53790403 -7.09390595 3.59115883 -12 4 C-8.21692645 0.21692645 -5.303392 -0.24106327 0 0 Z " fill="#3C5A32" transform="translate(680,742)"/>
<path d="M0 0 C0.33 1.32 0.66 2.64 1 4 C0.01 4.33 -0.98 4.66 -2 5 C-2 6.65 -2 8.3 -2 10 C-2.66 9.67 -3.32 9.34 -4 9 C-3.46930939 5.17902761 -2.50298434 2.93828597 0 0 Z " fill="#CB4454" transform="translate(376,523)"/>
<path d="M0 0 C1.65 0 3.3 0 5 0 C4.01 0.33 3.02 0.66 2 1 C0.79117904 3.00016466 0.79117904 3.00016466 0 5 C-0.99 5 -1.98 5 -3 5 C-3 4.01 -3 3.02 -3 2 C-2.01 2 -1.02 2 0 2 C0 1.34 0 0.68 0 0 Z " fill="#9C2326" transform="translate(3,1075)"/>
<path d="M0 0 C0.66 0.33 1.32 0.66 2 1 C-0.75 3.0625 -0.75 3.0625 -4 5 C-6.203125 4.62109375 -6.203125 4.62109375 -8 4 C-6.71349294 3.30289269 -5.42059335 2.61757124 -4.125 1.9375 C-3.40570312 1.55464844 -2.68640625 1.17179688 -1.9453125 0.77734375 C-1.30335938 0.52082031 -0.66140625 0.26429688 0 0 Z " fill="#F5B7BF" transform="translate(951,604)"/>
<path d="M0 0 C1.258125 0.12375 2.51625 0.2475 3.8125 0.375 C4.87404297 0.47941406 4.87404297 0.47941406 5.95703125 0.5859375 C8 1 8 1 11 3 C3.49230769 3.36923077 3.49230769 3.36923077 1 1.5 C0.67 1.005 0.34 0.51 0 0 Z " fill="#E8959F" transform="translate(293,498)"/>
<path d="M0 0 C-1.75 2 -1.75 2 -4 4 C-5.32 4 -6.64 4 -8 4 C-7 1 -7 1 -5.125 -0.25 C-3 -1 -3 -1 0 0 Z " fill="#872F28" transform="translate(84,1038)"/>
<path d="M0 0 C-1.75 2 -1.75 2 -4 4 C-5.32 4 -6.64 4 -8 4 C-7 1 -7 1 -5.125 -0.25 C-3 -1 -3 -1 0 0 Z " fill="#872F28" transform="translate(228,966)"/>
<path d="M0 0 C-1.75 2 -1.75 2 -4 4 C-5.32 4 -6.64 4 -8 4 C-7 1 -7 1 -5.125 -0.25 C-3 -1 -3 -1 0 0 Z " fill="#872F28" transform="translate(300,930)"/>
<path d="M0 0 C-1.75 2 -1.75 2 -4 4 C-5.32 4 -6.64 4 -8 4 C-7 1 -7 1 -5.125 -0.25 C-3 -1 -3 -1 0 0 Z " fill="#872F28" transform="translate(372,894)"/>
<path d="M0 0 C-1.75 2 -1.75 2 -4 4 C-5.32 4 -6.64 4 -8 4 C-7 1 -7 1 -5.125 -0.25 C-3 -1 -3 -1 0 0 Z " fill="#872F28" transform="translate(516,822)"/>
<path d="M0 0 C-1.75 2 -1.75 2 -4 4 C-5.32 4 -6.64 4 -8 4 C-7 1 -7 1 -5.125 -0.25 C-3 -1 -3 -1 0 0 Z " fill="#872F28" transform="translate(588,786)"/>
<path d="M0 0 C-1.75 2 -1.75 2 -4 4 C-5.32 4 -6.64 4 -8 4 C-7 1 -7 1 -5.125 -0.25 C-3 -1 -3 -1 0 0 Z " fill="#872F28" transform="translate(660,750)"/>
<path d="M0 0 C0.33 0.66 0.66 1.32 1 2 C0.22265625 3.9453125 0.22265625 3.9453125 -0.9375 6.125 C-1.31777344 6.84945313 -1.69804687 7.57390625 -2.08984375 8.3203125 C-2.39019531 8.87460937 -2.69054687 9.42890625 -3 10 C-3.33 10 -3.66 10 -4 10 C-4 8.02 -4 6.04 -4 4 C-3.01 4 -2.02 4 -1 4 C-0.67 2.68 -0.34 1.36 0 0 Z " fill="#CF4656" transform="translate(321,493)"/>
</svg>
