<?xml version="1.0" encoding="UTF-8"?>
<svg version="1.1" xmlns="http://www.w3.org/2000/svg" width="2160" height="1080">
<path d="M0 0 C712.8 0 1425.6 0 2160 0 C2160 356.4 2160 712.8 2160 1080 C1447.2 1080 734.4 1080 0 1080 C0 723.6 0 367.2 0 0 Z " fill="#CE0922" transform="translate(0,0)"/>
<path d="M0 0 C712.8 0 1425.6 0 2160 0 C2160 118.8 2160 237.6 2160 360 C1625.4 360 1090.8 360 540 360 C540 478.8 540 597.6 540 720 C536.7 722.31 533.4 724.62 530 727 C529.01386719 727.69609375 528.02773438 728.3921875 527.01171875 729.109375 C526.24472656 729.65078125 525.47773437 730.1921875 524.6875 730.75 C523.90761719 731.30171875 523.12773438 731.8534375 522.32421875 732.421875 C519.12546102 734.59380462 515.81145968 736.53112885 512.46484375 738.46484375 C511.63082031 738.95082031 510.79679687 739.43679688 509.9375 739.9375 C509.10089844 740.42089844 508.26429688 740.90429688 507.40234375 741.40234375 C504.92973995 743.04672579 503.07675919 744.8894036 501 747 C495.14814815 751 495.14814815 751 492 751 C492 751.66 492 752.32 492 753 C490.53626953 753.81404297 490.53626953 753.81404297 489.04296875 754.64453125 C487.75766633 755.3669275 486.47251813 756.08959818 485.1875 756.8125 C484.54490234 757.16892578 483.90230469 757.52535156 483.24023438 757.89257812 C480.08199449 759.67624728 477.51326625 761.41140425 475 764 C472.98326572 765.3100393 470.93780781 766.5762783 468.875 767.8125 C459.46610603 773.44666783 459.46610603 773.44666783 450.640625 779.9296875 C447.79155737 782.16342396 444.85177974 784.00943682 441.75 785.875 C434.08536275 790.53026888 426.6767553 795.34558673 419.62890625 800.8984375 C418 802 418 802 416 802 C416 802.66 416 803.32 416 804 C414.865625 804.53625 413.73125 805.0725 412.5625 805.625 C406.28550612 808.76903221 400.61922169 812.72903886 395.0625 817 C391.38037511 819.80542849 387.51105563 822.148695 383.5234375 824.4921875 C378.66633487 827.3944191 373.92019926 830.46384059 369.5 834 C363.56908631 838.74473095 357.03165498 842.6704613 350.46484375 846.46484375 C349.63082031 846.95082031 348.79679687 847.43679688 347.9375 847.9375 C347.10089844 848.42089844 346.26429688 848.90429688 345.40234375 849.40234375 C342.95162039 850.91435185 342.95162039 850.91435185 341.046875 852.98046875 C338.66540678 855.33012346 336.23264324 856.74888102 333.3125 858.375 C326.59148489 862.2050803 320.19716325 866.28573782 314.0625 871 C310.37664971 873.80826689 306.5027138 876.15307489 302.51171875 878.5 C296.32961142 882.19195834 290.52014174 886.3260976 284.7890625 890.67578125 C278.94690265 895 278.94690265 895 276 895 C276 895.66 276 896.32 276 897 C274.53626953 897.81404297 274.53626953 897.81404297 273.04296875 898.64453125 C271.75766633 899.3669275 270.47251813 900.08959818 269.1875 900.8125 C268.54490234 901.16892578 267.90230469 901.52535156 267.24023438 901.89257812 C264.09628901 903.66817421 261.45404589 905.3577382 259 908 C257.56438631 909.03235142 256.10399923 910.03082644 254.625 911 C253.42423828 911.78697266 253.42423828 911.78697266 252.19921875 912.58984375 C249.82729791 914.11073793 247.42699343 915.56869618 245 917 C244.33742187 917.42539062 243.67484375 917.85078125 242.9921875 918.2890625 C242.27289063 918.75054688 241.55359375 919.21203125 240.8125 919.6875 C239.80123047 920.34298828 239.80123047 920.34298828 238.76953125 921.01171875 C237 922 237 922 235 922 C234.67 922.99 234.34 923.98 234 925 C231.69018075 926.54675396 229.41220367 927.94538205 227 929.3125 C225.62278239 930.11561958 224.24647605 930.92030391 222.87109375 931.7265625 C221.86925049 932.31099121 221.86925049 932.31099121 220.84716797 932.90722656 C215.69063595 935.95779983 210.81123015 939.35365363 206.0625 943 C202.37664971 945.80826689 198.5027138 948.15307489 194.51171875 950.5 C188.32961142 954.19195834 182.52014174 958.3260976 176.7890625 962.67578125 C170.94690265 967 170.94690265 967 168 967 C168 967.66 168 968.32 168 969 C165.4453125 970.7265625 165.4453125 970.7265625 162.125 972.625 C161.03445312 973.25664063 159.94390625 973.88828125 158.8203125 974.5390625 C156 976 156 976 154 976 C153.67 976.99 153.34 977.98 153 979 C150.92578125 980.46484375 150.92578125 980.46484375 148.3125 981.9375 C145.4811843 983.56740875 142.71973419 985.18684388 140 987 C136.541837 989.305442 132.97222133 991.37106316 129.3671875 993.4375 C126.9457967 994.91828611 126.9457967 994.91828611 125.05078125 996.9765625 C122.66755556 999.32801185 120.23482331 1000.74766702 117.3125 1002.375 C110.59148489 1006.2050803 104.19716325 1010.28573782 98.0625 1015 C94.37664971 1017.80826689 90.5027138 1020.15307489 86.51171875 1022.5 C80.32961142 1026.19195834 74.52014174 1030.3260976 68.7890625 1034.67578125 C62.94690265 1039 62.94690265 1039 60 1039 C60 1039.66 60 1040.32 60 1041 C58.53626953 1041.81404297 58.53626953 1041.81404297 57.04296875 1042.64453125 C55.75766633 1043.3669275 54.47251813 1044.08959818 53.1875 1044.8125 C52.22360352 1045.34713867 52.22360352 1045.34713867 51.24023438 1045.89257812 C48.08199449 1047.67624728 45.51326625 1049.41140425 43 1052 C40.98326572 1053.3100393 38.93780781 1054.5762783 36.875 1055.8125 C27.41746271 1061.51017999 27.41746271 1061.51017999 18.5 1068 C12.70990377 1072.63207699 6.43299074 1076.32400529 0 1080 C0 723.6 0 367.2 0 0 Z " fill="#007A3A" transform="translate(0,0)"/>
<path d="M0 0 C534.6 0 1069.2 0 1620 0 C1620 118.8 1620 237.6 1620 360 C1085.4 360 550.8 360 0 360 C0 241.2 0 122.4 0 0 Z " fill="#FEFEFE" transform="translate(540,360)"/>
<path d="M0 0 C7.85082873 4.48618785 7.85082873 4.48618785 11 6.625 C11.76441406 7.140625 12.52882813 7.65625 13.31640625 8.1875 C14.20199219 8.785625 15.08757813 9.38375 16 10 C18.31166058 11.54294389 20.6242032 13.08451479 22.9375 14.625 C24.23569922 15.49085222 25.5338756 16.35673871 26.83203125 17.22265625 C29.72316259 19.1503072 32.61677296 21.07417656 35.51171875 22.99609375 C42.35985212 27.54626888 49.19668588 32.10433828 55.9375 36.8125 C60.70034952 40.13151715 65.53689353 43.29429983 70.44921875 46.38671875 C76.120525 49.97362454 81.65121485 53.74463949 87.125 57.625 C90.97457402 60.33774669 94.86366169 62.75199005 99 65 C99 65.66 99 66.32 99 67 C99.71671875 67.26296875 100.4334375 67.5259375 101.171875 67.796875 C104.09728961 69.0413884 106.58511291 70.52016101 109.25 72.25 C110.20261719 72.86617188 111.15523438 73.48234375 112.13671875 74.1171875 C115.51226358 76.33684999 118.87617969 78.57267849 122.22265625 80.8359375 C123.99504412 82.04582822 123.99504412 82.04582822 126 83 C126 83.66 126 84.32 126 85 C126.74765625 85.27972656 127.4953125 85.55945313 128.265625 85.84765625 C130.69938845 86.8733137 132.59506176 87.93705746 134.75 89.4375 C139.10056526 92.40739 143.50774564 95.27550339 147.9375 98.125 C156.30348002 103.52127029 164.59056263 109.03124897 172.86279297 114.56982422 C176.73782324 117.16291621 180.6189341 119.74688521 184.49926758 122.33203125 C187.73362939 124.48739771 190.96581504 126.64594407 194.1953125 128.80859375 C194.88407471 129.26927246 195.57283691 129.72995117 196.2824707 130.20458984 C197.60715916 131.09068933 198.93124385 131.97769229 200.25463867 132.86572266 C203.5420017 135.07640215 203.5420017 135.07640215 207 137 C207 137.66 207 138.32 207 139 C207.71671875 139.26296875 208.4334375 139.5259375 209.171875 139.796875 C212.09728961 141.0413884 214.58511291 142.52016101 217.25 144.25 C218.20261719 144.86617187 219.15523437 145.48234375 220.13671875 146.1171875 C223.51226358 148.33684999 226.87617969 150.57267849 230.22265625 152.8359375 C231.99504412 154.04582822 231.99504412 154.04582822 234 155 C234 155.66 234 156.32 234 157 C234.71671875 157.26296875 235.4334375 157.5259375 236.171875 157.796875 C239.09728961 159.0413884 241.58511291 160.52016101 244.25 162.25 C245.20261719 162.86617187 246.15523437 163.48234375 247.13671875 164.1171875 C250.51226358 166.33684999 253.87617969 168.57267849 257.22265625 170.8359375 C258.99504412 172.04582822 258.99504412 172.04582822 261 173 C261 173.66 261 174.32 261 175 C261.7425 175.27585938 262.485 175.55171875 263.25 175.8359375 C265.77706533 176.90563277 267.76084494 178.0593408 270 179.625 C272.77986509 181.53468736 275.57976963 183.3694555 278.47265625 185.1015625 C279.36307617 185.63595947 279.36307617 185.63595947 280.27148438 186.18115234 C282.00235486 187.2141064 283.73743522 188.23999607 285.47265625 189.265625 C286.30667969 189.83796875 287.14070313 190.4103125 288 191 C288 191.66 288 192.32 288 193 C288.7425 193.27585938 289.485 193.55171875 290.25 193.8359375 C292.77706533 194.90563277 294.76084494 196.0593408 297 197.625 C299.77986509 199.53468736 302.57976963 201.3694555 305.47265625 203.1015625 C306.36307617 203.63595947 306.36307617 203.63595947 307.27148438 204.18115234 C309.00235486 205.2141064 310.73743522 206.23999607 312.47265625 207.265625 C313.30667969 207.83796875 314.14070313 208.4103125 315 209 C315 209.66 315 210.32 315 211 C315.72445313 211.268125 316.44890625 211.53625 317.1953125 211.8125 C319.98324639 212.99290655 322.33664215 214.35520737 324.875 216 C325.8340625 216.62132812 326.793125 217.24265625 327.78125 217.8828125 C336.18992692 223.41376261 344.56767621 228.97677887 352.8125 234.75 C357.50312263 238.0299527 362.2719914 241.0198235 367.26953125 243.80859375 C367.84058594 244.20175781 368.41164063 244.59492188 369 245 C369 245.66 369 246.32 369 247 C369.72445313 247.268125 370.44890625 247.53625 371.1953125 247.8125 C373.98324639 248.99290655 376.33664215 250.35520737 378.875 252 C379.84050781 252.62519531 380.80601562 253.25039062 381.80078125 253.89453125 C387.88711016 257.90006395 393.94659835 261.94493012 400 266 C403.20722884 268.14748947 406.4158173 270.29293176 409.625 272.4375 C410.76207397 273.19969849 410.76207397 273.19969849 411.92211914 273.97729492 C414.92148556 275.98146437 417.88736262 277.93582289 421.0234375 279.72265625 C421.67570312 280.14417969 422.32796875 280.56570313 423 281 C423 281.66 423 282.32 423 283 C423.71671875 283.26296875 424.4334375 283.5259375 425.171875 283.796875 C428.09728961 285.0413884 430.58511291 286.52016101 433.25 288.25 C434.219375 288.87777344 435.18875 289.50554687 436.1875 290.15234375 C440.13883373 292.74815049 444.07468674 295.36503549 448 298 C449.68647557 299.12499029 451.37299039 300.24992206 453.06005859 301.37402344 C454.32490943 302.21681872 455.58955375 303.05992401 456.85400391 303.90332031 C460.40414737 306.2712511 463.95648111 308.63581732 467.51171875 310.99609375 C474.35985212 315.54626888 481.19668588 320.10433828 487.9375 324.8125 C492.70034952 328.13151715 497.53689353 331.29429983 502.44921875 334.38671875 C508.120525 337.97362454 513.65121485 341.74463949 519.125 345.625 C522.97457402 348.33774669 526.86366169 350.75199005 531 353 C531 353.66 531 354.32 531 355 C531.7425 355.268125 532.485 355.53625 533.25 355.8125 C536.00714905 357.00308709 537.84386261 357.91525898 540 360 C540.50830066 362.67287135 540.50830066 362.67287135 540.52012444 365.97184372 C540.54132121 367.85536171 540.54132121 367.85536171 540.5629462 369.77693057 C540.55844305 371.17817226 540.55355 372.57941273 540.54830933 373.98065186 C540.55720957 375.46319133 540.56783617 376.94572129 540.58004677 378.4282372 C540.60848337 382.5125844 540.61173194 386.5966278 540.61085296 390.68105984 C540.61414274 395.08206454 540.64026346 399.48294283 540.66323853 403.88388062 C540.70898912 413.51196314 540.72478525 423.13995764 540.73489141 432.76813412 C540.74139988 438.77796432 540.75444154 444.78776884 540.7688942 450.79758453 C540.80803339 467.43112236 540.84083734 484.06463627 540.84664726 500.69822311 C540.8470224 501.76319687 540.84739754 502.82817062 540.84778405 503.92541631 C540.84851656 506.08446518 540.84924396 508.24351406 540.84996627 510.40256295 C540.85033189 511.47434608 540.85069752 512.54612921 540.85107422 513.65039062 C540.85161587 515.26002359 540.85161587 515.26002359 540.85216846 516.90217438 C540.85925263 534.29243319 540.91329788 551.6821968 540.98807 569.07228383 C541.0641913 586.91872506 541.10296189 604.76492045 541.10356629 622.61152768 C541.1047365 632.63495029 541.12178686 642.65778233 541.17956161 652.68105316 C541.22853046 661.21598818 541.24319665 669.75011736 541.21306656 678.28515479 C541.19870246 682.6409557 541.20054496 686.9951646 541.24588776 691.35078812 C541.28700851 695.33902925 541.28193738 699.32445209 541.24013807 703.31266156 C541.23313536 704.7548344 541.24302648 706.19720928 541.27154694 707.63911709 C541.47098082 718.41693158 541.47098082 718.41693158 537.79673028 722.37115717 C535.26852418 724.16139646 532.76259164 725.60755817 530 727 C529.01386719 727.69609375 528.02773438 728.3921875 527.01171875 729.109375 C526.24472656 729.65078125 525.47773437 730.1921875 524.6875 730.75 C523.90761719 731.30171875 523.12773438 731.8534375 522.32421875 732.421875 C519.12546102 734.59380462 515.81145968 736.53112885 512.46484375 738.46484375 C511.63082031 738.95082031 510.79679687 739.43679688 509.9375 739.9375 C509.10089844 740.42089844 508.26429688 740.90429688 507.40234375 741.40234375 C504.92973995 743.04672579 503.07675919 744.8894036 501 747 C495.14814815 751 495.14814815 751 492 751 C492 751.66 492 752.32 492 753 C490.53626953 753.81404297 490.53626953 753.81404297 489.04296875 754.64453125 C487.75766633 755.3669275 486.47251813 756.08959818 485.1875 756.8125 C484.54490234 757.16892578 483.90230469 757.52535156 483.24023438 757.89257812 C480.08199449 759.67624728 477.51326625 761.41140425 475 764 C472.98326572 765.3100393 470.93780781 766.5762783 468.875 767.8125 C459.46610603 773.44666783 459.46610603 773.44666783 450.640625 779.9296875 C447.79155737 782.16342396 444.85177974 784.00943682 441.75 785.875 C434.08536275 790.53026888 426.6767553 795.34558673 419.62890625 800.8984375 C418 802 418 802 416 802 C416 802.66 416 803.32 416 804 C414.865625 804.53625 413.73125 805.0725 412.5625 805.625 C406.28550612 808.76903221 400.61922169 812.72903886 395.0625 817 C391.38037511 819.80542849 387.51105563 822.148695 383.5234375 824.4921875 C378.66633487 827.3944191 373.92019926 830.46384059 369.5 834 C363.56908631 838.74473095 357.03165498 842.6704613 350.46484375 846.46484375 C349.63082031 846.95082031 348.79679687 847.43679688 347.9375 847.9375 C347.10089844 848.42089844 346.26429688 848.90429688 345.40234375 849.40234375 C342.95162039 850.91435185 342.95162039 850.91435185 341.046875 852.98046875 C338.66540678 855.33012346 336.23264324 856.74888102 333.3125 858.375 C326.59148489 862.2050803 320.19716325 866.28573782 314.0625 871 C310.37664971 873.80826689 306.5027138 876.15307489 302.51171875 878.5 C296.32961142 882.19195834 290.52014174 886.3260976 284.7890625 890.67578125 C278.94690265 895 278.94690265 895 276 895 C276 895.66 276 896.32 276 897 C274.53626953 897.81404297 274.53626953 897.81404297 273.04296875 898.64453125 C271.75766633 899.3669275 270.47251813 900.08959818 269.1875 900.8125 C268.54490234 901.16892578 267.90230469 901.52535156 267.24023438 901.89257812 C264.09628901 903.66817421 261.45404589 905.3577382 259 908 C257.56438631 909.03235142 256.10399923 910.03082644 254.625 911 C253.42423828 911.78697266 253.42423828 911.78697266 252.19921875 912.58984375 C249.82729791 914.11073793 247.42699343 915.56869618 245 917 C244.33742187 917.42539062 243.67484375 917.85078125 242.9921875 918.2890625 C242.27289063 918.75054688 241.55359375 919.21203125 240.8125 919.6875 C239.80123047 920.34298828 239.80123047 920.34298828 238.76953125 921.01171875 C237 922 237 922 235 922 C234.67 922.99 234.34 923.98 234 925 C231.69018075 926.54675396 229.41220367 927.94538205 227 929.3125 C225.62278239 930.11561958 224.24647605 930.92030391 222.87109375 931.7265625 C221.86925049 932.31099121 221.86925049 932.31099121 220.84716797 932.90722656 C215.69063595 935.95779983 210.81123015 939.35365363 206.0625 943 C202.37664971 945.80826689 198.5027138 948.15307489 194.51171875 950.5 C188.32961142 954.19195834 182.52014174 958.3260976 176.7890625 962.67578125 C170.94690265 967 170.94690265 967 168 967 C168 967.66 168 968.32 168 969 C165.4453125 970.7265625 165.4453125 970.7265625 162.125 972.625 C161.03445312 973.25664063 159.94390625 973.88828125 158.8203125 974.5390625 C156 976 156 976 154 976 C153.67 976.99 153.34 977.98 153 979 C150.92578125 980.46484375 150.92578125 980.46484375 148.3125 981.9375 C145.4811843 983.56740875 142.71973419 985.18684388 140 987 C136.541837 989.305442 132.97222133 991.37106316 129.3671875 993.4375 C126.9457967 994.91828611 126.9457967 994.91828611 125.05078125 996.9765625 C122.66755556 999.32801185 120.23482331 1000.74766702 117.3125 1002.375 C110.59148489 1006.2050803 104.19716325 1010.28573782 98.0625 1015 C94.37664971 1017.80826689 90.5027138 1020.15307489 86.51171875 1022.5 C80.32961142 1026.19195834 74.52014174 1030.3260976 68.7890625 1034.67578125 C62.94690265 1039 62.94690265 1039 60 1039 C60 1039.66 60 1040.32 60 1041 C58.53626953 1041.81404297 58.53626953 1041.81404297 57.04296875 1042.64453125 C55.75766633 1043.3669275 54.47251813 1044.08959818 53.1875 1044.8125 C52.22360352 1045.34713867 52.22360352 1045.34713867 51.24023438 1045.89257812 C48.08199449 1047.67624728 45.51326625 1049.41140425 43 1052 C40.98326572 1053.3100393 38.93780781 1054.5762783 36.875 1055.8125 C27.41746271 1061.51017999 27.41746271 1061.51017999 18.5 1068 C12.70990377 1072.63207699 6.43299074 1076.32400529 0 1080 C0 723.6 0 367.2 0 0 Z " fill="#000000" transform="translate(0,0)"/>
<path d="M0 0 C-1.25460729 3.76382187 -2.52618612 4.25041838 -5.875 6.25 C-6.75929688 6.79140625 -7.64359375 7.3328125 -8.5546875 7.890625 C-11 9 -11 9 -14 8 C-9.25 5 -9.25 5 -7 5 C-6.67 4.01 -6.34 3.02 -6 2 C-3.85412616 0.684787 -2.52986895 0 0 0 Z " fill="#980C1C" transform="translate(376,830)"/>
<path d="M0 0 C-1.24993996 3.74981988 -2.7230706 4.86618551 -6 7 C-8.3125 6.75 -8.3125 6.75 -10 6 C-2.92307692 0 -2.92307692 0 0 0 Z " fill="#9D0C1D" transform="translate(430,794)"/>
<path d="M0 0 C0 0.66 0 1.32 0 2 C-0.598125 2.2475 -1.19625 2.495 -1.8125 2.75 C-4.135974 3.86434075 -4.135974 3.86434075 -5.4375 6.125 C-7 8 -7 8 -9.6875 8.25 C-10.450625 8.1675 -11.21375 8.085 -12 8 C-9.94870558 5.86088258 -7.84304969 4.04262537 -5.4375 2.3125 C-4.53837891 1.65701172 -4.53837891 1.65701172 -3.62109375 0.98828125 C-2 0 -2 0 0 0 Z " fill="#A20D1F" transform="translate(13,1072)"/>
<path d="M0 0 C0.66 0.33 1.32 0.66 2 1 C0.59785066 2.36919284 -0.82228473 3.71998709 -2.25 5.0625 C-3.43335938 6.19365234 -3.43335938 6.19365234 -4.640625 7.34765625 C-7 9 -7 9 -9.296875 8.74609375 C-9.85890625 8.49988281 -10.4209375 8.25367188 -11 8 C-10.37351563 7.59007812 -9.74703125 7.18015625 -9.1015625 6.7578125 C-8.28429687 6.21898437 -7.46703125 5.68015625 -6.625 5.125 C-5.40683594 4.32449219 -5.40683594 4.32449219 -4.1640625 3.5078125 C-1.92405904 2.04134945 -1.92405904 2.04134945 0 0 Z " fill="#950C1B" transform="translate(208,940)"/>
<path d="M0 0 C-1.27549283 3.8264785 -2.47007312 4.19581515 -6 6 C-7.98451771 6.71143088 -9.98202112 7.38991336 -12 8 C-4.4 0 -4.4 0 0 0 Z " fill="#9A0D1D" transform="translate(160,974)"/>
<path d="M0 0 C0.66 0.33 1.32 0.66 2 1 C-0.1677922 3.27618181 -2.32727719 5.32954824 -5 7 C-5.99 6.67 -6.98 6.34 -8 6 C-5.54080489 3.3651481 -3.42227589 1.25483449 0 0 Z " fill="#930B1B" transform="translate(242,918)"/>
<path d="M0 0 C0.66 0.33 1.32 0.66 2 1 C0.06745228 3.0245738 -1.63158688 4.42105792 -4 6 C-6.1875 5.625 -6.1875 5.625 -8 5 C-6.71475739 4.13619741 -5.42157581 3.28419631 -4.125 2.4375 C-3.04605469 1.72400391 -3.04605469 1.72400391 -1.9453125 0.99609375 C-1.30335937 0.66738281 -0.66140625 0.33867188 0 0 Z " fill="#8B0A19" transform="translate(26,1062)"/>
<path d="M0 0 C0.66 0.33 1.32 0.66 2 1 C0.06745228 3.0245738 -1.63158688 4.42105792 -4 6 C-6.1875 5.625 -6.1875 5.625 -8 5 C-6.71475739 4.13619741 -5.42157581 3.28419631 -4.125 2.4375 C-3.04605469 1.72400391 -3.04605469 1.72400391 -1.9453125 0.99609375 C-1.30335938 0.66738281 -0.66140625 0.33867188 0 0 Z " fill="#8B0A19" transform="translate(458,774)"/>
<path d="M0 0 C0.66 0.33 1.32 0.66 2 1 C-1.17320782 4.53586014 -3.16743695 6.58578031 -8 7 C-5.80075931 3.64326421 -3.61730402 1.76227632 0 0 Z " fill="#910B1B" transform="translate(360,839)"/>
<path d="M0 0 C0 0.66 0 1.32 0 2 C-5.2734375 5.22265625 -5.2734375 5.22265625 -7 6 C-7.66 5.67 -8.32 5.34 -9 5 C-2.87096774 0 -2.87096774 0 0 0 Z " fill="#910B1B" transform="translate(37,1056)"/>
<path d="M0 0 C0.66 0.33 1.32 0.66 2 1 C-2.296875 5.00390625 -2.296875 5.00390625 -4 6 C-6.203125 5.65234375 -6.203125 5.65234375 -8 5 C-6.71475739 4.13619741 -5.42157581 3.28419631 -4.125 2.4375 C-3.04605469 1.72400391 -3.04605469 1.72400391 -1.9453125 0.99609375 C-1.30335938 0.66738281 -0.66140625 0.33867188 0 0 Z " fill="#8B0A19" transform="translate(134,990)"/>
<path d="M0 0 C0 0.66 0 1.32 0 2 C-5.2734375 5.22265625 -5.2734375 5.22265625 -7 6 C-7.66 5.67 -8.32 5.34 -9 5 C-2.87096774 0 -2.87096774 0 0 0 Z " fill="#910B1B" transform="translate(469,768)"/>
<path d="M0 0 C0.66 0.33 1.32 0.66 2 1 C-0.83430453 4.2542015 -2.68607774 5.5206753 -7 6 C-5.01180815 3.01771223 -3.42353587 1.21480305 0 0 Z " fill="#920B1B" transform="translate(251,912)"/>
</svg>
