<?xml version="1.0" encoding="UTF-8"?>
<svg version="1.1" xmlns="http://www.w3.org/2000/svg" width="2460" height="967">
<path d="M0 0 C811.8 0 1623.6 0 2460 0 C2460 319.11 2460 638.22 2460 967 C1648.2 967 836.4 967 0 967 C0 647.89 0 328.78 0 0 Z " fill="#8B0D35" transform="translate(0,0)"/>
<path d="M0 0 C178.9425 -0.0928125 178.9425 -0.0928125 361.5 -0.1875 C418.08758789 -0.22846802 418.08758789 -0.22846802 475.81835938 -0.27026367 C521.73925781 -0.28381348 521.73925781 -0.28381348 543.20861816 -0.28633118 C559.2581697 -0.2893212 575.30768354 -0.30227976 591.35722448 -0.32002028 C607.71321183 -0.33785581 624.06917529 -0.34451532 640.425172 -0.34033485 C650.156834 -0.3381781 659.88840729 -0.34419119 669.62005292 -0.36242279 C676.04090671 -0.37363855 682.46170131 -0.37403398 688.8825591 -0.36550602 C692.5427448 -0.36095707 696.2027598 -0.36121456 699.86292744 -0.37464774 C703.81157552 -0.38902629 707.75997793 -0.38023648 711.70864105 -0.36914349 C712.8492208 -0.37702456 713.98980054 -0.38490563 715.16494331 -0.39302553 C721.53828548 -0.35232495 726.17142706 0.41643259 732 3 C734.64678505 3.75626751 737.31791654 4.38186358 740 5 C744.04059002 5.93122973 747.92513681 6.92145847 751.78125 8.4609375 C756.8824176 10.44112707 762.15657555 11.50225712 767.5 12.625 C768.99080078 12.94984375 768.99080078 12.94984375 770.51171875 13.28125 C774.76522992 14.19151263 778.94952973 15.04153684 783.28125 15.4609375 C786.57442054 15.93830886 788.92244169 16.75447339 791.90576172 18.1484375 C797.86376528 20.57109038 804.35115466 21.80896151 810.57226562 23.39453125 C816.04948845 24.82282485 821.03292456 26.21037885 826 29 C829.84667076 30.70895086 833.63818576 31.67408765 837.75 32.5625 C843.89127325 33.89127325 843.89127325 33.89127325 845 35 C846.49663346 35.16035359 847.99795239 35.27764506 849.5 35.375 C853.78714985 35.76199237 857.33259792 36.69531567 861.3515625 38.16796875 C867.08728502 39.96989928 873.09408498 40.90285373 879 42 C879 42.66 879 43.32 879 44 C880.093125 43.938125 881.18625 43.87625 882.3125 43.8125 C889.52917655 43.79965894 896.39827333 46.26414931 903 49 C903 49.66 903 50.32 903 51 C907.29 51.66 911.58 52.32 916 53 C916 53.66 916 54.32 916 55 C910.92523206 56.26305335 906.27203646 57.27036084 901 57 C901 57.66 901 58.32 901 59 C892.00204018 62.07903609 883.43426495 63.92503128 874 65 C874 65.66 874 66.32 874 67 C871.77228658 67.50643553 869.54275924 68.0048962 867.3125 68.5 C866.07113281 68.7784375 864.82976563 69.056875 863.55078125 69.34375 C860.57601782 69.89354126 858.00631398 70.13795705 855 70 C855 70.66 855 71.32 855 72 C852.77228658 72.50643553 850.54275924 73.0048962 848.3125 73.5 C847.07113281 73.7784375 845.82976563 74.056875 844.55078125 74.34375 C841.57601782 74.89354126 839.00631398 75.13795705 836 75 C836 75.66 836 76.32 836 77 C828.79716213 79.7523039 821.68320843 81.56530372 814.125 83 C805.13588061 84.70827839 796.03182561 86.47549791 787.5546875 90.0234375 C784.43298477 91.21674894 781.33859298 91.84549283 778.0625 92.5 C773.56576068 93.40032648 769.33074746 94.49726945 765 96 C755.16597628 99.11034362 745.47782376 101.659092 735.29296875 103.32421875 C732.43861167 103.90998835 730.52437391 104.64336368 728 106 C725.25 106.125 725.25 106.125 723 106 C723.33 106.99 723.66 107.98 724 109 C726.79031413 110.06858906 726.79031413 110.06858906 730.375 110.8125 C731.05965332 110.97427734 731.74430664 111.13605469 732.44970703 111.30273438 C737.19333371 112.40927436 741.95702438 113.42397642 746.71875 114.44921875 C747.89775879 114.70533936 749.07676758 114.96145996 750.29150391 115.2253418 C752.6355696 115.73206754 754.98155954 116.22999234 757.32958984 116.71801758 C764.23151077 118.20030595 770.5343075 120.18275449 777 123 C780.81436475 124.60111355 784.13442791 125.41559774 788.25 125.9375 C792.98494036 126.61695333 797.20250389 127.60316778 801.68359375 129.23046875 C804.28735069 130.09546051 806.87977536 130.6738681 809.5625 131.25 C817.23468597 132.94586144 824.72766625 135.21412022 832.24633789 137.48730469 C837.6457735 139.10055339 842.98644126 140.45801659 848.52319336 141.5012207 C852.96548431 142.39580921 857.32049451 143.60940085 861.6875 144.8125 C863.12706055 145.20562378 863.12706055 145.20562378 864.59570312 145.60668945 C871.34300563 147.47485166 877.93281179 149.62344242 884.546875 151.91796875 C888.09570369 153.0299886 891.6004337 153.79299527 895.25 154.5 C901.67249432 155.76548009 907.19911429 158.00484881 913 161 C910.81788249 163.47778122 909.20013065 164.48187997 906.0078125 165.28125 C905.22615723 165.48194092 904.44450195 165.68263184 903.63916016 165.8894043 C902.39465088 166.19164917 902.39465088 166.19164917 901.125 166.5 C900.27599121 166.71503174 899.42698242 166.93006348 898.55224609 167.15161133 C892.61257505 168.64410663 886.6515713 170.03666739 880.6640625 171.32421875 C878.02180548 171.92497976 878.02180548 171.92497976 875.7109375 172.95703125 C873.34376547 173.86774441 871.20464402 174.43178986 868.734375 174.953125 C864.12903157 175.93047699 859.71943258 177.28245381 855.25 178.75 C840.76624256 183.40729582 826.16403049 187.53065015 811.3828125 191.12890625 C807.87456114 192.03230123 804.50031219 193.13664538 801.08984375 194.34765625 C797.87022114 195.35265994 794.58359837 195.91098578 791.26171875 196.47265625 C789.00545427 196.90068613 789.00545427 196.90068613 787.15039062 197.95898438 C784.87504404 199.06049185 782.79587112 199.63059803 780.33203125 200.18359375 C778.99108398 200.49200195 778.99108398 200.49200195 777.62304688 200.80664062 C776.23182617 201.11891602 776.23182617 201.11891602 774.8125 201.4375 C769.65218618 202.59847905 764.55841017 203.74741381 759.5625 205.5 C753.22448552 207.69574221 746.64874947 208.8580365 740.08789062 210.19335938 C739.10369141 210.39896484 738.11949219 210.60457031 737.10546875 210.81640625 C735.77745239 211.08626343 735.77745239 211.08626343 734.42260742 211.36157227 C732.05992312 211.98420851 730.17131433 212.90561638 728 214 C725.25 214.125 725.25 214.125 723 214 C723 214.66 723 215.32 723 216 C723.73605469 216.12117187 724.47210937 216.24234375 725.23046875 216.3671875 C726.69419922 216.61855469 726.69419922 216.61855469 728.1875 216.875 C729.63189453 217.11863281 729.63189453 217.11863281 731.10546875 217.3671875 C733.91754811 217.98197408 736.33611085 218.93102362 739 220 C740.57657562 220.28957511 742.16120107 220.53748549 743.75 220.75 C749.72774189 221.75439024 755.18076226 223.73485477 760.84692383 225.81616211 C765.85804293 227.64326801 770.75527051 228.98785922 776 230 C776.66 230.33 777.32 230.66 778 231 C779.99580723 231.31909709 781.9968643 231.60571053 784 231.875 C789.07747774 232.6243194 793.79513296 233.70810741 798.671875 235.28125 C800.93703564 235.98056134 803.18077775 236.51344988 805.5 237 C809.52417044 237.85275766 813.4066278 239.00442172 817.3359375 240.21484375 C821.17714712 241.34693046 825.06044558 242.28500222 828.94921875 243.23828125 C833.65445437 244.413084 838.32720407 245.70302318 843 247 C843 247.66 843 248.32 843 249 C843.6290625 249.03738281 844.258125 249.07476562 844.90625 249.11328125 C851.69310631 249.63456088 857.07440309 251.25225599 863.24609375 254 C866.68202695 255.24765801 870.16547541 255.90982645 873.75 256.5625 C880.86980969 257.86980969 880.86980969 257.86980969 882 259 C884.7692064 259.53670287 887.54945085 259.9648874 890.3359375 260.40234375 C893 261 893 261 896 263 C897.75912409 263.3728128 899.53297282 263.67906244 901.3125 263.9375 C905.77834272 264.67785854 909.12312141 265.69482894 913 268 C913 268.66 913 269.32 913 270 C910.36 270.33 907.72 270.66 905 271 C905 271.66 905 272.32 905 273 C904.09378906 273.18175781 903.18757812 273.36351562 902.25390625 273.55078125 C894.14472286 275.1942866 894.14472286 275.1942866 886.25 277.625 C881.58376864 279.30343727 876.92582666 279.70177667 872 280 C872 280.66 872 281.32 872 282 C870.35 282 868.7 282 867 282 C867 282.66 867 283.32 867 284 C862.15758367 285.33583899 858.06562383 286.25328119 853 286 C853 286.66 853 287.32 853 288 C850.77228658 288.50643553 848.54275924 289.0048962 846.3125 289.5 C845.07113281 289.7784375 843.82976563 290.056875 842.55078125 290.34375 C839.57601782 290.89354126 837.00631398 291.13795705 834 291 C834 291.66 834 292.32 834 293 C829.15758367 294.33583899 825.06562383 295.25328119 820 295 C820 295.66 820 296.32 820 297 C817.10555905 297.6732656 814.20969987 298.33880404 811.3125 299 C810.08756836 299.28617187 810.08756836 299.28617187 808.83789062 299.578125 C804.82760674 300.48733916 801.14282748 301.27000098 797 301 C797 301.66 797 302.32 797 303 C795.72125 303.226875 794.4425 303.45375 793.125 303.6875 C784.96485437 305.31952913 776.99881058 307.72525735 769 310 C750.93818647 315.13651089 750.93818647 315.13651089 743.13769531 316.56542969 C739.46660334 317.31172294 735.93253452 318.46390714 732.375 319.625 C731.65699219 319.85445313 730.93898438 320.08390625 730.19921875 320.3203125 C728.46459705 320.87539144 726.73205841 321.43697357 725 322 C735.73600686 326.7655415 746.76559867 329.31610634 758.30859375 331.19140625 C762.23891743 332.0523343 765.33684332 333.36566856 769 335 C771.27336898 335.64141581 771.27336898 335.64141581 773.375 336 C778.84109763 337.12101324 783.99308633 338.94549208 789.25 340.7890625 C793.75075887 342.33619836 798.18542129 343.56383192 802.859375 344.47265625 C805 345 805 345 807.23046875 345.97265625 C810.94638825 347.35105798 814.65205305 347.81232513 818.5625 348.375 C826.01392786 349.51886619 832.94672763 351.27550067 840 354 C840 354.66 840 355.32 840 356 C840.86882813 356.12117188 841.73765625 356.24234375 842.6328125 356.3671875 C843.78523437 356.53476562 844.93765625 356.70234375 846.125 356.875 C847.83042969 357.11863281 847.83042969 357.11863281 849.5703125 357.3671875 C852.8673261 357.9755203 855.83252815 358.9212545 859 360 C860.64001417 360.30409138 862.28650499 360.57515317 863.9375 360.8125 C872.02881551 362.19989978 879.97005371 364.87434158 887.5234375 368.06640625 C890.55909419 369.21076263 893.56770587 369.81164882 896.75 370.4375 C902.35602017 371.59411048 907.62179685 373.05271955 913 375 C913 375.99 913 376.98 913 378 C911.35 378 909.7 378 908 378 C908 378.66 908 379.32 908 380 C907.01902344 380.24234375 906.03804687 380.4846875 905.02734375 380.734375 C896.82361149 382.7689088 888.6472704 384.88107569 880.484375 387.07421875 C877.49525777 387.86841245 874.50240273 388.63307678 871.5 389.375 C857.56199425 392.83147596 843.67942855 396.51980317 829.8125 400.25 C828.42345459 400.61895386 828.42345459 400.61895386 827.00634766 400.99536133 C826.14444824 401.22892334 825.28254883 401.46248535 824.39453125 401.703125 C823.64018799 401.90583008 822.88584473 402.10853516 822.10864258 402.31738281 C819.9665676 402.95252658 819.9665676 402.95252658 817.94799805 404.02636719 C815.49709561 405.25135765 812.97198807 405.74999082 810.31640625 406.37109375 C807.75675783 407.06604045 805.34798715 407.97962722 802.875 408.9375 C795.45991441 411.70401598 787.78604886 413.10065048 780.02734375 414.55859375 C779.15207031 414.72488281 778.27679687 414.89117187 777.375 415.0625 C776.61960937 415.19785156 775.86421875 415.33320313 775.0859375 415.47265625 C772.96999993 415.92304031 772.96999993 415.92304031 771.0859375 416.9921875 C768.48950076 418.2466457 766.09716173 418.62362403 763.25 419.0625 C762.198125 419.22621094 761.14625 419.38992188 760.0625 419.55859375 C756.37911077 420.08949041 752.69690691 420.57343382 749 421 C749 421.66 749 422.32 749 423 C740.973914 425.74341572 733.49430869 427.65954675 725 428 C725.65517333 431.11875381 725.65517333 431.11875381 728.0390625 432.07421875 C731.77030067 433.24084599 735.54941453 434.0325894 739.375 434.8125 C746.59122454 436.33851688 753.35168759 438.39065211 760.3125 440.8359375 C765.43086873 442.45169373 770.5731972 443.40727491 775.85546875 444.32421875 C779 445 779 445 780.94140625 445.9765625 C784.0457988 447.51992274 787.37487417 448.00987143 790.75 448.6875 C798.54073551 450.3310049 806.1724329 452.38669003 813.8125 454.625 C814.84407227 454.92623779 815.87564453 455.22747559 816.93847656 455.5378418 C824.33307403 457.72971579 824.33307403 457.72971579 827.55786133 459.03662109 C829.77902439 459.91282918 831.84914797 460.50762475 834.1796875 461 C834.94410156 461.165 835.70851563 461.33 836.49609375 461.5 C837.28113281 461.665 838.06617188 461.83 838.875 462 C844.31652017 463.15508223 849.66372293 464.41114407 855 466 C863.90899617 468.59282509 872.84902637 471.04063602 881.8125 473.4375 C889.53610424 475.50930839 897.25577339 477.58966996 904.9375 479.8125 C905.62239502 480.00706787 906.30729004 480.20163574 907.01293945 480.40209961 C910.09026796 481.30593314 912.30035643 482.20023762 915 484 C909.37054087 486.68800913 903.93179695 488.00095574 897.8125 489.125 C896.04804327 489.46023398 894.28371526 489.79614628 892.51953125 490.1328125 C891.74714111 490.27605957 890.97475098 490.41930664 890.17895508 490.56689453 C888.09879454 490.98036286 886.05250217 491.46725388 884 492 C884 492.66 884 493.32 884 494 C883.16597656 494.18175781 882.33195313 494.36351562 881.47265625 494.55078125 C873.95928668 496.20761795 873.95928668 496.20761795 866.625 498.5 C861.50605474 500.30613608 856.23211083 501.16750395 850.91015625 502.1796875 C845.94849307 503.22059586 841.14471281 504.64691966 836.2890625 506.09375 C833.23650741 506.93483406 830.24656439 507.54653894 827.125 508.0625 C823.19988805 508.71284846 819.71062882 509.67257866 816.046875 511.21875 C813.08739429 512.34832279 810.04865873 513.14207008 807 514 C804.34853581 514.79456905 801.70503117 515.61376361 799.0625 516.4375 C798.35158203 516.65776855 797.64066406 516.87803711 796.90820312 517.10498047 C793.54555958 518.15754668 790.24533665 519.25281068 787 520.625 C781.84682741 522.65642884 776.27129273 523.35208584 770.83984375 524.31640625 C764.01309446 525.53174819 757.43212338 527.10247983 750.80859375 529.1484375 C747.51055686 530.14839862 744.1939648 531.07196502 740.875 532 C735.80086406 533.44025693 730.89576621 535.04169352 726 537 C732.03123979 540.31085541 737.66845767 542.11913546 744.375 543.5625 C749.58186838 544.71577567 754.73629398 545.87764974 759.828125 547.47265625 C767.03649574 549.69666605 774.44814812 551.08165182 781.8359375 552.57421875 C787.54304588 553.78697928 792.76049265 555.19978883 798.1015625 557.5703125 C803.03569516 559.75134216 807.53321521 560.71541428 812.85253906 561.45800781 C818.8549111 562.49161516 824.5902005 564.50380693 830.375 566.375 C842.22787521 570.15783251 854.09090139 573.8786774 866.1875 576.8125 C873.88521987 578.70999393 881.56997597 580.65715563 889.25 582.625 C890.44133545 582.92639893 891.6326709 583.22779785 892.86010742 583.53833008 C893.98392822 583.82732178 895.10774902 584.11631348 896.265625 584.4140625 C897.27399414 584.6713916 898.28236328 584.9287207 899.32128906 585.19384766 C901.74154235 585.92221772 903.77207134 586.82887811 906 588 C907.57158878 588.42151885 909.15629082 588.7968834 910.75 589.125 C911.54921875 589.29257812 912.3484375 589.46015625 913.171875 589.6328125 C913.77515625 589.75398437 914.3784375 589.87515625 915 590 C915 590.66 915 591.32 915 592 C905.12429361 595.09226945 895.41734038 597.66796572 885.1953125 599.32421875 C881.86499097 599.82239913 881.86499097 599.82239913 879 602 C876.72669469 602.76521579 874.4315334 603.46668708 872.125 604.125 C870.91070313 604.47820313 869.69640625 604.83140625 868.4453125 605.1953125 C865.4558555 605.89353035 863.04397245 606.1736106 860 606 C860 606.66 860 607.32 860 608 C855.87487317 609.92505919 851.7577954 610.67952419 847.3046875 611.4375 C844.74519534 611.92316127 844.74519534 611.92316127 842 614 C839.29082713 614.71953301 836.61386428 615.35741728 833.875 615.9375 C833.07384766 616.11297363 832.27269531 616.28844727 831.44726562 616.46923828 C826.83913175 617.46018616 822.22982129 618.30980284 817.57470703 619.04467773 C809.21265758 620.37603251 801.50084682 622.64188954 793.51953125 625.4453125 C788.26157974 627.28759801 782.9268549 628.83118758 777.56835938 630.35107422 C774.80459521 631.14217126 772.14024319 631.93801163 769.5078125 633.1015625 C766.11175898 634.31821719 762.75659548 634.46106069 759.1875 634.625 C758.14819336 634.68300781 758.14819336 634.68300781 757.08789062 634.7421875 C755.39232985 634.83573568 753.69620288 634.91892364 752 635 C752 635.66 752 636.32 752 637 C751.41992188 637.12117187 750.83984375 637.24234375 750.2421875 637.3671875 C745.71184535 638.33904308 741.38244807 639.47955883 737 641 C734.39395259 641.78383442 731.78385766 642.5525992 729.171875 643.31640625 C726.98393702 643.94217718 726.98393702 643.94217718 725 645 C729.91955721 646.96782288 734.62007751 648.47368947 739.82421875 649.47265625 C742 650 742 650 744.3515625 650.98046875 C747.4466833 652.17195331 750.41885591 652.68904458 753.6875 653.25 C759.66050957 654.34574652 765.27318446 655.99122631 771 658 C777.85624909 660.40052857 784.50493621 662.04966018 791.66015625 663.35546875 C797.57824217 664.49755551 803.19762737 666.2363481 808.75 668.5625 C813.5113474 670.43406833 818.47875583 670.82897701 823.53515625 671.375 C827.37769013 672.068129 830.43641567 673.41790815 834 675 C836.76775543 675.91931796 839.56770057 676.71092976 842.375 677.5 C851.24746501 680.03809363 851.24746501 680.03809363 855.4375 681.5625 C860.52720795 683.31825197 865.80144489 684.3164464 871.05639648 685.44726562 C879.03347871 687.18238203 886.85627267 689.34147276 894.62890625 691.84765625 C900.47269504 693.71429183 906.23088932 694.75273748 912.3125 695.5703125 C915 696 915 696 917 697 C916.67 697.99 916.34 698.98 916 700 C914.02 700 912.04 700 910 700 C910 700.66 910 701.32 910 702 C909.41734375 702.10957031 908.8346875 702.21914063 908.234375 702.33203125 C903.40230232 703.26653587 898.59886331 704.29070425 893.8125 705.4375 C892.87019531 705.66308594 891.92789063 705.88867188 890.95703125 706.12109375 C887.90247189 706.95880548 887.90247189 706.95880548 884.75976562 708.44750977 C881.20597013 709.98780478 877.6794369 710.90079774 873.88671875 711.71875 C873.23226273 711.86276245 872.5778067 712.0067749 871.90351868 712.15515137 C869.83287939 712.61000184 867.76042946 713.05571431 865.6875 713.5 C857.02335485 715.37139821 848.45146493 717.29529923 840 720 C837.56618833 720.74249863 835.12776187 721.46619949 832.6875 722.1875 C831.53636719 722.53167969 830.38523437 722.87585938 829.19921875 723.23046875 C826.30861586 723.92576639 823.95212222 724.16062203 821 724 C821 724.66 821 725.32 821 726 C820.16597656 726.18175781 819.33195313 726.36351562 818.47265625 726.55078125 C813.2454529 727.71836963 808.10763075 728.87332627 803.0625 730.6875 C799.60567685 731.91205728 796.6993097 732.28456228 793 732 C793 732.66 793 733.32 793 734 C791.74703125 734.26554688 790.4940625 734.53109375 789.203125 734.8046875 C787.55202226 735.16117559 785.90098393 735.51796206 784.25 735.875 C783.425 736.04902344 782.6 736.22304688 781.75 736.40234375 C780.95078125 736.57636719 780.1515625 736.75039063 779.328125 736.9296875 C778.5949707 737.08679199 777.86181641 737.24389648 777.10644531 737.40576172 C774.89484099 738.02966586 773.04716192 738.96907025 771 740 C768.203125 740.4140625 768.203125 740.4140625 765.25 740.625 C764.26515625 740.69976563 763.2803125 740.77453125 762.265625 740.8515625 C761.51796875 740.90054688 760.7703125 740.94953125 760 741 C760 741.66 760 742.32 760 743 C755.15758367 744.33583899 751.06562383 745.25328119 746 745 C746 745.66 746 746.32 746 747 C743.45847565 747.47993156 740.91678778 747.95896727 738.375 748.4375 C737.66214844 748.57220703 736.94929687 748.70691406 736.21484375 748.84570312 C732.15004987 749.61018271 728.08285925 750.33669637 724 751 C724.92993038 753.41349729 724.92993038 753.41349729 728.4375 754.375 C733.87080439 756.10260076 739.429195 757.19753008 744.99975586 758.37841797 C749.97439104 759.46395971 754.6947383 760.81557493 759.5 762.5 C766.41169782 764.91208664 773.34932428 766.51586447 780.50390625 768.03125 C786.13570553 769.2253225 791.7075299 770.63633429 797.28515625 772.05859375 C799.70539642 772.67192485 802.12980155 773.26911848 804.55859375 773.84765625 C805.63238281 774.10417969 806.70617187 774.36070312 807.8125 774.625 C809.21435547 774.95371094 809.21435547 774.95371094 810.64453125 775.2890625 C813 776 813 776 816 778 C818.42063593 778.50092107 820.81126365 778.92839469 823.25 779.3125 C830.24470324 780.51429264 836.64920886 782.39675211 843.35546875 784.7421875 C853.13189921 788.11626103 863.17143734 790.57635758 873.203125 793.0546875 C876.62233491 793.90597227 880.03306795 794.77906347 883.4375 795.6875 C884.73494141 796.03361328 884.73494141 796.03361328 886.05859375 796.38671875 C888 797 888 797 889 798 C891.12765471 798.33139066 893.25634271 798.65731539 895.3894043 798.9519043 C903.19751911 800.03042161 910.00172821 801.17075695 917 805 C913.66946247 808.87148471 909.87141697 809.25777009 905 810 C901.9375 810.125 901.9375 810.125 900 810 C900 810.66 900 811.32 900 812 C899.31599121 812.15557373 898.63198242 812.31114746 897.92724609 812.47143555 C886.37233437 815.11874801 875.10141302 817.7528459 864.03515625 822.03125 C859.10366184 823.60526623 854.15095036 823.89622627 849 824 C849 824.66 849 825.32 849 826 C848.18378174 826.16604736 848.18378174 826.16604736 847.35107422 826.33544922 C844.85825433 826.84482619 842.3666365 827.35986694 839.875 827.875 C839.0190625 828.04902344 838.163125 828.22304688 837.28125 828.40234375 C833.64278871 829.15802417 830.15991285 829.94620101 826.6328125 831.1328125 C824 832 824 832 820 832 C820 832.66 820 833.32 820 834 C819.45214844 834.09796875 818.90429688 834.1959375 818.33984375 834.296875 C809.38396088 835.9861147 800.64019218 838.44030166 791.86230469 840.86767578 C789.54626495 841.50779886 787.22951424 842.14535435 784.91210938 842.78051758 C782.58117212 843.41940161 780.25169611 844.06364463 777.92382812 844.71362305 C776.84294922 845.00922119 775.76207031 845.30481934 774.6484375 845.609375 C773.19703369 846.0110791 773.19703369 846.0110791 771.71630859 846.42089844 C769.05425526 846.98843309 766.71199846 847.10978752 764 847 C764 847.66 764 848.32 764 849 C762.81664062 849.25394531 761.63328125 849.50789062 760.4140625 849.76953125 C750.34279317 851.90576279 750.34279317 851.90576279 740.4375 854.6875 C735.96667656 856.1181635 731.67463908 856.62301298 727 857 C727.33 857.99 727.66 858.98 728 860 C732.28253781 861.98265639 736.2255985 863.09499977 740.875 863.8125 C746.93985663 864.80923131 752.56630932 866.75789032 758.36010742 868.74829102 C764.18482389 870.74717895 770.03553122 872.46448877 776 874 C779.26859778 874.90794383 782.51944828 875.8479957 785.75390625 876.87109375 C792.38293078 878.96147327 799.03340852 880.79973317 805.78833008 882.42919922 C809.92790273 883.44119272 813.99405473 884.59002351 818.06201172 885.8581543 C826.42490461 888.46005316 834.77384157 890.19893205 843.42626953 891.56835938 C848.74878219 892.44265421 853.11955849 893.70868437 858 896 C859.50970548 896.51315112 861.03025295 896.99619092 862.5625 897.4375 C863.41199219 897.68371094 864.26148438 897.92992187 865.13671875 898.18359375 C866.08160156 898.45300781 867.02648437 898.72242188 868 899 C869.09957031 899.32097656 870.19914063 899.64195312 871.33203125 899.97265625 C877.98190612 901.90090001 884.63957661 903.70003887 891.37890625 905.2890625 C894 906 894 906 896.36328125 906.99609375 C900.33125129 908.5068616 904.47368816 909.08656206 908.6484375 909.76757812 C912.45353521 910.45630081 914.44214976 911.12932962 917 914 C910.54630014 916.64470616 904.13779989 918.17822613 897.3125 919.5625 C895.28691048 919.97633012 893.26213387 920.39416362 891.23828125 920.81640625 C890.35180908 920.99631104 889.46533691 921.17621582 888.55200195 921.36157227 C885.91054216 922.02237944 883.51112591 922.95548836 881 924 C879.55024077 924.36884334 878.09127942 924.70356806 876.625 925 C871.31383826 926.13246259 866.18424347 927.51422199 861.125 929.5 C857.49952396 930.90363761 853.89384398 931.75206184 850.078125 932.47265625 C847.98609778 932.91590463 847.98609778 932.91590463 846.19921875 933.95703125 C843.11134476 935.42144041 839.89560982 935.98639831 836.5625 936.625 C835.90701172 936.7590625 835.25152344 936.893125 834.57617188 937.03125 C831.00225146 937.73384619 827.64175979 938.15437132 824 938 C824 938.66 824 939.32 824 940 C823.09378906 940.18175781 822.18757812 940.36351562 821.25390625 940.55078125 C813.14472286 942.1942866 813.14472286 942.1942866 805.25 944.625 C800.58376864 946.30343727 795.92582666 946.70177667 791 947 C791 947.66 791 948.32 791 949 C789.80503906 949.25394531 788.61007812 949.50789062 787.37890625 949.76953125 C785.77338082 950.11692564 784.16791525 950.46459677 782.5625 950.8125 C781.3878418 951.0609668 781.3878418 951.0609668 780.18945312 951.31445312 C776.30661744 952.16132675 772.54331963 953.10571457 768.7890625 954.4140625 C762.57949987 956.5599494 756.19113469 958.01202163 749.8125 959.5625 C747.3393016 960.16575036 744.86662492 960.7711446 742.39453125 961.37890625 C741.31018799 961.6426001 740.22584473 961.90629395 739.10864258 962.17797852 C735.96825131 962.96527818 735.96825131 962.96527818 732.8503418 964.10131836 C730 965 730 965 726 965 C726 965.66 726 966.32 726 967 C486.42 967 246.84 967 0 967 C0 647.89 0 328.78 0 0 Z " fill="#FEFEFE" transform="translate(0,0)"/>
<path d="M0 0 C2.31 0 4.62 0 7 0 C7.495 1.98 7.495 1.98 8 4 C1.07038118 6.23746313 -5.75251272 8.26738939 -12.921875 9.5625 C-15.15698647 9.96800121 -15.15698647 9.96800121 -17.75 11.125 C-20.58379506 12.22703141 -22.98781792 12.14010149 -26 12 C-22.97548523 9.43285952 -20.55609202 8.43422054 -16.68359375 7.6484375 C-15.16668945 7.33132813 -15.16668945 7.33132813 -13.61914062 7.0078125 C-12.56919922 6.79898437 -11.51925781 6.59015625 -10.4375 6.375 C-8.35261077 5.9465457 -6.26796363 5.51691123 -4.18359375 5.0859375 C-3.26118896 4.9007959 -2.33878418 4.7156543 -1.38842773 4.52490234 C1.12810593 4.01575661 1.12810593 4.01575661 4 3 C2.68 2.01 1.36 1.02 0 0 Z " fill="#B2617A" transform="translate(910,481)"/>
<path d="M0 0 C0.33 0.66 0.66 1.32 1 2 C5.35069722 3.93364321 9.36708504 5.13103291 14.0625 5.875 C21.30777892 7.05873571 28.10047603 9.5604922 35 12 C31.72814447 13.07310858 29.57052408 12.89263102 26.25 12.0625 C25.45078125 11.86785156 24.6515625 11.67320312 23.828125 11.47265625 C23.22484375 11.31667969 22.6215625 11.16070313 22 11 C22 10.34 22 9.68 22 9 C21.04738281 8.86722656 20.09476563 8.73445312 19.11328125 8.59765625 C17.85902344 8.42105469 16.60476563 8.24445312 15.3125 8.0625 C14.07113281 7.88847656 12.82976563 7.71445312 11.55078125 7.53515625 C8.67525452 7.10177103 5.84355187 6.60350718 3 6 C3 5.34 3 4.68 3 4 C2.030625 3.87625 1.06125 3.7525 0.0625 3.625 C-0.948125 3.41875 -1.95875 3.2125 -3 3 C-3.33 2.34 -3.66 1.68 -4 1 C-2 0 -2 0 0 0 Z " fill="#CF9DAD" transform="translate(727,858)"/>
<path d="M0 0 C-1.725227 0.67679658 -3.45538939 1.34102 -5.1875 2 C-6.15042969 2.37125 -7.11335937 2.7425 -8.10546875 3.125 C-10.92182358 3.97636772 -13.08164439 4.17072647 -16 4 C-13.64722731 6.72426311 -11.37503669 7.8141763 -8 9 C-11.27185553 10.07310858 -13.42947592 9.89263102 -16.75 9.0625 C-17.94882812 8.77052734 -17.94882812 8.77052734 -19.171875 8.47265625 C-19.77515625 8.31667969 -20.3784375 8.16070312 -21 8 C-21.33 6.68 -21.66 5.36 -22 4 C-5.6804001 -1.78709216 -5.6804001 -1.78709216 0 0 Z " fill="#CE9CAB" transform="translate(745,102)"/>
<path d="M0 0 C1.175625 -0.061875 2.35125 -0.12375 3.5625 -0.1875 C4.55443359 -0.23970703 4.55443359 -0.23970703 5.56640625 -0.29296875 C8.2882573 0.03470192 10.39997363 1.01146497 12.87915039 2.13793945 C17.25605547 3.9170176 21.87573559 4.98547359 26.4375 6.1875 C27.96407227 6.59645508 27.96407227 6.59645508 29.52148438 7.01367188 C32.01311951 7.68044748 34.50592482 8.34242178 37 9 C32.4613947 10.22012552 28.59589585 9.96405772 24 9 C22.33333333 8 20.66666667 7 19 6 C17.50682866 5.78041598 16.00454945 5.61878022 14.5 5.5 C10.56540538 5.18731698 8.31456334 4.20970889 5 2 C2.30745009 1.29329272 2.30745009 1.29329272 0 1 C0 0.67 0 0.34 0 0 Z " fill="#C18195" transform="translate(779,16)"/>
<path d="M0 0 C-4.455 0.495 -4.455 0.495 -9 1 C-9 1.66 -9 2.32 -9 3 C-10.87945313 3.39832031 -10.87945313 3.39832031 -12.796875 3.8046875 C-14.44797774 4.16117559 -16.09901607 4.51796206 -17.75 4.875 C-18.575 5.04902344 -19.4 5.22304688 -20.25 5.40234375 C-21.04921875 5.57636719 -21.8484375 5.75039063 -22.671875 5.9296875 C-23.4050293 6.08679199 -24.13818359 6.24389648 -24.89355469 6.40576172 C-27.04794681 6.93879785 -27.04794681 6.93879785 -29.06738281 8.05908203 C-31.74373486 9.36209628 -34.0684612 9.13325176 -37 9 C-34.1443835 6.60787548 -32.00100855 5.54082013 -28.33984375 4.90234375 C-27.0259668 4.65967773 -27.0259668 4.65967773 -25.68554688 4.41210938 C-24.77869141 4.25548828 -23.87183594 4.09886719 -22.9375 3.9375 C-21.13300576 3.61951057 -19.32955323 3.29553657 -17.52734375 2.96484375 C-16.73062256 2.8268335 -15.93390137 2.68882324 -15.11303711 2.54663086 C-12.7208983 2.05127965 -12.7208983 2.05127965 -10 0 C-6.01487744 -0.93268826 -4.05281107 -1.01320277 0 0 Z " fill="#D3A7B5" transform="translate(802,731)"/>
<path d="M0 0 C-4.84241633 1.33583899 -8.93437617 2.25328119 -14 2 C-14 2.66 -14 3.32 -14 4 C-20.6 5.32 -27.2 6.64 -34 8 C-34 7.34 -34 6.68 -34 6 C-33.04738281 5.80664062 -32.09476563 5.61328125 -31.11328125 5.4140625 C-29.23189453 5.02347656 -29.23189453 5.02347656 -27.3125 4.625 C-25.45044922 4.24214844 -25.45044922 4.24214844 -23.55078125 3.8515625 C-20.51001832 3.12231462 -17.88190976 2.17254171 -15 1 C-13.15747735 0.55309025 -11.30182009 0.15736032 -9.4375 -0.1875 C-8.50808594 -0.36667969 -7.57867188 -0.54585938 -6.62109375 -0.73046875 C-4.06990728 -0.99281132 -2.41218232 -0.80027696 0 0 Z " fill="#D5ABB8" transform="translate(834,293)"/>
<path d="M0 0 C5.43846321 0.50356141 10.27475482 1.59361461 15.4765625 3.2421875 C17.90995986 3.97296008 20.32657672 4.54219048 22.8125 5.0625 C26.04065604 5.74361803 28.98013588 6.6361904 32 8 C28.2792812 9.378044 26.56987148 8.50727907 23 7 C20.67174332 6.43410428 18.33614173 5.94230781 15.98828125 5.46484375 C14 5 14 5 12 4 C9.73234399 3.76764056 7.46638586 3.61898297 5.19140625 3.4765625 C2.60074516 2.91317453 1.67020423 2.00854143 0 0 Z " fill="#CA93A4" transform="translate(783,232)"/>
<path d="M0 0 C3.3 0.33 6.6 0.66 10 1 C10 1.66 10 2.32 10 3 C11.093125 2.938125 12.18625 2.87625 13.3125 2.8125 C18.72530073 2.80279964 23.95567885 4.06737784 29 6 C29.33 6.66 29.66 7.32 30 8 C28.22844346 7.88570603 26.45773771 7.75816963 24.6875 7.625 C23.70136719 7.55539063 22.71523438 7.48578125 21.69921875 7.4140625 C19 7 19 7 16 5 C13.67085177 4.63858045 11.33746522 4.30300475 9 4 C8.67 3.67 8.34 3.34 8 3 C6.845 2.855625 5.69 2.71125 4.5 2.5625 C3.345 2.376875 2.19 2.19125 1 2 C0.67 1.34 0.34 0.68 0 0 Z " fill="#CF9DAD" transform="translate(869,41)"/>
<path d="M0 0 C-4.84241633 1.33583899 -8.93437617 2.25328119 -14 2 C-14 2.66 -14 3.32 -14 4 C-18.84241633 5.33583899 -22.93437617 6.25328119 -28 6 C-25.16963138 3.64297499 -22.9797371 2.51752887 -19.375 1.796875 C-18.50359375 1.6215625 -17.6321875 1.44625 -16.734375 1.265625 C-15.83203125 1.09546875 -14.9296875 0.9253125 -14 0.75 C-12.64648438 0.4715625 -12.64648438 0.4715625 -11.265625 0.1875 C-3.92990532 -1.24491864 -3.92990532 -1.24491864 0 0 Z " fill="#CD9AAA" transform="translate(760,743)"/>
<path d="M0 0 C-1.98 0.99 -1.98 0.99 -4 2 C1.62470514 5.06802099 6.69403048 6.89061647 13 8 C5.42279444 10.36681252 -2.24387945 6.29021474 -9 3 C-5.83583464 -0.30799106 -4.50236011 -1.35070803 0 0 Z " fill="#B56981" transform="translate(734,535)"/>
<path d="M0 0 C-0.71285156 0.19335938 -1.42570313 0.38671875 -2.16015625 0.5859375 C-3.11792969 0.84632813 -4.07570313 1.10671875 -5.0625 1.375 C-6.57650391 1.78492188 -6.57650391 1.78492188 -8.12109375 2.203125 C-10.29980964 2.80618883 -12.46594472 3.45494836 -14.625 4.125 C-18.73152016 5.18965338 -22.78138053 5.63649084 -27 6 C-23.17293728 2.30050603 -18.53416461 1.75227712 -13.5 0.75 C-12.64535156 0.564375 -11.79070313 0.37875 -10.91015625 0.1875 C-3.95851223 -1.2440398 -3.95851223 -1.2440398 0 0 Z " fill="#BD788E" transform="translate(845,505)"/>
<path d="M0 0 C-3.84208524 2.56139016 -7.47278786 3.20985157 -11.9375 4.1875 C-12.74896484 4.37763672 -13.56042969 4.56777344 -14.39648438 4.76367188 C-15.18216797 4.93833984 -15.96785156 5.11300781 -16.77734375 5.29296875 C-17.84843384 5.53309692 -17.84843384 5.53309692 -18.94116211 5.77807617 C-21.21383485 6.02304943 -22.83235338 5.67946622 -25 5 C-20.33072495 2.22367429 -15.93472285 1.28369524 -10.5859375 0.4296875 C-8.04890223 0.04991801 -8.04890223 0.04991801 -5.8046875 -0.58203125 C-3.58649831 -1.09576771 -2.14259564 -0.68869146 0 0 Z " fill="#BC768C" transform="translate(845,612)"/>
<path d="M0 0 C-1.98 0.66 -3.96 1.32 -6 2 C-3.03 2.495 -3.03 2.495 0 3 C0 3.66 0 4.32 0 5 C2.31 5.33 4.62 5.66 7 6 C3.81815261 7.0219601 1.67756672 6.94954615 -1.5625 6.1875 C-2.32691406 6.01605469 -3.09132813 5.84460938 -3.87890625 5.66796875 C-6 5 -6 5 -9 3 C-9 2.01 -9 1.02 -9 0 C-5.62182575 -0.84454356 -3.32534757 -1.10844919 0 0 Z " fill="#B66981" transform="translate(734,428)"/>
<path d="M0 0 C5.43105547 0.50287551 10.26152461 1.59114499 15.45703125 3.234375 C19.26268113 4.38016206 23.11138331 5.18464489 27 6 C23.78067606 7.04370776 21.64643321 6.92371112 18.375 6.125 C17.59898437 5.94195312 16.82296875 5.75890625 16.0234375 5.5703125 C14 5 14 5 12 4 C9.73234399 3.76764056 7.46638586 3.61898297 5.19140625 3.4765625 C2.60074516 2.91317453 1.67020423 2.00854143 0 0 Z " fill="#CA92A4" transform="translate(816,241)"/>
<path d="M0 0 C-4.84241633 1.33583899 -8.93437617 2.25328119 -14 2 C-14 2.66 -14 3.32 -14 4 C-17.3 4.66 -20.6 5.32 -24 6 C-22.55978216 3.11956431 -20.37218192 2.76434595 -17.4609375 1.734375 C-5.55732106 -1.8178153 -5.55732106 -1.8178153 0 0 Z " fill="#CE9BAB" transform="translate(867,284)"/>
<path d="M0 0 C2.0000848 0.33282416 4.00006016 0.66630592 6 1 C6.96365479 1.1561377 6.96365479 1.1561377 7.94677734 1.31542969 C10.02925999 1.65642685 12.10827236 2.0147283 14.1875 2.375 C14.89841797 2.4884375 15.60933594 2.601875 16.34179688 2.71875 C22.71858279 3.84653528 22.71858279 3.84653528 25 7 C20.26076422 6.06753373 15.53488757 5.07632463 10.8125 4.0625 C9.99330078 3.89298828 9.17410156 3.72347656 8.33007812 3.54882812 C7.54697266 3.37931641 6.76386719 3.20980469 5.95703125 3.03515625 C5.24522705 2.8844165 4.53342285 2.73367676 3.80004883 2.57836914 C2 2 2 2 0 0 Z " fill="#BC758B" transform="translate(861,253)"/>
<path d="M0 0 C-2.7055112 0.84358924 -5.41380543 1.67504771 -8.125 2.5 C-8.88554688 2.73847656 -9.64609375 2.97695312 -10.4296875 3.22265625 C-14.74974618 4.52612223 -18.43306391 5.291817 -23 5 C-23 4.67 -23 4.34 -23 4 C-21.35 4 -19.7 4 -18 4 C-18 3.34 -18 2.68 -18 2 C-15.75256955 1.46818825 -13.50192898 0.94992874 -11.25 0.4375 C-9.99703125 0.14746094 -8.7440625 -0.14257812 -7.453125 -0.44140625 C-4.2695502 -0.95639629 -2.95491854 -0.88590949 0 0 Z " fill="#AE5873" transform="translate(892,63)"/>
<path d="M0 0 C7.36398184 0.48425277 12.77622041 1.85081361 19 6 C11.97047248 5.5464821 6.4150557 3.87940913 0 1 C0 0.67 0 0.34 0 0 Z " fill="#CD99A9" transform="translate(842,892)"/>
<path d="M0 0 C2.9375 0.375 2.9375 0.375 6 1 C6.33 1.66 6.66 2.32 7 3 C2.07015675 5.03993514 -1.57960425 6.40652968 -7 6 C-6.67 5.34 -6.34 4.68 -6 4 C-3.93359375 3.5859375 -3.93359375 3.5859375 -1.4375 3.375 C-0.61121094 3.30023437 0.21507812 3.22546875 1.06640625 3.1484375 C2.02353516 3.07496094 2.02353516 3.07496094 3 3 C3 2.34 3 1.68 3 1 C2.01 0.67 1.02 0.34 0 0 Z " fill="#D9B2BE" transform="translate(910,911)"/>
<path d="M0 0 C-0.66 0.66 -1.32 1.32 -2 2 C0.91765 3.9451 2.62537285 4.45276317 6 5 C6 5.33 6 5.66 6 6 C0.33557626 5.63495936 -4.00703705 4.9445679 -9 2 C-4.13793103 -1.24137931 -4.13793103 -1.24137931 0 0 Z " fill="#AD5772" transform="translate(733,643)"/>
<path d="M0 0 C4.86896303 0.59619955 9.32790951 1.56976822 14 3 C13.67 3.99 13.34 4.98 13 6 C10.69 6.33 8.38 6.66 6 7 C6.66 6.01 7.32 5.02 8 4 C5.36 3.01 2.72 2.02 0 1 C0 0.67 0 0.34 0 0 Z " fill="#C08094" transform="translate(904,157)"/>
<path d="M0 0 C-2.03814233 0.67736481 -4.08070555 1.34143534 -6.125 2 C-7.83042969 2.556875 -7.83042969 2.556875 -9.5703125 3.125 C-12.87895941 3.96911949 -15.60528016 4.16509276 -19 4 C-18.67 3.34 -18.34 2.68 -18 2 C-14.98046875 1.11328125 -14.98046875 1.11328125 -11.1875 0.3125 C-9.94355469 0.04050781 -8.69960938 -0.23148437 -7.41796875 -0.51171875 C-4.41522875 -0.94068161 -2.7837478 -1.04478192 0 0 Z " fill="#B2627B" transform="translate(789,91)"/>
<path d="M0 0 C5.00890086 0.61512818 10.00632136 1.2717552 15 2 C15 2.66 15 3.32 15 4 C17.97 4.495 17.97 4.495 21 5 C19.25 5.625 19.25 5.625 17 6 C16.39800781 5.68675781 15.79601562 5.37351562 15.17578125 5.05078125 C11.9686075 3.50189482 8.85531774 3.60528549 5.33984375 3.44140625 C2.62019557 2.92835075 1.71881342 2.11329519 0 0 Z " fill="#BD798F" transform="translate(842,33)"/>
<path d="M0 0 C6.63093294 0.34773428 12.053928 0.96089654 18 4 C13.96780985 5.61287606 10.99975363 4.28805625 7 3 C5.68895351 2.61994956 4.37649503 2.24472735 3.0625 1.875 C2.051875 1.58625 1.04125 1.2975 0 1 C0 0.67 0 0.34 0 0 Z " fill="#C28296" transform="translate(823,28)"/>
<path d="M0 0 C6.75 0.875 6.75 0.875 9 2 C8.67 2.99 8.34 3.98 8 5 C6.02 5 4.04 5 2 5 C2 5.66 2 6.32 2 7 C0.68 6.67 -0.64 6.34 -2 6 C0.31 5.01 2.62 4.02 5 3 C2.525 2.01 2.525 2.01 0 1 C0 0.67 0 0.34 0 0 Z " fill="#C890A1" transform="translate(908,695)"/>
<path d="M0 0 C-2.24623699 0.69969682 -4.49716414 1.38435043 -6.75 2.0625 C-8.00296875 2.44535156 -9.2559375 2.82820312 -10.546875 3.22265625 C-13.6738008 3.92656828 -15.09466046 4.16653785 -18 3 C-14.93344745 0.95563163 -13.12890332 0.45609789 -9.5625 -0.1875 C-8.61503906 -0.36667969 -7.66757812 -0.54585937 -6.69140625 -0.73046875 C-4.10788261 -0.98919608 -2.43945237 -0.81315079 0 0 Z " fill="#CC97A7" transform="translate(887,708)"/>
<path d="M0 0 C-11.52164009 4.59225513 -11.52164009 4.59225513 -17 4 C-12.54893918 -0.25753644 -5.84870929 -1.86095295 0 0 Z " fill="#CD9AAA" transform="translate(901,489)"/>
<path d="M0 0 C-11.52164009 4.59225513 -11.52164009 4.59225513 -17 4 C-12.54893918 -0.25753644 -5.84870929 -1.86095295 0 0 Z " fill="#CA92A3" transform="translate(808,407)"/>
<path d="M0 0 C5.52706913 0.72724594 10.69960141 2.33445973 16 4 C12.01001876 5.14373642 9.0827922 4.93116313 5 4 C2.0625 1.9375 2.0625 1.9375 0 0 Z " fill="#CA93A4" transform="translate(824,350)"/>
<path d="M0 0 C-3.3 0.66 -6.6 1.32 -10 2 C-10 2.66 -10 3.32 -10 4 C-12.64 4 -15.28 4 -18 4 C-15.06836714 2.44596314 -12.16634776 1.30198368 -9 0.3125 C-8.154375 0.04050781 -7.30875 -0.23148437 -6.4375 -0.51171875 C-4 -1 -4 -1 0 0 Z " fill="#BF7B90" transform="translate(846,397)"/>
<path d="M0 0 C-5.36439644 2.68219822 -9.01006953 3.3152595 -15 3 C-12.74829688 0.74829688 -11.67012422 0.48526 -8.625 -0.1875 C-7.85414063 -0.36667969 -7.08328125 -0.54585938 -6.2890625 -0.73046875 C-3.88917728 -1.01304909 -2.28329465 -0.73503321 0 0 Z " fill="#B56880" transform="translate(817,83)"/>
<path d="M0 0 C-4.62197306 2.21854707 -7.76824163 3.38281159 -13 3 C-12.67 2.34 -12.34 1.68 -12 1 C-4.35711773 -1.38056989 -4.35711773 -1.38056989 0 0 Z " fill="#AE5974" transform="translate(802,87)"/>
<path d="M0 0 C1.65 0.33 3.3 0.66 5 1 C4 3 4 3 1.56640625 3.88671875 C0.57511719 4.15097656 -0.41617188 4.41523438 -1.4375 4.6875 C-2.42621094 4.95949219 -3.41492188 5.23148437 -4.43359375 5.51171875 C-7 6 -7 6 -9 5 C-5.62902617 3.50178941 -3.79557881 3 0 3 C0 2.01 0 1.02 0 0 Z " fill="#ECDAE0" transform="translate(910,482)"/>
<path d="M0 0 C5.50808397 0.59015185 10.64878069 1.56663769 16 3 C12.98849505 3.90550946 10.56229013 4.06723758 7.4375 3.75 C6.67308594 3.68296875 5.90867187 3.6159375 5.12109375 3.546875 C2.62397824 2.90305148 1.63879998 1.94771116 0 0 Z " fill="#D3A6B4" transform="translate(800,22)"/>
<path d="M0 0 C-4.92984325 2.03993514 -8.57960425 3.40652968 -14 3 C-9.66308049 -0.83650572 -5.49610097 -1.56354597 0 0 Z " fill="#C991A2" transform="translate(775,631)"/>
<path d="M0 0 C-4.92984325 2.03993514 -8.57960425 3.40652968 -14 3 C-9.66308049 -0.83650572 -5.49610097 -1.56354597 0 0 Z " fill="#C28397" transform="translate(818,512)"/>
<path d="M0 0 C-4.62197306 2.21854707 -7.76824163 3.38281159 -13 3 C-8.86938013 -0.51867619 -5.24994789 -1.74998263 0 0 Z " fill="#D3A6B4" transform="translate(851,932)"/>
<path d="M0 0 C2.31 0.33 4.62 0.66 7 1 C7 1.99 7 2.98 7 4 C2.545 4.495 2.545 4.495 -2 5 C-2 4.67 -2 4.34 -2 4 C-0.35 4 1.3 4 3 4 C3 3.01 3 2.02 3 1 C2.01 0.67 1.02 0.34 0 0 Z " fill="#C28497" transform="translate(910,374)"/>
<path d="M0 0 C5.11476819 -0.63934602 8.67254378 1.59466453 13 4 C10.44855176 4.93045933 9.25993522 5.08564091 6.640625 4.22265625 C5.85171875 3.83980469 5.0628125 3.45695312 4.25 3.0625 C3.45078125 2.68222656 2.6515625 2.30195312 1.828125 1.91015625 C1.22484375 1.60980469 0.6215625 1.30945313 0 1 C0 0.67 0 0.34 0 0 Z " fill="#B05D77" transform="translate(724,107)"/>
<path d="M0 0 C2.31 0 4.62 0 7 0 C7 0.66 7 1.32 7 2 C8.65 2.33 10.3 2.66 12 3 C8.69564916 4.12377697 6.9493138 3.89554742 3.75 2.5625 C3.04359375 2.27503906 2.3371875 1.98757812 1.609375 1.69140625 C1.07828125 1.46324219 0.5471875 1.23507813 0 1 C0 0.67 0 0.34 0 0 Z " fill="#A84D6A" transform="translate(724,0)"/>
<path d="M0 0 C-1.24420647 0.5345256 -2.49570936 1.05208611 -3.75 1.5625 C-4.44609375 1.85253906 -5.1421875 2.14257812 -5.859375 2.44140625 C-8.30012784 3.07831803 -9.6403655 2.80248831 -12 2 C-7.75950782 -0.82699479 -4.85416215 -1.37070821 0 0 Z " fill="#DCB8C3" transform="translate(865,928)"/>
<path d="M0 0 C-1 2 -1 2 -4.3125 3.1875 C-7.57562063 3.90649268 -8.99282882 4.20286847 -12 3 C-7.77050005 0.58314288 -4.87664009 -0.34833144 0 0 Z " fill="#D5A9B7" transform="translate(832,614)"/>
<path d="M0 0 C2.64 0 5.28 0 8 0 C8 0.66 8 1.32 8 2 C9.65 2.33 11.3 2.66 13 3 C9.57056481 4.18771723 7.62215325 3.80226223 4.25 2.5625 C3.45078125 2.27503906 2.6515625 1.98757813 1.828125 1.69140625 C1.22484375 1.46324219 0.6215625 1.23507812 0 1 C0 0.67 0 0.34 0 0 Z " fill="#BB758B" transform="translate(798,558)"/>
<path d="M0 0 C-3.03525486 2.02350324 -4.19426202 2.32124018 -7.6875 2.625 C-8.49574219 2.69976562 -9.30398438 2.77453125 -10.13671875 2.8515625 C-10.75160156 2.90054687 -11.36648438 2.94953125 -12 3 C-7.91789166 -0.35316042 -5.14839074 -1.65483988 0 0 Z " fill="#AF5A74" transform="translate(828,402)"/>
<path d="M0 0 C1.8141927 0.28094582 3.62635001 0.57506433 5.4375 0.875 C6.95150391 1.11863281 6.95150391 1.11863281 8.49609375 1.3671875 C9.32238281 1.57601562 10.14867187 1.78484375 11 2 C11.33 2.66 11.66 3.32 12 4 C7.12335991 4.34833144 4.22949995 3.41685712 0 1 C0 0.67 0 0.34 0 0 Z " fill="#D9B2BE" transform="translate(756,117)"/>
<path d="M0 0 C1.258125 0.12375 2.51625 0.2475 3.8125 0.375 C4.87404297 0.47941406 4.87404297 0.47941406 5.95703125 0.5859375 C8 1 8 1 11 3 C3.49230769 3.36923077 3.49230769 3.36923077 1 1.5 C0.67 1.005 0.34 0.51 0 0 Z " fill="#D6ADBA" transform="translate(849,250)"/>
<path d="M0 0 C1.65 0 3.3 0 5 0 C4.34 0.66 3.68 1.32 3 2 C3.33 2.66 3.66 3.32 4 4 C2.35 4 0.7 4 -1 4 C-0.67 2.68 -0.34 1.36 0 0 Z " fill="#DBB7C2" transform="translate(723,535)"/>
<path d="M0 0 C-3.6441774 2.4294516 -5.71241272 2.16179575 -10 2 C-6.80505194 -1.19494806 -4.22040044 -1.35655728 0 0 Z " fill="#B05D77" transform="translate(769,96)"/>
</svg>
