<?xml version="1.0" encoding="UTF-8"?>
<svg version="1.1" xmlns="http://www.w3.org/2000/svg" width="1920" height="1280">
<path d="M0 0 C633.6 0 1267.2 0 1920 0 C1920 422.4 1920 844.8 1920 1280 C1286.4 1280 652.8 1280 0 1280 C0 857.6 0 435.2 0 0 Z " fill="#007B3A" transform="translate(0,0)"/>
<path d="M0 0 C633.6 0 1267.2 0 1920 0 C1920 140.91 1920 281.82 1920 427 C1286.4 427 652.8 427 0 427 C0 286.09 0 145.18 0 0 Z " fill="#000000" transform="translate(0,853)"/>
<path d="M0 0 C633.6 0 1267.2 0 1920 0 C1920 140.58 1920 281.16 1920 426 C1286.4 426 652.8 426 0 426 C0 285.42 0 144.84 0 0 Z " fill="#FEFEFE" transform="translate(0,427)"/>
<path d="M0 0 C0.66 0 1.32 0 2 0 C9.03229351 20.83841343 15.86957017 41.73158626 22.51641846 62.69622803 C25.74632615 72.88187121 28.9895565 83.06009737 32.3984375 93.1875 C32.79134224 94.35560966 32.79134224 94.35560966 33.19218445 95.5473175 C34.40202141 99.13686231 35.62075972 102.72309558 36.85180664 106.30541992 C37.27067139 107.53881104 37.68953613 108.77220215 38.12109375 110.04296875 C38.4864624 111.10539795 38.85183105 112.16782715 39.22827148 113.26245117 C40 116 40 116 40 120 C82.57 120 125.14 120 169 120 C165.75387099 123.24612901 162.60100228 125.84263402 158.875 128.4375 C157.61552157 129.32630756 156.35642559 130.21565724 155.09765625 131.10546875 C154.43137207 131.5751709 153.76508789 132.04487305 153.07861328 132.52880859 C149.47381282 135.08019779 145.89268137 137.6642267 142.3125 140.25 C141.18110596 141.06682251 141.18110596 141.06682251 140.02685547 141.90014648 C133.69149731 146.48264665 127.39789341 151.12055761 121.10888672 155.76635742 C113.53412093 161.35637027 105.90494787 166.86919688 98.26464844 172.36914062 C94.36136792 175.18004121 90.46195455 177.99629537 86.5625 180.8125 C85.81492432 181.35229492 85.06734863 181.89208984 84.29711914 182.44824219 C78.5221355 186.61945684 72.75639489 190.80315703 67 195 C67.6169796 200.36416051 68.85585989 205.22297766 70.51953125 210.3515625 C70.77394485 211.15089203 71.02835846 211.95022156 71.29048157 212.77377319 C72.12565581 215.39264313 72.96890226 218.0088325 73.8125 220.625 C74.4019202 222.46602094 74.99094447 224.30716867 75.57958984 226.1484375 C77.08842023 230.86199661 78.60468502 235.5731241 80.1239624 240.2833252 C80.95445012 242.85874553 81.78341658 245.43464963 82.61181641 248.01074219 C84.11227948 252.67510162 85.61721273 257.33800331 87.125 262 C87.36702148 262.74879425 87.60904297 263.4975885 87.85839844 264.26907349 C90.58723696 272.7023094 93.36649316 281.11554638 96.23046875 289.50390625 C96.75319305 291.04228353 97.27581848 292.58069441 97.79833984 294.11914062 C98.78279577 297.0166656 99.7810387 299.90891789 100.78759766 302.79882812 C101.22998572 304.09618598 101.67190728 305.39370304 102.11328125 306.69140625 C102.69783081 308.38052124 102.69783081 308.38052124 103.29418945 310.10375977 C103.98856269 312.95306787 104.03723304 314.30466941 103 317 C93.79643084 310.38301136 84.6162573 303.73691036 75.5 297 C66.38253249 290.26444757 57.20059208 283.62136346 48 277 C37.0564393 269.12427936 26.15195938 261.19938785 15.3046875 253.19140625 C14.58764648 252.66691895 13.87060547 252.14243164 13.13183594 251.60205078 C11.67708829 250.50882425 10.24850727 249.38011213 8.84472656 248.22216797 C8.15604492 247.66287598 7.46736328 247.10358398 6.7578125 246.52734375 C6.15340332 246.0180835 5.54899414 245.50882324 4.92626953 244.98413086 C2.99006071 243.78611879 2.99006071 243.78611879 0.51586914 244.1730957 C-2.1128675 245.03709677 -3.81642638 246.03283492 -6.01171875 247.703125 C-6.7601001 248.26459229 -7.50848145 248.82605957 -8.27954102 249.40454102 C-9.07416748 250.01354248 -9.86879395 250.62254395 -10.6875 251.25 C-12.39781262 252.53598773 -14.10876522 253.8211247 -15.8203125 255.10546875 C-16.6855957 255.75821777 -17.55087891 256.4109668 -18.44238281 257.08349609 C-22.28030412 259.9593726 -26.16817728 262.76372396 -30.0625 265.5625 C-31.55469653 266.6380083 -33.04688402 267.71352915 -34.5390625 268.7890625 C-36.76903289 270.394446 -38.99926236 271.99946914 -41.22949219 273.60449219 C-49.68593528 279.69239105 -58.11863578 285.809025 -66.5 292 C-72.8799814 296.70940943 -79.2699237 301.4044092 -85.6875 306.0625 C-86.40550781 306.58650391 -87.12351562 307.11050781 -87.86328125 307.65039062 C-92.45629152 310.97473233 -97.15350594 314.05768867 -102 317 C-101.36528623 310.62059817 -99.48225702 304.8610849 -97.45703125 298.796875 C-97.09656204 297.70166534 -96.73609283 296.60645569 -96.36470032 295.47805786 C-95.18591999 291.90026979 -93.99915203 288.32518406 -92.8125 284.75 C-91.99593049 282.27511722 -91.18001809 279.80001754 -90.36474609 277.32470703 C-88.71071744 272.30395105 -87.0542506 267.2840102 -85.39599609 262.26464844 C-82.24431374 252.71758721 -79.1236628 243.16048555 -76.01229858 233.60021973 C-75.14862369 230.94755704 -74.28307681 228.29551118 -73.41723633 225.64355469 C-72.15800593 221.78456264 -70.91067684 217.92187374 -69.66809082 214.05749512 C-69.02420221 212.07453468 -68.36318392 210.09805357 -67.69824219 208.12207031 C-67.32086914 206.97061523 -66.94349609 205.81916016 -66.5546875 204.6328125 C-66.22710449 203.6545752 -65.89952148 202.67633789 -65.56201172 201.66845703 C-64.93449961 198.6890012 -65.04822353 196.88210102 -66 194 C-67.96242128 192.2771943 -69.77052912 190.91407793 -71.9375 189.5 C-73.22466717 188.62082855 -74.51109005 187.74056671 -75.796875 186.859375 C-76.48201172 186.39595703 -77.16714844 185.93253906 -77.87304688 185.45507812 C-81.52713884 182.95526314 -85.10391447 180.34940274 -88.6875 177.75 C-89.441521 177.20537109 -90.19554199 176.66074219 -90.97241211 176.09960938 C-97.30889534 171.51840867 -103.60199073 166.87952798 -109.89111328 162.23364258 C-117.4701364 156.64048791 -125.10381679 151.12492783 -132.74853516 145.62207031 C-135.04634996 143.96660712 -137.34188876 142.30803543 -139.63671875 140.6484375 C-140.78442749 139.81856323 -140.78442749 139.81856323 -141.95532227 138.97192383 C-143.46769173 137.87823564 -144.97990258 136.78432809 -146.49194336 135.69018555 C-150.06367413 133.1086454 -153.64289148 130.53909287 -157.2421875 127.99609375 C-157.89928711 127.53098389 -158.55638672 127.06587402 -159.23339844 126.58666992 C-160.46636152 125.71541632 -161.70129877 124.84694775 -162.93847656 123.98168945 C-164.30990745 123.01220846 -165.65795608 122.00976938 -167 121 C-167 120.67 -167 120.34 -167 120 C-124.43 120 -81.86 120 -38 120 C-37.67 117.69 -37.34 115.38 -37 113 C-36.4152346 110.90246765 -35.77600777 108.81951499 -35.08911133 106.75317383 C-34.69345978 105.55288544 -34.29780823 104.35259705 -33.89016724 103.11593628 C-33.4541812 101.81294809 -33.01813407 100.50998035 -32.58203125 99.20703125 C-32.12734464 97.83361507 -31.67324614 96.46000407 -31.21969604 95.08621216 C-30.25603764 92.1704944 -29.28901382 89.25592521 -28.31918335 86.34225464 C-26.04873804 79.52029651 -23.79514433 72.69276901 -21.54150581 65.86524391 C-21.03924788 64.34380076 -20.53677924 62.82242716 -20.03410149 61.30112267 C-14.88419217 45.7134653 -9.88164446 30.08135168 -4.95043945 14.4230957 C-4.5510466 13.15718094 -4.5510466 13.15718094 -4.14358521 11.86569214 C-3.65600764 10.31905232 -3.17002271 8.77190906 -2.68600464 7.22415161 C-1.1108944 2.2217888 -1.1108944 2.2217888 0 0 Z " fill="#CE0A23" transform="translate(479,482)"/>
<path d="M0 0 C0.66 0 1.32 0 2 0 C2.36629517 1.19846558 2.36629517 1.19846558 2.73999023 2.42114258 C6.87993763 15.82034637 11.28558576 29.13272756 15.66958618 42.45349121 C17.07825419 46.73426837 18.48414923 51.015953 19.8894043 55.29785156 C20.12265317 56.00853727 20.35590204 56.71922298 20.59621906 57.45144463 C21.06531412 58.88074789 21.5344027 60.31005327 22.00348473 61.73936081 C25.03974862 70.99054888 28.07837199 80.24094285 31.12611389 89.48835754 C32.27071403 92.96506411 33.41075084 96.4432508 34.54904175 99.92202759 C35.05416161 101.46226258 35.56139286 103.00180689 36.0708313 104.5406189 C36.75701933 106.61390571 37.43609039 108.68938547 38.11328125 110.765625 C38.66689331 112.44833496 38.66689331 112.44833496 39.23168945 114.16503906 C40 117 40 117 40 121 C82.57 121 125.14 121 169 121 C165.75387099 124.24612901 162.60100228 126.84263402 158.875 129.4375 C157.61552157 130.32630756 156.35642559 131.21565724 155.09765625 132.10546875 C154.43137207 132.5751709 153.76508789 133.04487305 153.07861328 133.52880859 C149.47381282 136.08019779 145.89268137 138.6642267 142.3125 141.25 C141.18110596 142.06682251 141.18110596 142.06682251 140.02685547 142.90014648 C133.69149731 147.48264665 127.39789341 152.12055761 121.10888672 156.76635742 C113.53412093 162.35637027 105.90494787 167.86919688 98.26464844 173.36914062 C95.13884744 175.62014867 92.01555917 177.87462655 88.89282227 180.12988281 C87.35995566 181.2366944 85.82660311 182.34283335 84.29272461 183.44824219 C81.01400831 185.81273963 77.74140044 188.18354253 74.49609375 190.59375 C73.50738281 191.3259375 72.51867188 192.058125 71.5 192.8125 C70.6646875 193.43769531 69.829375 194.06289063 68.96875 194.70703125 C67 196 67 196 65 196 C65.30147949 196.83125397 65.60295898 197.66250793 65.91357422 198.51895142 C69.13165057 207.45235558 72.17101905 216.43687901 75.125 225.4609375 C75.59899476 226.90479612 76.07311877 228.34861231 76.54736328 229.79238892 C77.53336901 232.79546408 78.5181477 235.7989377 79.50195312 238.80273438 C80.74696062 242.60386616 81.99457672 246.40413527 83.24307251 250.20412254 C84.22037844 253.17942434 85.19651507 256.15510877 86.17230225 259.13090897 C86.63119395 260.53007178 87.09036918 261.92914164 87.54986572 263.32810593 C90.1980083 271.39365085 92.79596946 279.47205686 95.30253601 287.58286095 C96.49040681 291.41705246 97.73927329 295.22334877 99.0546875 299.015625 C99.35890625 299.89347656 99.663125 300.77132813 99.9765625 301.67578125 C100.59265328 303.44101528 101.21539768 305.20393705 101.84375 306.96484375 C102.14023438 307.82722656 102.43671875 308.68960937 102.7421875 309.578125 C103.0088623 310.33512695 103.27553711 311.09212891 103.55029297 311.87207031 C104.05638659 314.26681082 103.77144831 315.70193036 103 318 C93.79643084 311.38301136 84.6162573 304.73691036 75.5 298 C66.38253249 291.26444757 57.20059208 284.62136346 48 278 C37.0564393 270.12427936 26.15195938 262.19938785 15.3046875 254.19140625 C14.58764648 253.66691895 13.87060547 253.14243164 13.13183594 252.60205078 C11.67708829 251.50882425 10.24850727 250.38011213 8.84472656 249.22216797 C8.15604492 248.66287598 7.46736328 248.10358398 6.7578125 247.52734375 C6.15340332 247.0180835 5.54899414 246.50882324 4.92626953 245.98413086 C2.99006071 244.78611879 2.99006071 244.78611879 0.51586914 245.1730957 C-2.1128675 246.03709677 -3.81642638 247.03283492 -6.01171875 248.703125 C-6.7601001 249.26459229 -7.50848145 249.82605957 -8.27954102 250.40454102 C-9.07416748 251.01354248 -9.86879395 251.62254395 -10.6875 252.25 C-12.39781262 253.53598773 -14.10876522 254.8211247 -15.8203125 256.10546875 C-16.6855957 256.75821777 -17.55087891 257.4109668 -18.44238281 258.08349609 C-22.28030412 260.9593726 -26.16817728 263.76372396 -30.0625 266.5625 C-31.55469653 267.6380083 -33.04688402 268.71352915 -34.5390625 269.7890625 C-36.76903289 271.394446 -38.99926236 272.99946914 -41.22949219 274.60449219 C-49.68593528 280.69239105 -58.11863578 286.809025 -66.5 293 C-72.8799814 297.70940943 -79.2699237 302.4044092 -85.6875 307.0625 C-86.40550781 307.58650391 -87.12351562 308.11050781 -87.86328125 308.65039062 C-92.45629152 311.97473233 -97.15350594 315.05768867 -102 318 C-101.37110021 311.14745854 -99.16059996 304.91424182 -96.984375 298.4140625 C-96.35964931 296.52285792 -95.73492757 294.63165202 -95.11037922 292.74038887 C-94.4482676 290.73884941 -93.78336866 288.7382559 -93.11764526 286.73791504 C-91.05175867 280.52938502 -89.00339681 274.31506838 -86.95457268 268.10089111 C-86.4972787 266.71410342 -86.03977514 265.32738482 -85.58206367 263.94073486 C-80.89975948 249.75435161 -76.3556907 235.52619215 -71.87207031 221.27587891 C-71.62895111 220.50374054 -71.38583191 219.73160217 -71.13534546 218.93606567 C-70.6793697 217.48517243 -70.22503254 216.03376284 -69.77261353 214.58175659 C-68.63118679 210.93129892 -67.40520535 207.32811152 -66.09765625 203.734375 C-64.69897866 199.25205265 -64.69897866 199.25205265 -66 195 C-67.96242128 193.2771943 -69.77052912 191.91407793 -71.9375 190.5 C-73.22466717 189.62082855 -74.51109005 188.74056671 -75.796875 187.859375 C-76.48201172 187.39595703 -77.16714844 186.93253906 -77.87304688 186.45507812 C-81.52713884 183.95526314 -85.10391447 181.34940274 -88.6875 178.75 C-89.441521 178.20537109 -90.19554199 177.66074219 -90.97241211 177.09960938 C-97.30889534 172.51840867 -103.60199073 167.87952798 -109.89111328 163.23364258 C-117.4701364 157.64048791 -125.10381679 152.12492783 -132.74853516 146.62207031 C-135.04634996 144.96660712 -137.34188876 143.30803543 -139.63671875 141.6484375 C-140.78442749 140.81856323 -140.78442749 140.81856323 -141.95532227 139.97192383 C-143.46769173 138.87823564 -144.97990258 137.78432809 -146.49194336 136.69018555 C-150.06367413 134.1086454 -153.64289148 131.53909287 -157.2421875 128.99609375 C-157.89928711 128.53098389 -158.55638672 128.06587402 -159.23339844 127.58666992 C-160.46636152 126.71541632 -161.70129877 125.84694775 -162.93847656 124.98168945 C-164.30990745 124.01220846 -165.65795608 123.00976938 -167 122 C-167 121.67 -167 121.34 -167 121 C-124.43 121 -81.86 121 -38 121 C-37.67 118.69 -37.34 116.38 -37 114 C-36.45404092 112.01780474 -35.85587014 110.04932835 -35.20922852 108.09765625 C-34.84082855 106.97592514 -34.47242859 105.85419403 -34.09286499 104.69847107 C-33.69225861 103.49860062 -33.29165222 102.29873016 -32.87890625 101.0625 C-32.45841687 99.78887854 -32.03847604 98.51507585 -31.61904907 97.24110413 C-30.73180906 94.54968879 -29.84105233 91.85947524 -28.94735718 89.17019653 C-27.55643297 84.98445913 -26.17349904 80.79611181 -24.79223633 76.60717773 C-23.42935179 72.47486599 -22.06624785 68.34262986 -20.70042419 64.21128845 C-17.49242905 54.50680934 -14.31543579 44.79306802 -11.1875 35.0625 C-10.81391357 33.90097412 -10.44032715 32.73944824 -10.05541992 31.54272461 C-6.68210318 21.03535618 -3.33372269 10.51999245 0 0 Z " fill="#CE0A23" transform="translate(1439,481)"/>
<path d="M0 0 C0.66 0 1.32 0 2 0 C2.3309668 1.02319336 2.66193359 2.04638672 3.00292969 3.10058594 C8.69815846 20.69984002 14.40329077 38.29497158 20.27563477 55.83605957 C24.67455627 68.97722598 29.04886232 82.12656366 33.36279297 95.29589844 C33.950218 97.08630011 34.53970802 98.87602569 35.13134766 100.66503906 C35.95260726 103.14987581 36.76631059 105.63706409 37.578125 108.125 C37.82435608 108.86492187 38.07058716 109.60484375 38.32427979 110.3671875 C39.43212389 113.78911221 40 116.36054509 40 120 C82.57 120 125.14 120 169 120 C165.75387099 123.24612901 162.60100228 125.84263402 158.875 128.4375 C157.61552157 129.32630756 156.35642559 130.21565724 155.09765625 131.10546875 C154.43137207 131.5751709 153.76508789 132.04487305 153.07861328 132.52880859 C149.47381282 135.08019779 145.89268137 137.6642267 142.3125 140.25 C141.18110596 141.06682251 141.18110596 141.06682251 140.02685547 141.90014648 C133.69149731 146.48264665 127.39789341 151.12055761 121.10888672 155.76635742 C113.53412093 161.35637027 105.90494787 166.86919688 98.26464844 172.36914062 C95.13884744 174.62014867 92.01555917 176.87462655 88.89282227 179.12988281 C87.35995566 180.2366944 85.82660311 181.34283335 84.29272461 182.44824219 C81.01400831 184.81273963 77.74140044 187.18354253 74.49609375 189.59375 C73.50738281 190.3259375 72.51867188 191.058125 71.5 191.8125 C70.6646875 192.43769531 69.829375 193.06289063 68.96875 193.70703125 C67 195 67 195 65 195 C65.39791748 196.15822266 65.79583496 197.31644531 66.20581055 198.50976562 C67.70835132 202.88514695 69.20796784 207.26152619 70.70678711 211.63818359 C71.35087003 213.51768073 71.99570319 215.39692097 72.64135742 217.27587891 C76.19141948 227.60884897 79.67408522 237.95054911 82.88891602 248.39306641 C84.59189753 253.92148848 86.3571842 259.42953246 88.125 264.9375 C88.49608887 266.09830078 88.86717773 267.25910156 89.24951172 268.45507812 C91.45760779 275.32713052 93.72804938 282.17372743 96.0625 289.00390625 C96.57678634 290.51631452 97.09094731 292.02876543 97.60498047 293.54125977 C98.60291871 296.47685411 99.61452793 299.40727431 100.63330078 302.33569336 C101.09199684 303.68194998 101.5501926 305.02837719 102.0078125 306.375 C102.41660645 307.55835938 102.82540039 308.74171875 103.24658203 309.9609375 C103.97278041 312.89020434 104.08714478 314.23921325 103 317 C93.71179008 310.32215813 84.44915027 303.61264517 75.25 296.8125 C68.73141391 291.99593069 62.17551521 287.23976924 55.5703125 282.54296875 C45.02059972 275.0392998 34.55053282 267.42502859 24.125 259.75 C23.32989014 259.16694092 22.53478027 258.58388184 21.71557617 257.9831543 C18.20434451 255.40073076 14.71908003 252.80146724 11.3125 250.08203125 C10.76577637 249.65116211 10.21905273 249.22029297 9.65576172 248.77636719 C8.2427101 247.65584204 6.84334289 246.51811761 5.4453125 245.37890625 C3.11493703 243.75488394 3.11493703 243.75488394 0.59790039 244.24487305 C-2.13460951 245.0391267 -3.75804025 245.98841179 -6.01171875 247.703125 C-6.7601001 248.26459229 -7.50848145 248.82605957 -8.27954102 249.40454102 C-9.07416748 250.01354248 -9.86879395 250.62254395 -10.6875 251.25 C-12.39781262 252.53598773 -14.10876522 253.8211247 -15.8203125 255.10546875 C-16.6855957 255.75821777 -17.55087891 256.4109668 -18.44238281 257.08349609 C-22.28030412 259.9593726 -26.16817728 262.76372396 -30.0625 265.5625 C-31.55469653 266.6380083 -33.04688402 267.71352915 -34.5390625 268.7890625 C-36.76903289 270.394446 -38.99926236 271.99946914 -41.22949219 273.60449219 C-49.68593528 279.69239105 -58.11863578 285.809025 -66.5 292 C-72.8799814 296.70940943 -79.2699237 301.4044092 -85.6875 306.0625 C-86.40550781 306.58650391 -87.12351562 307.11050781 -87.86328125 307.65039062 C-92.45629152 310.97473233 -97.15350594 314.05768867 -102 317 C-101.37051949 310.10248759 -99.13408227 303.81722918 -96.94921875 297.2734375 C-96.32057945 295.36637908 -95.69194106 293.45932035 -95.063344 291.552248 C-94.39804203 289.53758969 -93.72986417 287.52390687 -93.06079102 285.51049805 C-91.68112874 281.35854308 -90.30948565 277.20396909 -88.93945312 273.04882812 C-87.57184711 268.90206866 -86.20392185 264.75541801 -84.83322144 260.60968018 C-81.43723192 250.33784587 -78.06839373 240.05746039 -74.73403931 229.76544189 C-74.02530586 227.57810067 -73.31486698 225.3913191 -72.60424805 223.20458984 C-71.77519277 220.6513934 -70.9537954 218.09615951 -70.13671875 215.5390625 C-69.36383488 213.13276426 -68.57411909 210.73182129 -67.76953125 208.3359375 C-67.39183594 207.18351563 -67.01414062 206.03109375 -66.625 204.84375 C-66.28726563 203.83505859 -65.94953125 202.82636719 -65.6015625 201.78710938 C-64.94406859 198.74086322 -65.01629679 196.94446941 -66 194 C-67.96242128 192.2771943 -69.77052912 190.91407793 -71.9375 189.5 C-73.22466717 188.62082855 -74.51109005 187.74056671 -75.796875 186.859375 C-76.48201172 186.39595703 -77.16714844 185.93253906 -77.87304688 185.45507812 C-81.52713971 182.95526255 -85.10389546 180.34937788 -88.6875 177.75 C-89.43862061 177.20754639 -90.18974121 176.66509277 -90.96362305 176.10620117 C-96.58465311 172.04271305 -102.17166217 167.93432788 -107.75 163.8125 C-114.26724298 158.99714943 -120.82113274 154.24135556 -127.42578125 149.546875 C-132.30590424 146.07619863 -137.15654577 142.56464817 -142.00756836 139.0534668 C-146.04684417 136.13023273 -150.09217126 133.21603268 -154.1484375 130.31640625 C-154.98149414 129.71932861 -155.81455078 129.12225098 -156.67285156 128.50708008 C-158.2849148 127.35196069 -159.89879812 126.19937639 -161.51464844 125.04956055 C-162.59407715 124.2747937 -162.59407715 124.2747937 -163.6953125 123.484375 C-164.6546167 122.79939941 -164.6546167 122.79939941 -165.63330078 122.10058594 C-166.30981689 121.5557959 -166.30981689 121.5557959 -167 121 C-167 120.67 -167 120.34 -167 120 C-124.43 120 -81.86 120 -38 120 C-37.67 117.69 -37.34 115.38 -37 113 C-36.46973465 111.07076494 -35.88781967 109.15502845 -35.25683594 107.25634766 C-34.89801331 106.16654602 -34.53919067 105.07674438 -34.16949463 103.95391846 C-33.77840515 102.78576599 -33.38731567 101.61761353 -32.984375 100.4140625 C-32.35971623 98.52298916 -31.73506133 96.63191453 -31.11057663 94.74078369 C-30.44849737 92.73929349 -29.78362789 90.73875036 -29.11791992 88.73846436 C-27.05107586 82.52727763 -25.00109024 76.31052342 -22.95101929 70.09378433 C-22.49348645 68.70651549 -22.03574256 67.31931624 -21.57778931 65.93218613 C-16.91619903 51.81036621 -12.3985977 37.64505866 -7.95996094 23.45166016 C-5.48796275 15.5643407 -2.93493303 7.73047906 0 0 Z " fill="#CD0A23" transform="translate(959,482)"/>
<path d="M0 0 C3.64138867 3.64138867 4.58666025 9.0640994 6.1875 13.875 C6.56841797 14.97714844 6.94933594 16.07929687 7.34179688 17.21484375 C7.87450195 18.80619141 7.87450195 18.80619141 8.41796875 20.4296875 C8.74563232 21.40147949 9.0732959 22.37327148 9.41088867 23.37451172 C10 26 10 26 9 30 C5.04 27.03 1.08 24.06 -3 21 C0.41321235 21 1.39472885 21.66867466 4.1875 23.5 C5.26064453 24.19609375 5.26064453 24.19609375 6.35546875 24.90625 C6.89816406 25.2671875 7.44085937 25.628125 8 26 C7.34 25.01 6.68 24.02 6 23 C5.47095079 21.28543738 4.99711103 19.55339957 4.5625 17.8125 C3.65161463 14.29908501 2.65606546 10.9340888 1.3125 7.5625 C0 4 0 4 0 0 Z " fill="#B92C3D" transform="translate(573,769)"/>
<path d="M0 0 C2.79248972 4.18873458 4.09291602 8.68570366 5.6875 13.4375 C6.02072266 14.39205078 6.35394531 15.34660156 6.69726562 16.33007812 C7.00728516 17.25111328 7.31730469 18.17214844 7.63671875 19.12109375 C7.92248779 19.9608374 8.20825684 20.80058105 8.50268555 21.66577148 C9 24 9 24 8 28 C4.04 25.03 0.08 22.06 -4 19 C-0.58678765 19 0.39472885 19.66867466 3.1875 21.5 C4.26064453 22.19609375 4.26064453 22.19609375 5.35546875 22.90625 C5.89816406 23.2671875 6.44085937 23.628125 7 24 C6.34 23.01 5.68 22.02 5 21 C4.44880031 19.24442898 3.95382245 17.47072626 3.5 15.6875 C2.69429015 12.58735755 1.85932657 9.59278743 0.8125 6.5625 C0 4 0 4 0 0 Z " fill="#B92E3F" transform="translate(1534,771)"/>
<path d="M0 0 C0.33 0 0.66 0 1 0 C1.23509196 4.81938524 0.45184478 8.46298506 -1 13 C-1.66 13 -2.32 13 -3 13 C-2.938125 14.299375 -2.938125 14.299375 -2.875 15.625 C-3.00457721 19.12358468 -3.76019656 21.74551597 -5 25 C-5.66 25 -6.32 25 -7 25 C-6.95875 26.093125 -6.9175 27.18625 -6.875 28.3125 C-7 32 -7 32 -9 35 C-9.66 34.67 -10.32 34.34 -11 34 C-7.37 22.78 -3.74 11.56 0 0 Z " fill="#BE2B3D" transform="translate(1356,737)"/>
<path d="M0 0 C0.33 0 0.66 0 1 0 C1.37503829 5.12552327 0.14595604 8.37794084 -2 13 C-3.22149006 16.25730684 -4.01535856 19.10942971 -4.5 22.5625 C-4.95665009 25.70196939 -5.69496559 28.1289243 -7 31 C-7.66 31 -8.32 31 -9 31 C-8.38370741 24.18165184 -6.15310089 18.01031953 -3.9375 11.5625 C-3.56044922 10.44939453 -3.18339844 9.33628906 -2.79492188 8.18945312 C-1.86871665 5.45773391 -0.93694191 2.72805139 0 0 Z " fill="#BD2A3C" transform="translate(1370,694)"/>
<path d="M0 0 C0.33 0 0.66 0 1 0 C1.31197402 4.26364498 0.68460217 7.02732279 -1.140625 10.8671875 C-2.62885819 14.56071169 -3.38297605 18.45076343 -4.25390625 22.328125 C-5 25 -5 25 -7 28 C-6.34 28.33 -5.68 28.66 -5 29 C-6.98 29.99 -6.98 29.99 -9 31 C-8.38370741 24.18165184 -6.15310089 18.01031953 -3.9375 11.5625 C-3.56044922 10.44939453 -3.18339844 9.33628906 -2.79492188 8.18945312 C-1.86871665 5.45773391 -0.93694191 2.72805139 0 0 Z " fill="#BA2B3D" transform="translate(386,768)"/>
<path d="M0 0 C0.33 0 0.66 0 1 0 C1.32160194 5.36003225 0.49548739 8.30848371 -2 13 C-2.70758326 16.2366963 -2.70758326 16.2366963 -3 19 C-3.66 19 -4.32 19 -5 19 C-4.938125 20.3303125 -4.938125 20.3303125 -4.875 21.6875 C-4.99897246 24.97277013 -5.61387904 27.05449295 -7 30 C-7.66 29.67 -8.32 29.34 -9 29 C-6.52891267 19.1590031 -3.26306008 9.59909908 0 0 Z " fill="#BD2D3F" transform="translate(476,491)"/>
<path d="M0 0 C0.33 0 0.66 0 1 0 C1.31221866 4.26698838 0.67876721 7.03024665 -1.140625 10.875 C-2.6097159 14.50766113 -3.37778781 18.32144979 -4.25390625 22.1328125 C-4.96782896 24.87636889 -5.88854833 27.39548235 -7 30 C-7.66 29.67 -8.32 29.34 -9 29 C-6.52891267 19.1590031 -3.26306008 9.59909908 0 0 Z " fill="#BC293B" transform="translate(412,688)"/>
<path d="M0 0 C0.33 0 0.66 0 1 0 C1.32501101 5.41685009 0.46688913 8.24895427 -2 13 C-2.84614898 15.77072314 -3.57781899 18.55909905 -4.3046875 21.36328125 C-5.07638797 24.28967348 -5.99691534 27.14506674 -7 30 C-7.66 29.67 -8.32 29.34 -9 29 C-6.52891267 19.1590031 -3.26306008 9.59909908 0 0 Z " fill="#BC3041" transform="translate(1410,571)"/>
<path d="M0 0 C3.01598607 1.50799304 3.13739043 3.67733534 4.1875 6.8125 C4.55230469 7.87082031 4.91710938 8.92914062 5.29296875 10.01953125 C6 13 6 13 5 17 C1.04 14.03 -2.92 11.06 -7 8 C-3.58678765 8 -2.60527115 8.66867466 0.1875 10.5 C0.90292969 10.9640625 1.61835937 11.428125 2.35546875 11.90625 C2.89816406 12.2671875 3.44085937 12.628125 4 13 C3.34 12.01 2.68 11.02 2 10 C0.60201506 6.34970599 0 3.95614797 0 0 Z " fill="#B92E3F" transform="translate(1057,782)"/>
<path d="M0 0 C0.33 0 0.66 0 1 0 C1.42542013 4.67962145 -0.10430099 7.77113297 -2 12 C-2.33 13.258125 -2.66 14.51625 -3 15.8125 C-4 19 -4 19 -7 21 C-5.180206 13.74839665 -2.93841629 6.87619244 0 0 Z " fill="#BF2C3E" transform="translate(950,511)"/>
<path d="M0 0 C0.33 0 0.66 0 1 0 C1.37580094 5.1359462 0.1173326 8.35815546 -2 13 C-2.67188497 15.33183607 -3.33915417 17.66501142 -4 20 C-4.62469505 21.35350594 -5.2716331 22.69934483 -6 24 C-7.17791932 20.46624203 -6.75415072 19.55148893 -5.56640625 16.11328125 C-5.0878418 14.7065918 -5.0878418 14.7065918 -4.59960938 13.27148438 C-4.25736328 12.29501953 -3.91511719 11.31855469 -3.5625 10.3125 C-3.22412109 9.32443359 -2.88574219 8.33636719 -2.53710938 7.31835938 C-1.69940026 4.87602435 -0.85342917 2.43687729 0 0 Z " fill="#BE2D3F" transform="translate(396,737)"/>
<path d="M0 0 C0.33 0 0.66 0 1 0 C1.37580094 5.1359462 0.1173326 8.35815546 -2 13 C-2.67188497 15.33183607 -3.33915417 17.66501142 -4 20 C-4.62469505 21.35350594 -5.2716331 22.69934483 -6 24 C-7.17791932 20.46624203 -6.75415072 19.55148893 -5.56640625 16.11328125 C-5.0878418 14.7065918 -5.0878418 14.7065918 -4.59960938 13.27148438 C-4.25736328 12.29501953 -3.91511719 11.31855469 -3.5625 10.3125 C-3.22412109 9.32443359 -2.88574219 8.33636719 -2.53710938 7.31835938 C-1.69940026 4.87602435 -0.85342917 2.43687729 0 0 Z " fill="#BC2A3C" transform="translate(890,694)"/>
<path d="M0 0 C0.33 0 0.66 0 1 0 C1.37580094 5.1359462 0.1173326 8.35815546 -2 13 C-2.74719426 15.31856644 -3.37499224 17.64420153 -4 20 C-4.66 20 -5.32 20 -6 20 C-4.22089072 13.24947898 -2.29561809 6.59379663 0 0 Z " fill="#BD2A3C" transform="translate(1344,774)"/>
<path d="M0 0 C0.66 0.33 1.32 0.66 2 1 C1.06027344 1.81404297 1.06027344 1.81404297 0.1015625 2.64453125 C-0.71570312 3.35996094 -1.53296875 4.07539062 -2.375 4.8125 C-3.18710938 5.52019531 -3.99921875 6.22789062 -4.8359375 6.95703125 C-7.16183188 8.99981253 -7.16183188 8.99981253 -9 12 C-9.33 10.35 -9.66 8.7 -10 7 C-6.7 4.69 -3.4 2.38 0 0 Z " fill="#FBD4DA" transform="translate(1514,670)"/>
<path d="M0 0 C0.66 0.33 1.32 0.66 2 1 C1.06027344 1.81404297 1.06027344 1.81404297 0.1015625 2.64453125 C-0.71570312 3.35996094 -1.53296875 4.07539062 -2.375 4.8125 C-3.18710938 5.52019531 -3.99921875 6.22789062 -4.8359375 6.95703125 C-7.16183188 8.99981253 -7.16183188 8.99981253 -9 12 C-9.33 10.35 -9.66 8.7 -10 7 C-6.7 4.69 -3.4 2.38 0 0 Z " fill="#FCD4DB" transform="translate(1034,670)"/>
<path d="M0 0 C1.18771723 3.42943519 0.80226223 5.37784675 -0.4375 8.75 C-0.86869141 9.94882812 -0.86869141 9.94882812 -1.30859375 11.171875 C-1.53675781 11.77515625 -1.76492188 12.3784375 -2 13 C-1.34 13.33 -0.68 13.66 0 14 C-1.98 14.99 -1.98 14.99 -4 16 C-3.39891424 10.34979382 -1.92471317 5.33835539 0 0 Z " fill="#B83344" transform="translate(861,783)"/>
<path d="M0 0 C0.66 0 1.32 0 2 0 C2.33 1.65 2.66 3.3 3 5 C2.01 5 1.02 5 0 5 C0 6.65 0 8.3 0 10 C-0.66 10 -1.32 10 -2 10 C-1.54177532 6.53058454 -1.10868317 3.32604951 0 0 Z " fill="#BB3E4E" transform="translate(1439,481)"/>
<path d="M0 0 C0.66 0.33 1.32 0.66 2 1 C0.7934375 2.36125 0.7934375 2.36125 -0.4375 3.75 C-2.41142671 6.10309908 -3.63877467 7.86938046 -4 11 C-4.8125 7.75 -4.8125 7.75 -5 4 C-2.5625 1.5625 -2.5625 1.5625 0 0 Z " fill="#FEE5EB" transform="translate(550,673)"/>
<path d="M0 0 C0.66 0 1.32 0 2 0 C2.66 2.97 3.32 5.94 4 9 C3.34 8.34 2.68 7.68 2 7 C2 6.01 2 5.02 2 4 C1.34 4 0.68 4 0 4 C-0.33 4.99 -0.66 5.98 -1 7 C-1.33 6.34 -1.66 5.68 -2 5 C-1.0625 2.375 -1.0625 2.375 0 0 Z " fill="#B53344" transform="translate(959,482)"/>
<path d="M0 0 C0.66 0 1.32 0 2 0 C2.66 2.31 3.32 4.62 4 7 C3.01 7.495 3.01 7.495 2 8 C2 6.68 2 5.36 2 4 C1.34 4 0.68 4 0 4 C-0.33 4.99 -0.66 5.98 -1 7 C-1.33 6.34 -1.66 5.68 -2 5 C-1.0625 2.375 -1.0625 2.375 0 0 Z " fill="#BA3949" transform="translate(479,482)"/>
<path d="M0 0 C0.33 0 0.66 0 1 0 C1.22036864 3.85645121 0.60355101 6.49223216 -1 10 C-1.66 9.67 -2.32 9.34 -3 9 C-2.01 6.03 -1.02 3.06 0 0 Z " fill="#BE2C3F" transform="translate(872,751)"/>
<path d="M0 0 C0.33 0 0.66 0 1 0 C1.22036864 3.85645121 0.60355101 6.49223216 -1 10 C-1.66 9.67 -2.32 9.34 -3 9 C-2.01 6.03 -1.02 3.06 0 0 Z " fill="#BF2C3F" transform="translate(444,591)"/>
<path d="M0 0 C0.33 0 0.66 0 1 0 C1.17835515 4.54805635 0.99785435 7.8794254 -1 12 C-1.33 12 -1.66 12 -2 12 C-1.85831863 10.56208484 -1.71148957 9.1246763 -1.5625 7.6875 C-1.48128906 6.88699219 -1.40007812 6.08648438 -1.31640625 5.26171875 C-1 3 -1 3 0 0 Z " fill="#BC1F33" transform="translate(1410,571)"/>
<path d="M0 0 C0.33 0 0.66 0 1 0 C1.17835515 4.54805635 0.99785435 7.8794254 -1 12 C-1.33 12 -1.66 12 -2 12 C-1.85831863 10.56208484 -1.71148957 9.1246763 -1.5625 7.6875 C-1.48128906 6.88699219 -1.40007812 6.08648437 -1.31640625 5.26171875 C-1 3 -1 3 0 0 Z " fill="#BC1F33" transform="translate(476,491)"/>
</svg>
