<?xml version="1.0" encoding="UTF-8"?>
<svg version="1.1" xmlns="http://www.w3.org/2000/svg" width="2160" height="1080">
<path d="M0 0 C712.8 0 1425.6 0 2160 0 C2160 356.4 2160 712.8 2160 1080 C1447.2 1080 734.4 1080 0 1080 C0 723.6 0 367.2 0 0 Z " fill="#000000" transform="translate(0,0)"/>
<path d="M0 0 C534.6 0 1069.2 0 1620 0 C1620 118.8 1620 237.6 1620 360 C1085.4 360 550.8 360 0 360 C0 241.2 0 122.4 0 0 Z " fill="#FEFEFE" transform="translate(540,360)"/>
<path d="M0 0 C534.6 0 1069.2 0 1620 0 C1620 118.8 1620 237.6 1620 360 C1085.4 360 550.8 360 0 360 C0 241.2 0 122.4 0 0 Z " fill="#01843A" transform="translate(540,0)"/>
<path d="M0 0 C178.2 0 356.4 0 540 0 C540 356.4 540 712.8 540 1080 C361.8 1080 183.6 1080 0 1080 C0 723.6 0 367.2 0 0 Z " fill="#C8072A" transform="translate(0,0)"/>
</svg>
