<svg width="25" height="24" viewBox="0 0 25 24" fill="none" xmlns="http://www.w3.org/2000/svg">
<path d="M9.6875 4.5H15.3125V2.9375C15.3646 2.36458 15.6771 2.05208 16.25 2C16.8229 2.05208 17.1354 2.36458 17.1875 2.9375V4.5H18.75C19.4531 4.52604 20.0391 4.77344 20.5078 5.24219C20.9766 5.71094 21.224 6.29688 21.25 7V19.5C21.224 20.2031 20.9766 20.7891 20.5078 21.2578C20.0391 21.7266 19.4531 21.974 18.75 22H6.25C5.54688 21.974 4.96094 21.7266 4.49219 21.2578C4.02344 20.7891 3.77604 20.2031 3.75 19.5V7C3.77604 6.29688 4.02344 5.71094 4.49219 5.24219C4.96094 4.77344 5.54688 4.52604 6.25 4.5H7.8125V2.9375C7.86458 2.36458 8.17708 2.05208 8.75 2C9.32292 2.05208 9.63542 2.36458 9.6875 2.9375V4.5ZM5.625 11.6875H8.75V9.5H5.625V11.6875ZM5.625 13.5625V16.0625H8.75V13.5625H5.625ZM10.625 13.5625V16.0625H14.375V13.5625H10.625ZM16.25 13.5625V16.0625H19.375V13.5625H16.25ZM19.375 9.5H16.25V11.6875H19.375V9.5ZM19.375 17.9375H16.25V20.125H18.75C19.1406 20.099 19.349 19.8906 19.375 19.5V17.9375ZM14.375 17.9375H10.625V20.125H14.375V17.9375ZM8.75 17.9375H5.625V19.5C5.65104 19.8906 5.85938 20.099 6.25 20.125H8.75V17.9375ZM14.375 9.5H10.625V11.6875H14.375V9.5Z" fill="#161616"/>
</svg>
