<svg width="24" height="24" viewBox="0 0 24 24" fill="none" xmlns="http://www.w3.org/2000/svg">
<path d="M12 2.75C8.20808 2.75 4.94742 5.03179 3.51935 8.30028C3.35351 8.67984 2.91137 8.8531 2.53181 8.68726C2.15224 8.52143 1.97898 8.07929 2.14482 7.69972C3.80298 3.90459 7.59065 1.25 12 1.25C17.9371 1.25 22.75 6.06294 22.75 12C22.75 12.2599 22.6154 12.5013 22.3943 12.638C22.1732 12.7746 21.8971 12.7871 21.6646 12.6708L19.6646 11.6708C19.2941 11.4856 19.1439 11.0351 19.3292 10.6646C19.5144 10.2941 19.9649 10.1439 20.3354 10.3292L21.1655 10.7442C20.5527 6.22958 16.6827 2.75 12 2.75Z" fill="#161616"/>
<path d="M1.6057 11.362C1.82681 11.2254 2.10292 11.2129 2.33541 11.3292L4.33541 12.3292C4.70589 12.5144 4.85606 12.9649 4.67082 13.3354C4.48558 13.7059 4.03507 13.8561 3.66459 13.6708L2.83453 13.2558C3.4473 17.7704 7.3173 21.25 12 21.25C15.7919 21.25 19.0526 18.9682 20.4806 15.6997C20.6465 15.3202 21.0886 15.1469 21.4682 15.3127C21.8478 15.4786 22.021 15.9207 21.8552 16.3003C20.197 20.0954 16.4094 22.75 12 22.75C6.06294 22.75 1.25 17.9371 1.25 12C1.25 11.7401 1.38459 11.4987 1.6057 11.362Z" fill="#161616"/>
<path d="M11 11.5C11 10.9477 11.4477 10.5 12 10.5H12.009C12.5613 10.5 13.009 10.9477 13.009 11.5C13.009 12.0523 12.5613 12.5 12.009 12.5H12C11.4477 12.5 11 12.0523 11 11.5Z" fill="#161616"/>
<path fill-rule="evenodd" clip-rule="evenodd" d="M12 6.25C9.15979 6.25 6.75 8.59305 6.75 11.4629C6.75 12.9384 7.37638 14.1598 8.2241 15.1457C9.06486 16.1236 10.1491 16.9016 11.1417 17.516L11.1546 17.524L11.1678 17.5315C11.4218 17.6748 11.7086 17.75 12 17.75C12.2914 17.75 12.5782 17.6748 12.8322 17.5315L12.8437 17.525L12.855 17.5181C13.8529 16.9074 14.9376 16.1268 15.7781 15.1459C16.6249 14.1576 17.25 12.9337 17.25 11.4629C17.25 8.59305 14.8402 6.25 12 6.25ZM8.25 11.4629C8.25 9.43992 9.96965 7.75 12 7.75C14.0303 7.75 15.75 9.43993 15.75 11.4629C15.75 12.4775 15.326 13.3682 14.639 14.1699C13.9497 14.9744 13.0225 15.6558 12.0875 16.2291C12.0608 16.2427 12.0308 16.25 12 16.25C11.9696 16.25 11.94 16.2429 11.9136 16.2297C10.9776 15.649 10.051 14.9697 9.36149 14.1678C8.67459 13.3689 8.25 12.4813 8.25 11.4629Z" fill="#161616"/>
</svg>
