<svg xmlns="http://www.w3.org/2000/svg" width="18" height="18" viewBox="0 0 18 18" fill="none">
  <path d="M5.66732 8.99984C5.20708 8.99984 4.83398 9.37293 4.83398 9.83317C4.83398 10.2934 5.20708 10.6665 5.66732 10.6665H5.67479C6.13503 10.6665 6.50813 10.2934 6.50813 9.83317C6.50813 9.37293 6.13503 8.99984 5.67479 8.99984H5.66732Z" fill="#161616"/>
  <path d="M8.99691 8.99984C8.53668 8.99984 8.16358 9.37293 8.16358 9.83317C8.16358 10.2934 8.53668 10.6665 8.99691 10.6665H9.00439C9.46463 10.6665 9.83772 10.2934 9.83772 9.83317C9.83772 9.37293 9.46463 8.99984 9.00439 8.99984H8.99691Z" fill="#161616"/>
  <path d="M12.3265 8.99984C11.8663 8.99984 11.4932 9.37293 11.4932 9.83317C11.4932 10.2934 11.8663 10.6665 12.3265 10.6665H12.334C12.7942 10.6665 13.1673 10.2934 13.1673 9.83317C13.1673 9.37293 12.7942 8.99984 12.334 8.99984H12.3265Z" fill="#161616"/>
  <path d="M5.66732 12.3332C5.20708 12.3332 4.83398 12.7063 4.83398 13.1665C4.83398 13.6267 5.20708 13.9998 5.66732 13.9998H5.67479C6.13503 13.9998 6.50813 13.6267 6.50813 13.1665C6.50813 12.7063 6.13503 12.3332 5.67479 12.3332H5.66732Z" fill="#161616"/>
  <path d="M8.99691 12.3332C8.53668 12.3332 8.16358 12.7063 8.16358 13.1665C8.16358 13.6267 8.53668 13.9998 8.99691 13.9998H9.00439C9.46463 13.9998 9.83772 13.6267 9.83772 13.1665C9.83772 12.7063 9.46463 12.3332 9.00439 12.3332H8.99691Z" fill="#161616"/>
  <path fill-rule="evenodd" clip-rule="evenodd" d="M4.62565 0.666504C4.62565 0.321326 4.34583 0.0415039 4.00065 0.0415039C3.65547 0.0415039 3.37565 0.321326 3.37565 0.666504V1.19549C2.70502 1.38557 2.1394 1.6945 1.6686 2.20347C1.02035 2.90429 0.732192 3.78977 0.594192 4.89943C0.458968 5.98676 0.458975 7.38023 0.458985 9.1582V9.67481C0.458975 11.4528 0.458968 12.8463 0.594192 13.9336C0.732192 15.0432 1.02035 15.9287 1.6686 16.6295C2.32327 17.3373 3.16129 17.6582 4.21006 17.8107C5.22508 17.9582 6.52194 17.9582 8.15835 17.9582H9.84295C11.4794 17.9582 12.7762 17.9582 13.7912 17.8107C14.84 17.6582 15.678 17.3373 16.3327 16.6295C16.981 15.9287 17.2691 15.0432 17.4071 13.9336C17.5423 12.8462 17.5423 11.4528 17.5423 9.67478V9.15823C17.5423 7.38024 17.5423 5.98676 17.4071 4.89943C17.2691 3.78977 16.981 2.90429 16.3327 2.20347C15.8619 1.6945 15.2963 1.38557 14.6257 1.19549V0.666504C14.6257 0.321326 14.3458 0.0415039 14.0007 0.0415039C13.6555 0.0415039 13.3757 0.321326 13.3757 0.666504V0.971416C12.4289 0.874813 11.264 0.874824 9.84295 0.874838H8.15836C6.73734 0.874824 5.57237 0.874813 4.62565 0.971416V0.666504ZM3.39948 2.50471C3.47404 2.76648 3.71496 2.95817 4.00065 2.95817C4.34583 2.95817 4.62565 2.67835 4.62565 2.33317V2.22866C5.50982 2.12614 6.65263 2.12484 8.20898 2.12484H9.79232C11.3487 2.12484 12.4915 2.12614 13.3757 2.22866V2.33317C13.3757 2.67835 13.6555 2.95817 14.0007 2.95817C14.2863 2.95817 14.5273 2.76648 14.6018 2.50471C14.9412 2.63976 15.199 2.81864 15.4151 3.05227C15.8093 3.4785 16.0427 4.06307 16.1658 5.04681C16.139 5.04331 16.1117 5.0415 16.084 5.0415H1.91732C1.88958 5.0415 1.86227 5.04331 1.83549 5.04681C1.95858 4.06307 2.19197 3.4785 2.58623 3.05227C2.80234 2.81864 3.06006 2.63976 3.39948 2.50471ZM1.74243 6.26671C1.70945 7.06913 1.70898 8.03012 1.70898 9.20254V9.63047C1.70898 11.4624 1.71012 12.7781 1.83464 13.7793C1.95749 14.7672 2.19106 15.3535 2.58623 15.7807C2.975 16.201 3.49838 16.4441 4.38985 16.5737C5.30462 16.7066 6.51055 16.7082 8.20898 16.7082H9.79232C11.4908 16.7082 12.6967 16.7066 13.6115 16.5737C14.5029 16.4441 15.0263 16.201 15.4151 15.7807C15.8102 15.3535 16.0438 14.7672 16.1667 13.7793C16.2912 12.7781 16.2923 11.4624 16.2923 9.63047V9.20254C16.2923 8.03012 16.2919 7.06913 16.2589 6.26671C16.2034 6.28285 16.1447 6.2915 16.084 6.2915H1.91732C1.85661 6.2915 1.79792 6.28285 1.74243 6.26671Z" fill="#161616"/>
</svg>