<svg xmlns="http://www.w3.org/2000/svg" width="90" height="34" viewBox="0 0 90 34" fill="none">
  <rect x="0.548014" y="0.666667" width="88.5952" height="32.6667" rx="5.66667" stroke="white" stroke-opacity="0.3" stroke-width="0.666667"/>
  <path d="M21.0361 17.4851C21.0534 16.1331 21.7767 14.8539 22.924 14.1457C22.2002 13.1079 20.9878 12.45 19.7265 12.4103C18.3812 12.2686 17.0769 13.2185 16.3914 13.2185C15.6926 13.2185 14.637 12.4244 13.5004 12.4479C12.0189 12.4959 10.6377 13.3416 9.91692 14.6419C8.3675 17.3349 9.52323 21.2928 11.0075 23.4697C11.75 24.5357 12.6179 25.7263 13.7535 25.6841C14.8648 25.6379 15.2798 24.9728 16.6212 24.9728C17.9501 24.9728 18.3395 25.6841 19.4981 25.6573C20.6905 25.6378 21.4418 24.5866 22.1583 23.5105C22.6919 22.751 23.1024 21.9116 23.3748 21.0233C21.9735 20.4283 21.0377 19.0126 21.0361 17.4851Z" fill="white"/>
  <path d="M18.8476 10.9787C19.4977 10.1952 19.818 9.18809 19.7405 8.1713C18.7472 8.27603 17.8297 8.75261 17.1707 9.50609C16.5264 10.2423 16.191 11.2316 16.2544 12.2096C17.2481 12.2199 18.2249 11.7562 18.8476 10.9787Z" fill="white"/>
  <path d="M60.6704 16.0886V17.727H59.6474V18.8014H60.6704V22.452C60.6704 23.6985 61.2321 24.1971 62.6453 24.1971C62.8936 24.1971 63.1301 24.1675 63.3371 24.1318V23.0693C63.1597 23.0871 63.0473 23.099 62.8522 23.099C62.2195 23.099 61.9416 22.8022 61.9416 22.1255V18.8014H63.3371V17.727H61.9416V16.0886H60.6704Z" fill="white"/>
  <path d="M66.937 24.2862C68.8173 24.2862 69.9703 23.0218 69.9703 20.9264C69.9703 18.8429 68.8114 17.5726 66.937 17.5726C65.0568 17.5726 63.8978 18.8429 63.8978 20.9264C63.8978 23.0218 65.0508 24.2862 66.937 24.2862ZM66.937 23.1524C65.8313 23.1524 65.2105 22.3392 65.2105 20.9264C65.2105 19.5256 65.8313 18.7064 66.937 18.7064C68.0368 18.7064 68.6636 19.5256 68.6636 20.9264C68.6636 22.3333 68.0368 23.1524 66.937 23.1524Z" fill="white"/>
  <path d="M70.9568 24.1615H72.2281V20.3447C72.2281 19.4365 72.9081 18.8251 73.8719 18.8251C74.0966 18.8251 74.475 18.8667 74.5814 18.9023V17.6439C74.4454 17.6082 74.203 17.5904 74.0138 17.5904C73.1742 17.5904 72.4587 18.0534 72.2754 18.6886H72.1808V17.6973H70.9568V24.1615Z" fill="white"/>
  <path d="M77.7379 18.6589C78.6781 18.6589 79.293 19.3178 79.3226 20.3328H76.0705C76.1415 19.3237 76.7978 18.6589 77.7379 18.6589ZM79.3167 22.4164C79.0802 22.9209 78.5539 23.1999 77.7852 23.1999C76.7682 23.1999 76.1119 22.4816 76.0705 21.3479V21.2767H80.6175V20.8315C80.6175 18.8014 79.5355 17.5726 77.7439 17.5726C75.9286 17.5726 74.7756 18.8845 74.7756 20.9502C74.7756 23.0159 75.905 24.2862 77.7498 24.2862C79.2221 24.2862 80.2509 23.5739 80.5406 22.4164H79.3167Z" fill="white"/>
  <path d="M52.3336 21.7744C52.4317 23.3617 53.7493 24.3769 55.7104 24.3769C57.8064 24.3769 59.1178 23.3125 59.1178 21.6144C59.1178 20.2793 58.3702 19.541 56.5561 19.1165L55.5817 18.8766C54.4295 18.6059 53.9638 18.2429 53.9638 17.6092C53.9638 16.8094 54.6869 16.2864 55.7717 16.2864C56.8013 16.2864 57.5122 16.7971 57.6409 17.6153H58.9769C58.8972 16.1203 57.5857 15.0682 55.7901 15.0682C53.8596 15.0682 52.5726 16.1203 52.5726 17.7015C52.5726 19.0058 53.3019 19.781 54.9014 20.1563L56.0413 20.4332C57.2119 20.71 57.7267 21.1161 57.7267 21.7928C57.7267 22.5803 56.9177 23.1525 55.8146 23.1525C54.6318 23.1525 53.8106 22.6173 53.6941 21.7744H52.3336Z" fill="white"/>
  <path d="M39.1646 17.5904C38.2895 17.5904 37.5326 18.0297 37.1424 18.7658H37.0478V17.6973H35.8238V26.3103H37.0951V23.1821H37.1956C37.5326 23.8647 38.2599 24.2684 39.1764 24.2684C40.8025 24.2684 41.8372 22.9803 41.8372 20.9264C41.8372 18.8726 40.8025 17.5904 39.1646 17.5904ZM38.8039 23.1227C37.7396 23.1227 37.0714 22.2798 37.0714 20.9324C37.0714 19.579 37.7396 18.7361 38.8098 18.7361C39.886 18.7361 40.5305 19.5612 40.5305 20.9264C40.5305 22.2976 39.886 23.1227 38.8039 23.1227Z" fill="white"/>
  <path d="M46.2856 17.5904C45.4105 17.5904 44.6536 18.0297 44.2634 18.7658H44.1688V17.6973H42.9448V26.3103H44.2161V23.1821H44.3166C44.6536 23.8647 45.3809 24.2684 46.2974 24.2684C47.9234 24.2684 48.9582 22.9803 48.9582 20.9264C48.9582 18.8726 47.9234 17.5904 46.2856 17.5904ZM45.9249 23.1227C44.8606 23.1227 44.1924 22.2798 44.1924 20.9324C44.1924 19.579 44.8606 18.7361 45.9308 18.7361C47.0069 18.7361 47.6514 19.5612 47.6514 20.9264C47.6514 22.2976 47.0069 23.1227 45.9249 23.1227Z" fill="white"/>
  <path d="M33.543 24.1615H35.0015L31.8086 15.2836H30.3316L27.1387 24.1615H28.5482L29.3633 21.8051H32.734L33.543 24.1615ZM30.9996 16.8955H31.1038L32.3847 20.6485H29.7126L30.9996 16.8955Z" fill="white"/>
</svg>