<svg xmlns="http://www.w3.org/2000/svg" width="88" height="34" viewBox="0 0 88 34" fill="none">
  <rect x="0.476725" y="0.666667" width="86.5233" height="32.6667" rx="5.66667" stroke="white" stroke-opacity="0.3" stroke-width="0.666667"/>
  <g filter="url(#filter0_ii_2136_31034)">
    <path d="M9.37915 9.10309C9.19364 9.30021 9.08398 9.60613 9.08398 10.0023V24.1565C9.08398 24.5533 9.19364 24.8586 9.37915 25.0557L9.42633 25.1018L17.3245 17.1728V17.0794V16.986L9.42633 9.05637L9.37915 9.10309Z" fill="url(#paint0_linear_2136_31034)"/>
    <path d="M19.9565 19.8165L17.3242 17.1727V17.0793V16.9858L19.9571 14.3426L20.0164 14.3765L23.1358 16.1557C24.0264 16.6639 24.0264 17.4953 23.1358 18.0041L20.0164 19.7833L19.9565 19.8165Z" fill="url(#paint1_linear_2136_31034)"/>
    <g filter="url(#filter1_i_2136_31034)">
      <path d="M20.0164 19.7826L17.3236 17.0792L9.37891 25.0555C9.67216 25.3679 10.1573 25.4063 10.7037 25.0952L20.0164 19.7826Z" fill="url(#paint2_linear_2136_31034)"/>
    </g>
    <path d="M20.0164 14.376L10.7037 9.06403C10.1573 8.75235 9.67216 8.79139 9.37891 9.10371L17.3242 17.08L20.0164 14.376Z" fill="url(#paint3_linear_2136_31034)"/>
  </g>
  <path d="M43.8355 17.8538C42.4193 17.8538 41.2651 18.9304 41.2651 20.4132C41.2651 21.8871 42.4193 22.9727 43.8355 22.9727C45.2523 22.9727 46.4065 21.8871 46.4065 20.4132C46.4059 18.9304 45.2517 17.8538 43.8355 17.8538ZM43.8355 21.9653C43.0594 21.9653 42.3904 21.3256 42.3904 20.4138C42.3904 19.4925 43.06 18.8624 43.8355 18.8624C44.6116 18.8624 45.2806 19.4925 45.2806 20.4138C45.2806 21.325 44.6116 21.9653 43.8355 21.9653ZM38.2275 17.8538C36.8113 17.8538 35.6571 18.9304 35.6571 20.4132C35.6571 21.8871 36.8113 22.9727 38.2275 22.9727C39.6442 22.9727 40.7985 21.8871 40.7985 20.4132C40.7985 18.9304 39.6442 17.8538 38.2275 17.8538ZM38.2275 21.9653C37.4513 21.9653 36.7824 21.3256 36.7824 20.4138C36.7824 19.4925 37.452 18.8624 38.2275 18.8624C39.0036 18.8624 39.6725 19.4925 39.6725 20.4138C39.6731 21.325 39.0036 21.9653 38.2275 21.9653ZM31.5573 18.6397V19.7254H34.1572C34.0795 20.3362 33.876 20.7822 33.5653 21.0921C33.1872 21.47 32.5953 21.8871 31.5573 21.8871C29.9569 21.8871 28.7057 20.5974 28.7057 18.9978C28.7057 17.3982 29.9569 16.1085 31.5573 16.1085C32.4207 16.1085 33.0511 16.448 33.5166 16.8843L34.2831 16.1182C33.6328 15.4977 32.77 15.0229 31.5573 15.0229C29.365 15.0229 27.522 16.8066 27.522 18.9978C27.522 21.189 29.365 22.9727 31.5573 22.9727C32.7404 22.9727 33.6334 22.5846 34.3312 21.8576C35.0489 21.1402 35.2723 20.1316 35.2723 19.3174C35.2723 19.0658 35.2531 18.8329 35.2139 18.6391L31.5573 18.6397ZM58.8377 19.4829C58.6245 18.9111 57.9742 17.8538 56.6454 17.8538C55.3262 17.8538 54.2297 18.8913 54.2297 20.4132C54.2297 21.8479 55.3165 22.9727 56.7712 22.9727C57.9447 22.9727 58.6239 22.2554 58.9057 21.8383L58.0326 21.2564C57.7418 21.6831 57.3438 21.9641 56.7712 21.9641C56.1992 21.9641 55.7916 21.7023 55.5297 21.1884L58.9539 19.7729L58.8377 19.4829ZM55.3454 20.3362C55.3165 19.3469 56.1119 18.8431 56.6845 18.8431C57.1307 18.8431 57.5088 19.0664 57.6352 19.386L55.3454 20.3362ZM52.5619 22.8181H53.6866V15.2949H52.5619V22.8181ZM50.7182 18.4261H50.6797C50.4274 18.1252 49.9421 17.8538 49.3316 17.8538C48.0509 17.8538 46.8774 18.9785 46.8774 20.4235C46.8774 21.8582 48.0509 22.9733 49.3316 22.9733C49.9427 22.9733 50.4274 22.7019 50.6797 22.392H50.7182V22.7603C50.7182 23.7394 50.1944 24.263 49.3508 24.263C48.662 24.263 48.2351 23.7689 48.0605 23.3519L47.0809 23.7593C47.3621 24.4375 48.1087 25.2716 49.3508 25.2716C50.67 25.2716 51.7857 24.4959 51.7857 22.605V18.0096H50.7188L50.7182 18.4261ZM49.4285 21.9653C48.6524 21.9653 48.0027 21.3154 48.0027 20.4235C48.0027 19.5214 48.6524 18.8624 49.4285 18.8624C50.1944 18.8624 50.7959 19.5214 50.7959 20.4235C50.7959 21.3154 50.1944 21.9653 49.4285 21.9653ZM64.1085 15.2949H61.4165V22.8181H62.5394V19.9679H64.1079C65.3531 19.9679 66.5778 19.067 66.5778 17.6317C66.5778 16.1964 65.3537 15.2949 64.1085 15.2949ZM64.1374 18.9208H62.5394V16.342H64.1374C64.9774 16.342 65.4542 17.0371 65.4542 17.6317C65.4542 18.2143 64.9774 18.9208 64.1374 18.9208ZM71.0809 17.8405C70.2675 17.8405 69.4251 18.1986 69.0765 18.9924L70.0736 19.4082C70.2867 18.9924 70.6841 18.8564 71.1002 18.8564C71.6812 18.8564 72.2719 19.2048 72.2815 19.8241V19.9017C72.078 19.7856 71.6421 19.6116 71.1098 19.6116C70.0351 19.6116 68.9404 20.202 68.9404 21.3051C68.9404 22.3119 69.8219 22.9601 70.8094 22.9601C71.5644 22.9601 71.9811 22.6213 72.2424 22.2241H72.2809V22.8048H73.3659V19.9204C73.3665 18.5856 72.3682 17.8405 71.0809 17.8405ZM70.9449 21.9635C70.5776 21.9635 70.064 21.7793 70.064 21.3244C70.064 20.7436 70.7034 20.521 71.2555 20.521C71.7487 20.521 71.9817 20.6275 72.2815 20.7725C72.1942 21.47 71.5939 21.9635 70.9449 21.9635ZM77.317 18.0048L76.0291 21.2666H75.9905L74.6538 18.0048H73.4436L75.448 22.5635L74.3052 25.0995H75.4769L78.5663 18.0048H77.317ZM67.1979 22.8181H68.3209V15.2949H67.1979V22.8181Z" fill="white"/>
  
  <defs>
    <filter id="filter0_ii_2136_31034" x="9.08398" y="8.84894" width="14.7197" height="16.4611" filterUnits="userSpaceOnUse" color-interpolation-filters="sRGB">
      <feFlood flood-opacity="0" result="BackgroundImageFix"/>
      <feBlend mode="normal" in="SourceGraphic" in2="BackgroundImageFix" result="shape"/>
      <feColorMatrix in="SourceAlpha" type="matrix" values="0 0 0 0 0 0 0 0 0 0 0 0 0 0 0 0 0 0 127 0" result="hardAlpha"/>
      <feOffset dy="-0.53"/>
      <feComposite in2="hardAlpha" operator="arithmetic" k2="-1" k3="1"/>
      <feColorMatrix type="matrix" values="0 0 0 0 0 0 0 0 0 0 0 0 0 0 0 0 0 0 0.12 0"/>
      <feBlend mode="normal" in2="shape" result="effect1_innerShadow_2136_31034"/>
      <feColorMatrix in="SourceAlpha" type="matrix" values="0 0 0 0 0 0 0 0 0 0 0 0 0 0 0 0 0 0 127 0" result="hardAlpha"/>
      <feOffset dy="0.53"/>
      <feComposite in2="hardAlpha" operator="arithmetic" k2="-1" k3="1"/>
      <feColorMatrix type="matrix" values="0 0 0 0 1 0 0 0 0 1 0 0 0 0 1 0 0 0 0.25 0"/>
      <feBlend mode="normal" in2="effect1_innerShadow_2136_31034" result="effect2_innerShadow_2136_31034"/>
    </filter>
    <filter id="filter1_i_2136_31034" x="9.37891" y="17.0792" width="10.6377" height="8.23083" filterUnits="userSpaceOnUse" color-interpolation-filters="sRGB">
      <feFlood flood-opacity="0" result="BackgroundImageFix"/>
      <feBlend mode="normal" in="SourceGraphic" in2="BackgroundImageFix" result="shape"/>
      <feColorMatrix in="SourceAlpha" type="matrix" values="0 0 0 0 0 0 0 0 0 0 0 0 0 0 0 0 0 0 127 0" result="hardAlpha"/>
      <feOffset dy="-0.53"/>
      <feComposite in2="hardAlpha" operator="arithmetic" k2="-1" k3="1"/>
      <feColorMatrix type="matrix" values="0 0 0 0 0 0 0 0 0 0 0 0 0 0 0 0 0 0 0.08 0"/>
      <feBlend mode="normal" in2="shape" result="effect1_innerShadow_2136_31034"/>
    </filter>
    <linearGradient id="paint0_linear_2136_31034" x1="16.6243" y1="9.85253" x2="5.88395" y2="20.5512" gradientUnits="userSpaceOnUse">
      <stop stop-color="#00A0FF"/>
      <stop offset="0.0066" stop-color="#00A1FF"/>
      <stop offset="0.2601" stop-color="#00BEFF"/>
      <stop offset="0.5122" stop-color="#00D2FF"/>
      <stop offset="0.7604" stop-color="#00DFFF"/>
      <stop offset="1" stop-color="#00E3FF"/>
    </linearGradient>
    <linearGradient id="paint1_linear_2136_31034" x1="24.2951" y1="17.0793" x2="8.86992" y2="17.0793" gradientUnits="userSpaceOnUse">
      <stop stop-color="#FFE000"/>
      <stop offset="0.4087" stop-color="#FFBD00"/>
      <stop offset="0.7754" stop-color="#FFA500"/>
      <stop offset="1" stop-color="#FF9C00"/>
    </linearGradient>
    <linearGradient id="paint2_linear_2136_31034" x1="18.554" y1="18.5473" x2="3.98871" y2="33.056" gradientUnits="userSpaceOnUse">
      <stop stop-color="#FF3A44"/>
      <stop offset="1" stop-color="#C31162"/>
    </linearGradient>
    <linearGradient id="paint3_linear_2136_31034" x1="7.37801" y1="4.3919" x2="13.8818" y2="10.8704" gradientUnits="userSpaceOnUse">
      <stop stop-color="#32A071"/>
      <stop offset="0.0685" stop-color="#2DA771"/>
      <stop offset="0.4762" stop-color="#15CF74"/>
      <stop offset="0.8009" stop-color="#06E775"/>
      <stop offset="1" stop-color="#00F076"/>
    </linearGradient>
  </defs>
</svg>