<svg width="15" height="17" viewBox="0 0 15 17" fill="none" xmlns="http://www.w3.org/2000/svg">
<path d="M8 5.18018C9.96875 5.18018 11.5938 6.80518 11.5938 8.77393C11.5938 10.7739 9.96875 12.3677 8 12.3677C6 12.3677 4.40625 10.7739 4.40625 8.77393C4.40625 6.80518 6 5.18018 8 5.18018ZM8 11.1177C9.28125 11.1177 10.3125 10.0864 10.3125 8.77393C10.3125 7.49268 9.28125 6.46143 8 6.46143C6.6875 6.46143 5.65625 7.49268 5.65625 8.77393C5.65625 10.0864 6.71875 11.1177 8 11.1177ZM12.5625 5.05518C12.5625 4.58643 12.1875 4.21143 11.7188 4.21143C11.25 4.21143 10.875 4.58643 10.875 5.05518C10.875 5.52393 11.25 5.89893 11.7188 5.89893C12.1875 5.89893 12.5625 5.52393 12.5625 5.05518ZM14.9375 5.89893C15 7.05518 15 10.5239 14.9375 11.6802C14.875 12.8052 14.625 13.7739 13.8125 14.6177C13 15.4302 12 15.6802 10.875 15.7427C9.71875 15.8052 6.25 15.8052 5.09375 15.7427C3.96875 15.6802 3 15.4302 2.15625 14.6177C1.34375 13.7739 1.09375 12.8052 1.03125 11.6802C0.96875 10.5239 0.96875 7.05518 1.03125 5.89893C1.09375 4.77393 1.34375 3.77393 2.15625 2.96143C3 2.14893 3.96875 1.89893 5.09375 1.83643C6.25 1.77393 9.71875 1.77393 10.875 1.83643C12 1.89893 13 2.14893 13.8125 2.96143C14.625 3.77393 14.875 4.77393 14.9375 5.89893ZM13.4375 12.8989C13.8125 11.9927 13.7188 9.80518 13.7188 8.77393C13.7188 7.77393 13.8125 5.58643 13.4375 4.64893C13.1875 4.05518 12.7188 3.55518 12.125 3.33643C11.1875 2.96143 9 3.05518 8 3.05518C6.96875 3.05518 4.78125 2.96143 3.875 3.33643C3.25 3.58643 2.78125 4.05518 2.53125 4.64893C2.15625 5.58643 2.25 7.77393 2.25 8.77393C2.25 9.80518 2.15625 11.9927 2.53125 12.8989C2.78125 13.5239 3.25 13.9927 3.875 14.2427C4.78125 14.6177 6.96875 14.5239 8 14.5239C9 14.5239 11.1875 14.6177 12.125 14.2427C12.7188 13.9927 13.2188 13.5239 13.4375 12.8989Z" fill="#F9FCFD"/>
</svg>
