<svg width="40" height="40" viewBox="0 0 40 40" fill="none" xmlns="http://www.w3.org/2000/svg">
<path d="M0 20C0 8.95431 8.95431 0 20 0C31.0457 0 40 8.95431 40 20C40 31.0457 31.0457 40 20 40C8.95431 40 0 31.0457 0 20Z" fill="#9DA4AE"/>
<path fill-rule="evenodd" clip-rule="evenodd" d="M19.9999 15.6251C18.0439 15.6251 16.4583 17.2107 16.4583 19.1667C16.4583 21.1228 18.0439 22.7084 19.9999 22.7084C21.9559 22.7084 23.5416 21.1228 23.5416 19.1667C23.5416 17.2107 21.9559 15.6251 19.9999 15.6251ZM17.7083 19.1667C17.7083 17.9011 18.7343 16.8751 19.9999 16.8751C21.2656 16.8751 22.2916 17.9011 22.2916 19.1667C22.2916 20.4324 21.2656 21.4584 19.9999 21.4584C18.7343 21.4584 17.7083 20.4324 17.7083 19.1667Z" fill="white"/>
<path fill-rule="evenodd" clip-rule="evenodd" d="M20.0008 11.0417C16.8123 11.0417 13.7704 12.9276 12.4971 15.904C11.3122 18.674 11.9536 21.0312 13.2893 23.0497C14.3843 24.7046 15.9815 26.1816 17.4224 27.5141C17.6971 27.7681 17.9663 28.017 18.2251 28.2608L18.2264 28.2621C18.7056 28.7108 19.3421 28.9584 20.0008 28.9584C20.6594 28.9584 21.296 28.7108 21.7751 28.2621C22.0198 28.0331 22.2733 27.7994 22.532 27.5611C23.9886 26.219 25.6082 24.7268 26.7147 23.0508C28.0487 21.0302 28.688 18.6705 27.5045 15.904C26.2312 12.9276 23.1893 11.0417 20.0008 11.0417ZM13.6464 16.3956C14.7121 13.9045 17.2846 12.2917 20.0008 12.2917C22.7169 12.2917 25.2895 13.9045 26.3552 16.3956C27.3319 18.6788 26.8391 20.5937 25.6715 22.3621C24.6569 23.8989 23.1706 25.2702 21.7096 26.6183C21.4449 26.8626 21.1809 27.1061 20.9208 27.3496C20.6772 27.5777 20.3476 27.7084 20.0008 27.7084C19.6543 27.7084 19.3249 27.5779 19.0813 27.3502C18.8043 27.0892 18.5229 26.8286 18.2407 26.5673C16.7983 25.2315 15.3355 23.877 14.3317 22.3599C13.1631 20.5938 12.6684 18.6817 13.6464 16.3956Z" fill="white"/>
</svg>
