<svg xmlns="http://www.w3.org/2000/svg" width="80" height="80" viewBox="0 0 80 80" fill="none">
  <circle cx="40" cy="40" r="38" fill="#FEF3C7" stroke="#D97706" stroke-width="2"/>
  <path d="M28 38C28 34 31 31 35 31H45C49 31 52 34 52 38V50C52 54 49 57 45 57H35C31 57 28 54 28 50V38Z" fill="white" stroke="#D97706" stroke-width="2"/>
  <circle cx="40" cy="44" r="6" stroke="#D97706" stroke-width="2"/>
  <path d="M38 44L40 46L44 42" stroke="#D97706" stroke-width="1.5" stroke-linecap="round" stroke-linejoin="round"/>
  <path d="M35 31V26C35 24 37 22 40 22C43 22 45 24 45 26V31" stroke="#D97706" stroke-width="2"/>
</svg>
