<svg xmlns="http://www.w3.org/2000/svg" width="148" height="50" viewBox="0 0 148 50" fill="none">
  <rect x="1.85547" y="1" width="144.785" height="48" rx="6" fill="white"/>
  <rect x="1.35547" y="0.5" width="145.785" height="49" rx="6.5" stroke="#090909" stroke-opacity="0.16"/>
  <g filter="url(#filter0_ii_2205_42706)">
    <path d="M105.277 13.1546C104.998 13.4502 104.834 13.9091 104.834 14.5034V35.7347C104.834 36.3299 104.998 36.7878 105.277 37.0835L105.348 37.1526L117.195 25.2592V25.119V24.9789L105.348 13.0845L105.277 13.1546Z" fill="url(#paint0_linear_2205_42706)"/>
    <path d="M121.144 29.2246L117.195 25.2588V25.1186V24.9785L121.145 21.0137L121.234 21.0646L125.913 23.7334C127.249 24.4956 127.249 25.7426 125.913 26.5058L121.234 29.1746L121.144 29.2246Z" fill="url(#paint1_linear_2205_42706)"/>
    <g filter="url(#filter1_i_2205_42706)">
      <path d="M121.234 29.1737L117.194 25.1187L105.277 37.0831C105.717 37.5516 106.445 37.6092 107.264 37.1427L121.234 29.1737Z" fill="url(#paint2_linear_2205_42706)"/>
    </g>
    <path d="M121.234 21.0641L107.264 13.0961C106.445 12.6285 105.717 12.6871 105.277 13.1556L117.195 25.1201L121.234 21.0641Z" fill="url(#paint3_linear_2205_42706)"/>
  </g>
  <mask id="path-7-inside-1_2205_42706" fill="white">
    <path d="M46.7359 26.2805C44.6117 26.2805 42.8803 27.8955 42.8803 30.1197C42.8803 32.3304 44.6117 33.9589 46.7359 33.9589C48.8611 33.9589 50.5924 32.3304 50.5924 30.1197C50.5915 27.8955 48.8602 26.2805 46.7359 26.2805ZM46.7359 32.4478C45.5718 32.4478 44.5683 31.4882 44.5683 30.1206C44.5683 28.7386 45.5727 27.7934 46.7359 27.7934C47.9001 27.7934 48.9035 28.7386 48.9035 30.1206C48.9035 31.4873 47.9001 32.4478 46.7359 32.4478ZM38.3239 26.2805C36.1996 26.2805 34.4683 27.8955 34.4683 30.1197C34.4683 32.3304 36.1996 33.9589 38.3239 33.9589C40.449 33.9589 42.1804 32.3304 42.1804 30.1197C42.1804 27.8955 40.449 26.2805 38.3239 26.2805ZM38.3239 32.4478C37.1597 32.4478 36.1563 31.4882 36.1563 30.1206C36.1563 28.7386 37.1606 27.7934 38.3239 27.7934C39.488 27.7934 40.4915 28.7386 40.4915 30.1206C40.4924 31.4873 39.488 32.4478 38.3239 32.4478ZM28.3186 27.4594V29.0879H32.2185C32.102 30.0042 31.7967 30.6731 31.3307 31.138C30.7635 31.7049 29.8757 32.3304 28.3186 32.3304C25.918 32.3304 24.0412 30.3959 24.0412 27.9966C24.0412 25.5972 25.918 23.6627 28.3186 23.6627C29.6138 23.6627 30.5594 24.1718 31.2575 24.8262L32.4072 23.6771C31.4318 22.7464 30.1376 22.0342 28.3186 22.0342C25.0302 22.0342 22.2656 24.7098 22.2656 27.9966C22.2656 31.2833 25.0302 33.9589 28.3186 33.9589C30.0933 33.9589 31.4327 33.3767 32.4795 32.2862C33.5561 31.2102 33.8911 29.6973 33.8911 28.4759C33.8911 28.0986 33.8622 27.7492 33.8035 27.4585L28.3186 27.4594ZM69.2391 28.7241C68.9194 27.8666 67.944 26.2805 65.9507 26.2805C63.9719 26.2805 62.3272 27.8368 62.3272 30.1197C62.3272 32.2718 63.9575 33.9589 66.1395 33.9589C67.8998 33.9589 68.9185 32.8829 69.3412 32.2573L68.0316 31.3844C67.5954 32.0244 66.9984 32.446 66.1395 32.446C65.2815 32.446 64.67 32.0533 64.2772 31.2824L69.4135 29.1592L69.2391 28.7241ZM64.0008 30.0042C63.9574 28.5201 65.1505 27.7646 66.0094 27.7646C66.6787 27.7646 67.2459 28.0995 67.4355 28.5788L64.0008 30.0042ZM59.8255 33.7269H61.5126V22.4422H59.8255V33.7269ZM57.06 27.139H57.0022C56.6238 26.6876 55.8958 26.2805 54.98 26.2805C53.059 26.2805 51.2987 27.9677 51.2987 30.1351C51.2987 32.2871 53.059 33.9598 54.98 33.9598C55.8967 33.9598 56.6238 33.5527 57.0022 33.0878H57.06V33.6403C57.06 35.109 56.2742 35.8943 55.0089 35.8943C53.9757 35.8943 53.3353 35.1532 53.0734 34.5276L51.604 35.1388C52.0258 36.1561 53.1457 37.4073 55.0089 37.4073C56.9877 37.4073 58.6613 36.2437 58.6613 33.4074V26.5143H57.0609L57.06 27.139ZM55.1254 32.4478C53.9612 32.4478 52.9867 31.4729 52.9867 30.1351C52.9867 28.7819 53.9612 27.7934 55.1254 27.7934C56.2742 27.7934 57.1765 28.7819 57.1765 30.1351C57.1765 31.4729 56.2742 32.4478 55.1254 32.4478ZM77.1454 22.4422H73.1074V33.7269H74.7918V29.4517H77.1445C79.0123 29.4517 80.8493 28.1004 80.8493 25.9474C80.8493 23.7945 79.0132 22.4422 77.1454 22.4422ZM77.1888 27.881H74.7918V24.0129H77.1888C78.4487 24.0129 79.164 25.0555 79.164 25.9474C79.164 26.8212 78.4487 27.881 77.1888 27.881ZM87.6041 26.2607C86.3839 26.2607 85.1204 26.7978 84.5974 27.9884L86.0931 28.6122C86.4128 27.9884 87.0089 27.7844 87.633 27.7844C88.5045 27.7844 89.3905 28.3071 89.405 29.236V29.3524C89.0997 29.1782 88.4458 28.9173 87.6474 28.9173C86.0353 28.9173 84.3933 29.8029 84.3933 31.4575C84.3933 32.9678 85.7155 33.94 87.1967 33.94C88.3293 33.94 88.9543 33.4317 89.3463 32.836H89.4041V33.7071H91.0316V29.3804C91.0325 27.3782 89.535 26.2607 87.6041 26.2607ZM87.4 32.4451C86.849 32.4451 86.0786 32.1689 86.0786 31.4864C86.0786 30.6153 87.0378 30.2813 87.866 30.2813C88.6057 30.2813 88.9552 30.4411 89.405 30.6586C89.274 31.7049 88.3736 32.4451 87.4 32.4451ZM96.9581 26.5071L95.0263 31.3998H94.9685L92.9634 26.5071H91.1481L94.1547 33.3451L92.4405 37.1491H94.1981L98.8322 26.5071H96.9581ZM81.7796 33.7269H83.464V22.4422H81.7796V33.7269Z"/>
  </mask>
  <path d="M46.7359 26.2805C44.6117 26.2805 42.8803 27.8955 42.8803 30.1197C42.8803 32.3304 44.6117 33.9589 46.7359 33.9589C48.8611 33.9589 50.5924 32.3304 50.5924 30.1197C50.5915 27.8955 48.8602 26.2805 46.7359 26.2805ZM46.7359 32.4478C45.5718 32.4478 44.5683 31.4882 44.5683 30.1206C44.5683 28.7386 45.5727 27.7934 46.7359 27.7934C47.9001 27.7934 48.9035 28.7386 48.9035 30.1206C48.9035 31.4873 47.9001 32.4478 46.7359 32.4478ZM38.3239 26.2805C36.1996 26.2805 34.4683 27.8955 34.4683 30.1197C34.4683 32.3304 36.1996 33.9589 38.3239 33.9589C40.449 33.9589 42.1804 32.3304 42.1804 30.1197C42.1804 27.8955 40.449 26.2805 38.3239 26.2805ZM38.3239 32.4478C37.1597 32.4478 36.1563 31.4882 36.1563 30.1206C36.1563 28.7386 37.1606 27.7934 38.3239 27.7934C39.488 27.7934 40.4915 28.7386 40.4915 30.1206C40.4924 31.4873 39.488 32.4478 38.3239 32.4478ZM28.3186 27.4594V29.0879H32.2185C32.102 30.0042 31.7967 30.6731 31.3307 31.138C30.7635 31.7049 29.8757 32.3304 28.3186 32.3304C25.918 32.3304 24.0412 30.3959 24.0412 27.9966C24.0412 25.5972 25.918 23.6627 28.3186 23.6627C29.6138 23.6627 30.5594 24.1718 31.2575 24.8262L32.4072 23.6771C31.4318 22.7464 30.1376 22.0342 28.3186 22.0342C25.0302 22.0342 22.2656 24.7098 22.2656 27.9966C22.2656 31.2833 25.0302 33.9589 28.3186 33.9589C30.0933 33.9589 31.4327 33.3767 32.4795 32.2862C33.5561 31.2102 33.8911 29.6973 33.8911 28.4759C33.8911 28.0986 33.8622 27.7492 33.8035 27.4585L28.3186 27.4594ZM69.2391 28.7241C68.9194 27.8666 67.944 26.2805 65.9507 26.2805C63.9719 26.2805 62.3272 27.8368 62.3272 30.1197C62.3272 32.2718 63.9575 33.9589 66.1395 33.9589C67.8998 33.9589 68.9185 32.8829 69.3412 32.2573L68.0316 31.3844C67.5954 32.0244 66.9984 32.446 66.1395 32.446C65.2815 32.446 64.67 32.0533 64.2772 31.2824L69.4135 29.1592L69.2391 28.7241ZM64.0008 30.0042C63.9574 28.5201 65.1505 27.7646 66.0094 27.7646C66.6787 27.7646 67.2459 28.0995 67.4355 28.5788L64.0008 30.0042ZM59.8255 33.7269H61.5126V22.4422H59.8255V33.7269ZM57.06 27.139H57.0022C56.6238 26.6876 55.8958 26.2805 54.98 26.2805C53.059 26.2805 51.2987 27.9677 51.2987 30.1351C51.2987 32.2871 53.059 33.9598 54.98 33.9598C55.8967 33.9598 56.6238 33.5527 57.0022 33.0878H57.06V33.6403C57.06 35.109 56.2742 35.8943 55.0089 35.8943C53.9757 35.8943 53.3353 35.1532 53.0734 34.5276L51.604 35.1388C52.0258 36.1561 53.1457 37.4073 55.0089 37.4073C56.9877 37.4073 58.6613 36.2437 58.6613 33.4074V26.5143H57.0609L57.06 27.139ZM55.1254 32.4478C53.9612 32.4478 52.9867 31.4729 52.9867 30.1351C52.9867 28.7819 53.9612 27.7934 55.1254 27.7934C56.2742 27.7934 57.1765 28.7819 57.1765 30.1351C57.1765 31.4729 56.2742 32.4478 55.1254 32.4478ZM77.1454 22.4422H73.1074V33.7269H74.7918V29.4517H77.1445C79.0123 29.4517 80.8493 28.1004 80.8493 25.9474C80.8493 23.7945 79.0132 22.4422 77.1454 22.4422ZM77.1888 27.881H74.7918V24.0129H77.1888C78.4487 24.0129 79.164 25.0555 79.164 25.9474C79.164 26.8212 78.4487 27.881 77.1888 27.881ZM87.6041 26.2607C86.3839 26.2607 85.1204 26.7978 84.5974 27.9884L86.0931 28.6122C86.4128 27.9884 87.0089 27.7844 87.633 27.7844C88.5045 27.7844 89.3905 28.3071 89.405 29.236V29.3524C89.0997 29.1782 88.4458 28.9173 87.6474 28.9173C86.0353 28.9173 84.3933 29.8029 84.3933 31.4575C84.3933 32.9678 85.7155 33.94 87.1967 33.94C88.3293 33.94 88.9543 33.4317 89.3463 32.836H89.4041V33.7071H91.0316V29.3804C91.0325 27.3782 89.535 26.2607 87.6041 26.2607ZM87.4 32.4451C86.849 32.4451 86.0786 32.1689 86.0786 31.4864C86.0786 30.6153 87.0378 30.2813 87.866 30.2813C88.6057 30.2813 88.9552 30.4411 89.405 30.6586C89.274 31.7049 88.3736 32.4451 87.4 32.4451ZM96.9581 26.5071L95.0263 31.3998H94.9685L92.9634 26.5071H91.1481L94.1547 33.3451L92.4405 37.1491H94.1981L98.8322 26.5071H96.9581ZM81.7796 33.7269H83.464V22.4422H81.7796V33.7269Z" fill="#090909" stroke="#090909" stroke-width="2.04511" mask="url(#path-7-inside-1_2205_42706)"/>
  <path d="M28.1084 15.7675C28.1084 16.5103 27.8847 17.1014 27.4362 17.5429C26.9273 18.0676 26.2631 18.3299 25.4474 18.3299C24.666 18.3299 24.0009 18.064 23.455 17.5322C22.9082 16.9995 22.6348 16.3401 22.6348 15.553C22.6348 14.765 22.9082 14.1056 23.455 13.5738C24.0009 13.0411 24.666 12.7752 25.4474 12.7752C25.8354 12.7752 26.2063 12.8496 26.5582 12.9976C26.911 13.1466 27.1935 13.3442 27.4046 13.5915L26.9291 14.0595C26.5708 13.6385 26.0772 13.4284 25.4465 13.4284C24.8762 13.4284 24.3835 13.6252 23.9675 14.0187C23.5516 14.4123 23.344 14.9237 23.344 15.5521C23.344 16.1805 23.5516 16.692 23.9675 17.0855C24.3835 17.479 24.8762 17.6758 25.4465 17.6758C26.0511 17.6758 26.5555 17.4781 26.9588 17.0819C27.2205 16.824 27.3721 16.465 27.4127 16.005H25.4465V15.366H28.0696C28.0967 15.5051 28.1084 15.639 28.1084 15.7675Z" fill="#090909"/>
  <path d="M32.2684 13.5463H29.8032V15.2322H32.0266V15.8712H29.8032V17.5571H32.2684V18.2112H29.1074V12.8931H32.2684V13.5463Z" fill="#090909"/>
  <path d="M35.2018 18.2112H34.5061V13.5463H32.9938V12.8931H36.7142V13.5463H35.2018V18.2112Z" fill="#090909"/>
  <path d="M39.4059 18.2112V12.8931H40.1016V18.2112H39.4059Z" fill="#090909"/>
  <path d="M43.1869 18.2112H42.4912V13.5463H40.9788V12.8931H44.6992V13.5463H43.1869V18.2112Z" fill="#090909"/>
  <path d="M51.7419 17.5243C51.2095 18.0614 50.5481 18.33 49.7567 18.33C48.9654 18.33 48.3039 18.0614 47.7724 17.5243C47.2401 16.9872 46.9748 16.3295 46.9748 15.5521C46.9748 14.7748 47.2401 14.1171 47.7724 13.58C48.3039 13.0429 48.9654 12.7734 49.7567 12.7734C50.5436 12.7734 51.2041 13.0438 51.7383 13.5836C52.2725 14.1234 52.5396 14.7793 52.5396 15.5521C52.5396 16.3295 52.2734 16.9872 51.7419 17.5243ZM48.2859 17.0784C48.6865 17.4773 49.1765 17.6758 49.7567 17.6758C50.3369 17.6758 50.8278 17.4764 51.2276 17.0784C51.6282 16.6796 51.8294 16.1708 51.8294 15.5521C51.8294 14.9335 51.6282 14.4247 51.2276 14.0259C50.8278 13.627 50.3369 13.4285 49.7567 13.4285C49.1765 13.4285 48.6865 13.6279 48.2859 14.0259C47.8861 14.4247 47.6849 14.9335 47.6849 15.5521C47.6849 16.1708 47.8861 16.6796 48.2859 17.0784Z" fill="#090909"/>
  <path d="M53.516 18.2112V12.8931H54.3624L56.9936 17.0297H57.0234L56.9936 16.0051V12.8931H57.6893V18.2112H56.9629L54.2099 13.8734H54.1801L54.2099 14.898V18.2112H53.516Z" fill="#090909"/>
  <path d="M28.1084 15.7675C28.1084 16.5103 27.8847 17.1014 27.4362 17.5429C26.9273 18.0676 26.2631 18.3299 25.4474 18.3299C24.666 18.3299 24.0009 18.064 23.455 17.5322C22.9082 16.9995 22.6348 16.3401 22.6348 15.553C22.6348 14.765 22.9082 14.1056 23.455 13.5738C24.0009 13.0411 24.666 12.7752 25.4474 12.7752C25.8354 12.7752 26.2063 12.8496 26.5582 12.9976C26.911 13.1466 27.1935 13.3442 27.4046 13.5915L26.9291 14.0595C26.5708 13.6385 26.0772 13.4284 25.4465 13.4284C24.8762 13.4284 24.3835 13.6252 23.9675 14.0187C23.5516 14.4123 23.344 14.9237 23.344 15.5521C23.344 16.1805 23.5516 16.692 23.9675 17.0855C24.3835 17.479 24.8762 17.6758 25.4465 17.6758C26.0511 17.6758 26.5555 17.4781 26.9588 17.0819C27.2205 16.824 27.3721 16.465 27.4127 16.005H25.4465V15.366H28.0696C28.0967 15.5051 28.1084 15.639 28.1084 15.7675Z" stroke="#090909" stroke-width="0.204511" stroke-miterlimit="10"/>
  <path d="M32.2684 13.5463H29.8032V15.2322H32.0266V15.8712H29.8032V17.5571H32.2684V18.2112H29.1074V12.8931H32.2684V13.5463Z" stroke="#090909" stroke-width="0.204511" stroke-miterlimit="10"/>
  <path d="M35.2018 18.2112H34.5061V13.5463H32.9938V12.8931H36.7142V13.5463H35.2018V18.2112Z" stroke="#090909" stroke-width="0.204511" stroke-miterlimit="10"/>
  <path d="M39.4059 18.2112V12.8931H40.1016V18.2112H39.4059Z" stroke="#090909" stroke-width="0.204511" stroke-miterlimit="10"/>
  <path d="M43.1869 18.2112H42.4912V13.5463H40.9788V12.8931H44.6992V13.5463H43.1869V18.2112Z" stroke="#090909" stroke-width="0.204511" stroke-miterlimit="10"/>
  <path d="M51.7419 17.5243C51.2095 18.0614 50.5481 18.33 49.7567 18.33C48.9654 18.33 48.3039 18.0614 47.7724 17.5243C47.2401 16.9872 46.9748 16.3295 46.9748 15.5521C46.9748 14.7748 47.2401 14.1171 47.7724 13.58C48.3039 13.0429 48.9654 12.7734 49.7567 12.7734C50.5436 12.7734 51.2041 13.0438 51.7383 13.5836C52.2725 14.1234 52.5396 14.7793 52.5396 15.5521C52.5396 16.3295 52.2734 16.9872 51.7419 17.5243ZM48.2859 17.0784C48.6865 17.4773 49.1765 17.6758 49.7567 17.6758C50.3369 17.6758 50.8278 17.4764 51.2276 17.0784C51.6282 16.6796 51.8294 16.1708 51.8294 15.5521C51.8294 14.9335 51.6282 14.4247 51.2276 14.0259C50.8278 13.627 50.3369 13.4285 49.7567 13.4285C49.1765 13.4285 48.6865 13.6279 48.2859 14.0259C47.8861 14.4247 47.6849 14.9335 47.6849 15.5521C47.6849 16.1708 47.8861 16.6796 48.2859 17.0784Z" stroke="#090909" stroke-width="0.204511" stroke-miterlimit="10"/>
  <path d="M53.516 18.2112V12.8931H54.3624L56.9936 17.0297H57.0234L56.9936 16.0051V12.8931H57.6893V18.2112H56.9629L54.2099 13.8734H54.1801L54.2099 14.898V18.2112H53.516Z" stroke="#090909" stroke-width="0.204511" stroke-miterlimit="10"/>
  <defs>
    <filter id="filter0_ii_2205_42706" x="104.834" y="12.7734" width="22.0801" height="24.6914" filterUnits="userSpaceOnUse" color-interpolation-filters="sRGB">
      <feFlood flood-opacity="0" result="BackgroundImageFix"/>
      <feBlend mode="normal" in="SourceGraphic" in2="BackgroundImageFix" result="shape"/>
      <feColorMatrix in="SourceAlpha" type="matrix" values="0 0 0 0 0 0 0 0 0 0 0 0 0 0 0 0 0 0 127 0" result="hardAlpha"/>
      <feOffset dy="-0.795"/>
      <feComposite in2="hardAlpha" operator="arithmetic" k2="-1" k3="1"/>
      <feColorMatrix type="matrix" values="0 0 0 0 0 0 0 0 0 0 0 0 0 0 0 0 0 0 0.12 0"/>
      <feBlend mode="normal" in2="shape" result="effect1_innerShadow_2205_42706"/>
      <feColorMatrix in="SourceAlpha" type="matrix" values="0 0 0 0 0 0 0 0 0 0 0 0 0 0 0 0 0 0 127 0" result="hardAlpha"/>
      <feOffset dy="0.795"/>
      <feComposite in2="hardAlpha" operator="arithmetic" k2="-1" k3="1"/>
      <feColorMatrix type="matrix" values="0 0 0 0 1 0 0 0 0 1 0 0 0 0 1 0 0 0 0.25 0"/>
      <feBlend mode="normal" in2="effect1_innerShadow_2205_42706" result="effect2_innerShadow_2205_42706"/>
    </filter>
    <filter id="filter1_i_2205_42706" x="105.277" y="25.1187" width="15.957" height="12.3462" filterUnits="userSpaceOnUse" color-interpolation-filters="sRGB">
      <feFlood flood-opacity="0" result="BackgroundImageFix"/>
      <feBlend mode="normal" in="SourceGraphic" in2="BackgroundImageFix" result="shape"/>
      <feColorMatrix in="SourceAlpha" type="matrix" values="0 0 0 0 0 0 0 0 0 0 0 0 0 0 0 0 0 0 127 0" result="hardAlpha"/>
      <feOffset dy="-0.795"/>
      <feComposite in2="hardAlpha" operator="arithmetic" k2="-1" k3="1"/>
      <feColorMatrix type="matrix" values="0 0 0 0 0 0 0 0 0 0 0 0 0 0 0 0 0 0 0.08 0"/>
      <feBlend mode="normal" in2="shape" result="effect1_innerShadow_2205_42706"/>
    </filter>
    <linearGradient id="paint0_linear_2205_42706" x1="116.145" y1="14.2787" x2="100.034" y2="30.3267" gradientUnits="userSpaceOnUse">
      <stop stop-color="#00A0FF"/>
      <stop offset="0.0066" stop-color="#00A1FF"/>
      <stop offset="0.2601" stop-color="#00BEFF"/>
      <stop offset="0.5122" stop-color="#00D2FF"/>
      <stop offset="0.7604" stop-color="#00DFFF"/>
      <stop offset="1" stop-color="#00E3FF"/>
    </linearGradient>
    <linearGradient id="paint1_linear_2205_42706" x1="127.652" y1="25.1186" x2="104.514" y2="25.1186" gradientUnits="userSpaceOnUse">
      <stop stop-color="#FFE000"/>
      <stop offset="0.4087" stop-color="#FFBD00"/>
      <stop offset="0.7754" stop-color="#FFA500"/>
      <stop offset="1" stop-color="#FF9C00"/>
    </linearGradient>
    <linearGradient id="paint2_linear_2205_42706" x1="119.04" y1="27.3208" x2="97.1921" y2="49.0838" gradientUnits="userSpaceOnUse">
      <stop stop-color="#FF3A44"/>
      <stop offset="1" stop-color="#C31162"/>
    </linearGradient>
    <linearGradient id="paint3_linear_2205_42706" x1="102.276" y1="6.08788" x2="112.032" y2="15.8057" gradientUnits="userSpaceOnUse">
      <stop stop-color="#32A071"/>
      <stop offset="0.0685" stop-color="#2DA771"/>
      <stop offset="0.4762" stop-color="#15CF74"/>
      <stop offset="0.8009" stop-color="#06E775"/>
      <stop offset="1" stop-color="#00F076"/>
    </linearGradient>
  </defs>
</svg>