<svg width="18" height="17" viewBox="0 0 18 17" fill="none" xmlns="http://www.w3.org/2000/svg">
<path d="M17.1562 4.68018C17.5312 5.99268 17.5312 8.80518 17.5312 8.80518C17.5312 8.80518 17.5312 11.5864 17.1562 12.9302C16.9688 13.6802 16.375 14.2427 15.6562 14.4302C14.3125 14.7739 9 14.7739 9 14.7739C9 14.7739 3.65625 14.7739 2.3125 14.4302C1.59375 14.2427 1 13.6802 0.8125 12.9302C0.4375 11.5864 0.4375 8.80518 0.4375 8.80518C0.4375 8.80518 0.4375 5.99268 0.8125 4.68018C1 3.93018 1.59375 3.33643 2.3125 3.14893C3.65625 2.77393 9 2.77393 9 2.77393C9 2.77393 14.3125 2.77393 15.6562 3.14893C16.375 3.33643 16.9688 3.93018 17.1562 4.68018ZM7.25 11.3364L11.6875 8.80518L7.25 6.27393V11.3364Z" fill="#F9FCFD"/>
</svg>
