<svg xmlns="http://www.w3.org/2000/svg" width="151" height="50" viewBox="0 0 151 50" fill="none">
  <rect x="1.64062" y="1" width="147.893" height="48" rx="6" fill="white"/>
  <rect x="1.14062" y="0.5" width="148.893" height="49" rx="6.5" stroke="#090909" stroke-opacity="0.16"/>
  <path d="M126.144 25.7276C126.17 23.6996 127.255 21.7807 128.976 20.7185C127.89 19.1618 126.071 18.1748 124.179 18.1154C122.161 17.9028 120.205 19.3277 119.177 19.3277C118.128 19.3277 116.545 18.1365 114.84 18.1717C112.618 18.2438 110.546 19.5122 109.465 21.4627C107.141 25.5023 108.874 31.4391 111.101 34.7044C112.215 36.3034 113.516 38.0894 115.22 38.0261C116.887 37.9567 117.509 36.959 119.521 36.959C121.515 36.959 122.099 38.0261 123.837 37.9858C125.625 37.9567 126.752 36.3798 127.827 34.7657C128.627 33.6264 129.243 32.3672 129.652 31.0348C127.55 30.1423 126.146 28.0188 126.144 25.7276Z" fill="#090909"/>
  <path d="M122.861 15.968C123.836 14.7927 124.317 13.282 124.2 11.7568C122.71 11.9139 121.334 12.6288 120.346 13.759C119.379 14.8633 118.876 16.3474 118.971 17.8143C120.462 17.8297 121.927 17.1342 122.861 15.968Z" fill="#090909"/>
  <path d="M72.4401 23.6327V26.0901H70.9057V27.7017H72.4401V33.1777C72.4401 35.0475 73.2827 35.7954 75.4024 35.7954C75.775 35.7954 76.1297 35.7509 76.4402 35.6975V34.1037C76.1741 34.1304 76.0056 34.1482 75.7129 34.1482C74.7639 34.1482 74.347 33.703 74.347 32.6879V27.7017H76.4402V26.0901H74.347V23.6327H72.4401Z" fill="#090909"/>
  <path d="M81.8401 35.929C84.6606 35.929 86.3901 34.0324 86.3901 30.8893C86.3901 27.7641 84.6517 25.8586 81.8401 25.8586C79.0197 25.8586 77.2813 27.7641 77.2813 30.8893C77.2813 34.0324 79.0108 35.929 81.8401 35.929ZM81.8401 34.2283C80.1816 34.2283 79.2503 33.0085 79.2503 30.8893C79.2503 28.788 80.1816 27.5593 81.8401 27.5593C83.4898 27.5593 84.43 28.788 84.43 30.8893C84.43 32.9996 83.4898 34.2283 81.8401 34.2283Z" fill="#090909"/>
  <path d="M87.8698 35.742H89.7767V30.0168C89.7767 28.6545 90.7967 27.7374 92.2424 27.7374C92.5794 27.7374 93.147 27.7997 93.3067 27.8531V25.9655C93.1027 25.9121 92.7391 25.8854 92.4552 25.8854C91.1958 25.8854 90.1226 26.5799 89.8477 27.5326H89.7058V26.0456H87.8698V35.742Z" fill="#090909"/>
  <path d="M98.0415 27.4881C99.4517 27.4881 100.374 28.4764 100.418 29.999H95.5403C95.6468 28.4853 96.6313 27.4881 98.0415 27.4881ZM100.41 33.1242C100.055 33.8811 99.2654 34.2995 98.1124 34.2995C96.5869 34.2995 95.6024 33.2222 95.5403 31.5215V31.4147H102.361V30.7469C102.361 27.7017 100.738 25.8586 98.0503 25.8586C95.3275 25.8586 93.598 27.8264 93.598 30.925C93.598 34.0235 95.292 35.929 98.0592 35.929C100.268 35.929 101.811 34.8605 102.246 33.1242H100.41Z" fill="#090909"/>
  <path d="M59.935 32.1613C60.082 34.5423 62.0585 36.065 65.0002 36.065C68.1441 36.065 70.1113 34.4684 70.1113 31.9213C70.1113 29.9187 68.9898 28.8113 66.2688 28.1745L64.8071 27.8146C63.0789 27.4085 62.3802 26.864 62.3802 25.9135C62.3802 24.7138 63.465 23.9293 65.0921 23.9293C66.6365 23.9293 67.7028 24.6953 67.8959 25.9227H69.8999C69.7804 23.6801 67.8132 22.1021 65.1197 22.1021C62.224 22.1021 60.2935 23.6801 60.2935 26.0519C60.2935 28.0084 61.3874 29.1712 63.7867 29.7341L65.4966 30.1494C67.2524 30.5647 68.0246 31.1738 68.0246 32.1889C68.0246 33.3702 66.8111 34.2285 65.1564 34.2285C63.3822 34.2285 62.1504 33.4256 61.9757 32.1613H59.935Z" fill="#090909"/>
  <path d="M40.1815 25.8854C38.8688 25.8854 37.7335 26.5442 37.1482 27.6483H37.0063V26.0456H35.1703V38.9652H37.0772V34.2728H37.228C37.7335 35.2968 38.8245 35.9022 40.1992 35.9022C42.6383 35.9022 44.1904 33.9701 44.1904 30.8893C44.1904 27.8086 42.6383 25.8854 40.1815 25.8854ZM39.6404 34.1838C38.044 34.1838 37.0417 32.9194 37.0417 30.8983C37.0417 28.8682 38.044 27.6038 39.6493 27.6038C41.2635 27.6038 42.2303 28.8414 42.2303 30.8893C42.2303 32.9461 41.2635 34.1838 39.6404 34.1838Z" fill="#090909"/>
  <path d="M50.8629 25.8854C49.5503 25.8854 48.415 26.5442 47.8296 27.6483H47.6877V26.0456H45.8518V38.9652H47.7587V34.2728H47.9094C48.415 35.2968 49.5059 35.9022 50.8807 35.9022C53.3197 35.9022 54.8718 33.9701 54.8718 30.8893C54.8718 27.8086 53.3197 25.8854 50.8629 25.8854ZM50.3219 34.1838C48.7254 34.1838 47.7232 32.9194 47.7232 30.8983C47.7232 28.8682 48.7254 27.6038 50.3308 27.6038C51.945 27.6038 52.9117 28.8414 52.9117 30.8893C52.9117 32.9461 51.945 34.1838 50.3219 34.1838Z" fill="#090909"/>
  <path d="M31.749 35.742H33.9369L29.1475 22.4251H26.932L22.1426 35.742H24.2569L25.4795 32.2074H30.5356L31.749 35.742ZM27.934 24.843H28.0903L30.0116 30.4724H26.0035L27.934 24.843Z" fill="#090909"/>
  <path d="M22.0898 13.0324V18.2963H23.983C25.5455 18.2963 26.4502 17.3296 26.4502 15.6479C26.4502 13.9918 25.5382 13.0324 23.983 13.0324H22.0898ZM22.9038 13.7766H23.8921C24.9786 13.7766 25.6218 14.4697 25.6218 15.6589C25.6218 16.8663 24.9895 17.5521 23.8921 17.5521H22.9038V13.7766Z" fill="#090909"/>
  <path d="M29.2213 18.3729C30.3768 18.3729 31.0853 17.5959 31.0853 16.3082C31.0853 15.0278 30.3731 14.2472 29.2213 14.2472C28.0658 14.2472 27.3536 15.0278 27.3536 16.3082C27.3536 17.5959 28.0621 18.3729 29.2213 18.3729ZM29.2213 17.6761C28.5418 17.6761 28.1602 17.1764 28.1602 16.3082C28.1602 15.4473 28.5418 14.9439 29.2213 14.9439C29.8971 14.9439 30.2823 15.4473 30.2823 16.3082C30.2823 17.1727 29.8971 17.6761 29.2213 17.6761Z" fill="#090909"/>
  <path d="M37.1194 14.3238H36.3382L35.6332 17.3551H35.5715L34.7575 14.3238H34.009L33.195 17.3551H33.1369L32.4283 14.3238H31.6362L32.7263 18.2963H33.5293L34.3433 15.3707H34.405L35.2226 18.2963H36.0329L37.1194 14.3238Z" fill="#090909"/>
  <path d="M38.0191 18.2963H38.8003V15.9726C38.8003 15.3525 39.1673 14.9658 39.7451 14.9658C40.3228 14.9658 40.599 15.2832 40.599 15.9215V18.2963H41.3802V15.7245C41.3802 14.7798 40.8933 14.2472 40.0103 14.2472C39.4144 14.2472 39.022 14.5135 38.8294 14.9548H38.7713V14.3238H38.0191V18.2963Z" fill="#090909"/>
  <path d="M42.6106 18.2963H43.3918V12.7734H42.6106V18.2963Z" fill="#090909"/>
  <path d="M46.33 18.3729C47.4855 18.3729 48.1941 17.5959 48.1941 16.3082C48.1941 15.0278 47.4819 14.2472 46.33 14.2472C45.1745 14.2472 44.4623 15.0278 44.4623 16.3082C44.4623 17.5959 45.1709 18.3729 46.33 18.3729ZM46.33 17.6761C45.6505 17.6761 45.269 17.1764 45.269 16.3082C45.269 15.4473 45.6505 14.9439 46.33 14.9439C47.0059 14.9439 47.391 15.4473 47.391 16.3082C47.391 17.1727 47.0059 17.6761 46.33 17.6761Z" fill="#090909"/>
  <path d="M50.5218 17.7017C50.0966 17.7017 49.7878 17.4937 49.7878 17.1363C49.7878 16.7861 50.0349 16.6 50.5799 16.5635L51.5465 16.5015V16.8335C51.5465 17.3259 51.1104 17.7017 50.5218 17.7017ZM50.3219 18.3619C50.8415 18.3619 51.274 18.1358 51.5101 17.7382H51.5719V18.2963H52.3241V15.5823C52.3241 14.7433 51.7645 14.2472 50.7725 14.2472C49.875 14.2472 49.2355 14.6849 49.1555 15.3671H49.9113C49.9985 15.0862 50.3001 14.9257 50.7362 14.9257C51.2703 14.9257 51.5465 15.1628 51.5465 15.5823V15.9252L50.4745 15.9872C49.5334 16.0456 49.0029 16.4578 49.0029 17.1727C49.0029 17.8987 49.5589 18.3619 50.3219 18.3619Z" fill="#090909"/>
  <path d="M54.9752 18.3619C55.5202 18.3619 55.9817 18.1029 56.2179 17.6688H56.2797V18.2963H57.0282V12.7734H56.247V14.9548H56.1888C55.9745 14.5171 55.5166 14.2581 54.9752 14.2581C53.9759 14.2581 53.3328 15.0533 53.3328 16.3082C53.3328 17.5667 53.9687 18.3619 54.9752 18.3619ZM55.1968 14.9621C55.8509 14.9621 56.2615 15.4838 56.2615 16.3118C56.2615 17.1436 55.8545 17.6579 55.1968 17.6579C54.5355 17.6579 54.1395 17.1508 54.1395 16.3082C54.1395 15.4728 54.5392 14.9621 55.1968 14.9621Z" fill="#090909"/>
  <path d="M62.0943 18.3729C63.2498 18.3729 63.9583 17.5959 63.9583 16.3082C63.9583 15.0278 63.2461 14.2472 62.0943 14.2472C60.9388 14.2472 60.2266 15.0278 60.2266 16.3082C60.2266 17.5959 60.9351 18.3729 62.0943 18.3729ZM62.0943 17.6761C61.4148 17.6761 61.0332 17.1764 61.0332 16.3082C61.0332 15.4473 61.4148 14.9439 62.0943 14.9439C62.7701 14.9439 63.1553 15.4473 63.1553 16.3082C63.1553 17.1727 62.7701 17.6761 62.0943 17.6761Z" fill="#090909"/>
  <path d="M64.9925 18.2963H65.7737V15.9726C65.7737 15.3525 66.1407 14.9658 66.7185 14.9658C67.2962 14.9658 67.5724 15.2832 67.5724 15.9215V18.2963H68.3536V15.7245C68.3536 14.7798 67.8667 14.2472 66.9837 14.2472C66.3878 14.2472 65.9954 14.5135 65.8028 14.9548H65.7446V14.3238H64.9925V18.2963Z" fill="#090909"/>
  <path d="M71.9517 13.3352V14.342H71.323V15.0023H71.9517V17.2457C71.9517 18.0117 72.2969 18.3182 73.1653 18.3182C73.3179 18.3182 73.4633 18.2999 73.5904 18.278V17.6251C73.4814 17.636 73.4124 17.6433 73.2925 17.6433C72.9037 17.6433 72.7329 17.4609 72.7329 17.0451V15.0023H73.5904V14.342H72.7329V13.3352H71.9517Z" fill="#090909"/>
  <path d="M74.6391 18.2963H75.4204V15.9762C75.4204 15.3743 75.7765 14.9694 76.416 14.9694C76.9683 14.9694 77.2626 15.2904 77.2626 15.9252V18.2963H78.0439V15.7318C78.0439 14.787 77.5242 14.2508 76.6812 14.2508C76.0853 14.2508 75.6674 14.5171 75.4749 14.9621H75.4131V12.7734H74.6391V18.2963Z" fill="#090909"/>
  <path d="M80.8621 14.9147C81.4399 14.9147 81.8178 15.3196 81.8359 15.9434H79.8374C79.881 15.3233 80.2844 14.9147 80.8621 14.9147ZM81.8323 17.2238C81.687 17.5339 81.3636 17.7053 80.8912 17.7053C80.2662 17.7053 79.8629 17.2639 79.8374 16.5672V16.5234H82.6317V16.2498C82.6317 15.0023 81.9668 14.2472 80.8658 14.2472C79.7502 14.2472 79.0417 15.0533 79.0417 16.3228C79.0417 17.5922 79.7357 18.3729 80.8694 18.3729C81.7742 18.3729 82.4064 17.9351 82.5845 17.2238H81.8323Z" fill="#090909"/>
</svg>